<svg viewBox="0 0 30 30" xmlns="http://www.w3.org/2000/svg"><path d="M14.75 8.953c1.219 0 2.25-1.031 2.25-2.25 0-.984-1.172-2.766-1.64-3.469A.891.891 0 0014.75 3c-.281 0-.516.094-.656.281-.469.703-1.594 2.485-1.594 3.422a2.22 2.22 0 002.25 2.25zm0-3.844c.422.75.703 1.407.75 1.594 0 .422-.375.75-.75.75a.74.74 0 01-.75-.75c0-.234.281-.89.75-1.594zm6.75 3.844a2.25 2.25 0 002.25-2.25c0-.937-1.172-2.719-1.64-3.422A.756.756 0 0021.5 3c-.281 0-.516.094-.656.281-.469.703-1.594 2.485-1.594 3.422a2.22 2.22 0 002.25 2.25zm0-3.844c.422.75.703 1.407.75 1.594 0 .422-.375.75-.75.75a.74.74 0 01-.75-.75c0-.234.281-.89.75-1.594zM8 8.953a2.25 2.25 0 002.25-2.25c0-.937-1.172-2.719-1.64-3.422A.756.756 0 008 3c-.281 0-.516.094-.656.281-.469.703-1.594 2.485-1.594 3.422A2.22 2.22 0 008 8.953zM8 5.11c.422.704.703 1.36.75 1.594 0 .422-.375.75-.75.75a.74.74 0 01-.75-.75c0-.234.281-.89.75-1.594zm12 14.344a1.11 1.11 0 00-1.125 1.125c0 .656.469 1.125 1.125 1.125a1.11 1.11 0 001.125-1.125A1.14 1.14 0 0020 19.453zm2.39-2.672l-.75-3.234c-.328-1.36-1.5-2.344-2.906-2.344h-8.156c-1.36 0-2.578.985-2.906 2.344l-.75 3.328A3.47 3.47 0 005 19.969v2.578c0 .937.61 1.781 1.5 2.062v1.594c0 .422.328.75.75.75.375 0 .75-.328.75-.75v-1.5h13.5v1.5c0 .422.328.75.75.75.375 0 .75-.328.75-.75V24.61c.89-.28 1.453-1.125 1.5-2.062V19.97c0-1.36-.844-2.625-2.11-3.188zM9.126 13.875a1.56 1.56 0 011.5-1.125h8.11c.703 0 1.312.469 1.453 1.125l.609 2.625H8.562l.563-2.625zM23 22.547a.72.72 0 01-.703.703H7.157c-.376-.047-.657-.328-.657-.703v-2.578A1.98 1.98 0 018.469 18h12.515c1.078 0 2.016.89 2.016 1.969v2.578zM9.5 19.453a1.11 1.11 0 00-1.125 1.125c0 .656.469 1.125 1.125 1.125a1.11 1.11 0 001.125-1.125A1.14 1.14 0 009.5 19.453z" fill="#5C8EE6"/></svg>