<svg viewBox="0 0 30 30" xmlns="http://www.w3.org/2000/svg"><path d="M15 22.5c.375 0 .75-.328.75-.75v-1.5h1.5c.375 0 .75-.328.75-.75 0-.375-.375-.75-.75-.75h-1.5v-1.5c0-.375-.375-.75-.75-.75-.422 0-.75.375-.75.75v1.5h-1.5c-.422 0-.75.375-.75.75 0 .422.328.75.75.75h1.5v1.5c0 .422.328.75.75.75zm-11.25-9c.375 0 .75-.328.75-.75V10.5H6c.375 0 .75-.328.75-.75C6.75 9.375 6.375 9 6 9H4.5V6.75c0-.375-.375-.75-.75-.75-.422 0-.75.375-.75.75V9H.75C.328 9 0 9.375 0 9.75c0 .328.328.75.75.75H3v2.25c0 .422.328.75.75.75zm25.5 9H27v-2.25c0-.375-.375-.75-.75-.75-.422 0-.75.375-.75.75v2.25h-2.25c-.422 0-.75.375-.75.75s.328.75.75.75h2.25v2.25c0 .422.328.75.75.75.375 0 .75-.328.75-.75V24h2.25a.72.72 0 00.703-.703c0-.375-.328-.797-.703-.797zm-7.875 2.063c-.516 0-1.313.937-3.422.937H13.22a5.506 5.506 0 01-4.453-2.25l-4.032-5.344c-.187-.234-.28-.468-.28-.75 0-.61.515-1.031 1.077-1.031.235 0 .61.094.89.469l1.595 2.11c.28.374.75.608 1.171.608.188 0 1.313-.14 1.313-1.265V7.172c0-.563.422-1.172 1.125-1.172.61 0 1.125.516 1.125 1.125v7.125c0 .094.094.797.75.797.375 0 .703-.375.703-.75V5.672c0-.563.422-1.172 1.125-1.172.61 0 1.125.516 1.125 1.125v8.625c0 .094.094.797.75.797.375 0 .75-.375.75-.75V7.172c0-.563.422-1.172 1.125-1.172.61 0 1.125.516 1.125 1.125v7.078c0 .14.094.797.75.797.375 0 .75-.328.75-.703V9.422c0-.61.422-1.172 1.125-1.172.61 0 1.125.516 1.125 1.125v7.734c0 .375.328.75.75.75.375 0 .797-.375.797-.75V9.47c0-1.031-.797-2.719-2.672-2.719-.375 0-.75.094-1.125.234-.047-1.359-1.219-2.484-2.625-2.484-.469 0-.89.14-1.265.328C17.483 3.797 16.5 3 15.328 3s-2.11.797-2.484 1.875a2.323 2.323 0 00-1.219-.375C9.75 4.5 9 6.234 9 7.266v10.171L7.547 15.61a2.555 2.555 0 00-2.016-.984C4.125 14.625 3 15.703 3 17.156c0 .563.14 1.172.516 1.64l4.078 5.345C8.859 25.92 10.969 27 13.219 27H18c1.5 0 4.125-.703 4.125-1.688 0-.28-.188-.75-.75-.75z" fill="#5C8EE6"/></svg>