<svg viewBox="0 0 30 30" xmlns="http://www.w3.org/2000/svg"><path d="M14.75 11.25c-.422 0-.75.375-.75.75 0 .422.328.75.75.75.375 0 .75-.375.75-.75s-.375-.75-.75-.75zM20 10.5h-.61c-.89 0-1.5-.75-1.5-1.547 0-.328.141-.75.47-1.031l.374-.422a.753.753 0 00.235-.516c0-.375-.328-.703-.75-.703a.753.753 0 00-.516.235l-.422.375a1.33 1.33 0 01-1.031.468c-.797 0-1.547-.609-1.547-1.5V5.25a.74.74 0 00-.75-.75c-.375 0-.75.328-.75.75v.563c0 .89-.703 1.5-1.5 1.5-.375 0-.75-.141-1.031-.47l-.422-.327c-.14-.188-.328-.235-.516-.235-.421 0-.75.328-.75.703 0 .188.094.375.235.516l.375.422c.328.328.469.703.469 1.078 0 .797-.61 1.547-1.5 1.547H8a.74.74 0 00-.75.75c0 .375.328.75.75.75h.563c.89 0 1.5.703 1.5 1.5 0 .375-.141.75-.47 1.031L9.22 15a.753.753 0 00-.235.516c0 .421.329.703.75.703.188 0 .375-.047.516-.235l.422-.375a1.329 1.329 0 011.031-.468c.328 0 1.547.28 1.547 1.5v.609c0 .375.328.75.75.75.375 0 .75-.375.75-.75v-.61c0-.89.703-1.5 1.5-1.5.375 0 .75.141 1.031.47l.422.374c.14.188.328.235.516.235.422 0 .75-.328.75-.703a.753.753 0 00-.235-.516l-.375-.422a1.329 1.329 0 01-.468-1.031c0-.797.609-1.547 1.5-1.547H20c.375 0 .75-.328.75-.75 0-.375-.375-.75-.75-.75zm-3.61 3.047v.14h-.14c-.89 0-1.734.422-2.297 1.032a2.931 2.931 0 00-2.25-1.031h-.187c.046-.047.046-.094.046-.141 0-.703-.28-1.594-1.03-2.25.609-.563 1.03-1.406 1.03-2.297 0-.047 0-.094-.046-.14h.187c.89 0 1.735-.422 2.25-1.032.563.61 1.36 1.031 2.297 1.031h.14V9c0 .844.376 1.688 1.032 2.297a3.006 3.006 0 00-1.031 2.25zM13.25 9.75a.74.74 0 00-.75.75c0 .375.328.75.75.75.375 0 .75-.328.75-.75 0-.375-.375-.75-.75-.75zm10.594-5.813l-9-3.75C14.609.095 14.234 0 14 0a2.73 2.73 0 00-.89.188l-9 3.75A2.243 2.243 0 002.75 6c0 12.094 8.86 18 11.203 18 2.438 0 11.297-6 11.297-18 0-.89-.563-1.688-1.406-2.063zM13.954 22.5C11.936 22.5 4.25 16.687 4.25 6c0-.328.14-.61.422-.703l9-3.75c.094-.047.234-.047.328-.047.047 0 .234 0 .281.047l9 3.75c.282.14.469.422.469.703 0 12.281-9.188 16.5-9.797 16.5z" fill="#5C8EE6"/></svg>