<svg viewBox="0 0 30 30" xmlns="http://www.w3.org/2000/svg"><path d="M25.875 6.75A1.11 1.11 0 0027 5.625 1.14 1.14 0 0025.875 4.5a1.11 1.11 0 00-1.125 1.125c0 .656.469 1.125 1.125 1.125zM10.5 14.25A3.731 3.731 0 006.75 18c0 2.11 1.64 3.75 3.75 3.75A3.73 3.73 0 0014.25 18a3.761 3.761 0 00-3.75-3.75zm0 6A2.221 2.221 0 018.25 18a2.25 2.25 0 012.25-2.25c1.219 0 2.25 1.031 2.25 2.25a2.25 2.25 0 01-2.25 2.25zm15.375-6.75a1.11 1.11 0 00-1.125 1.125c0 .656.469 1.125 1.125 1.125A1.11 1.11 0 0027 14.625a1.14 1.14 0 00-1.125-1.125zm-4.5-9a1.11 1.11 0 00-1.125 1.125c0 .656.469 1.125 1.125 1.125A1.11 1.11 0 0022.5 5.625 1.14 1.14 0 0021.375 4.5zM13.5 9V4.5c0-.797-.703-1.5-1.5-1.5H9c-.844 0-1.5.703-1.5 1.5V9A4.501 4.501 0 003 13.5V24c0 1.688 1.313 3 3 3h9c1.64 0 3-1.313 3-3V13.5c0-2.484-2.016-4.5-4.5-4.5zM9 4.5h3V9H9V4.5zM16.5 24c0 .844-.703 1.5-1.5 1.5H6A1.48 1.48 0 014.5 24V13.5c0-1.64 1.313-3 3-3h6c1.64 0 3 1.36 3 3V24zm9.375-15a1.11 1.11 0 00-1.125 1.125c0 .656.469 1.125 1.125 1.125A1.11 1.11 0 0027 10.125 1.14 1.14 0 0025.875 9zm-4.5 0a1.11 1.11 0 00-1.125 1.125c0 .656.469 1.125 1.125 1.125a1.11 1.11 0 001.125-1.125A1.14 1.14 0 0021.375 9zm-4.5-4.5a1.11 1.11 0 00-1.125 1.125c0 .656.469 1.125 1.125 1.125A1.11 1.11 0 0018 5.625 1.14 1.14 0 0016.875 4.5z" fill="#5C8EE6"/></svg>