<svg viewBox="0 0 30 30" xmlns="http://www.w3.org/2000/svg"><path d="M28.953 26.156a.758.758 0 00-.656-.75c-2.719-.375-3-2.203-3.844-2.203a.756.756 0 00-.61.281 4.84 4.84 0 01-3.89 1.97c-1.594 0-3.047-.75-3.89-1.97a.756.756 0 00-.61-.28.756.756 0 00-.61.28 4.84 4.84 0 01-3.89 1.97c-3.187 0-3.61-2.204-4.453-2.204-.281 0-.516.094-.656.281C4.109 25.97 2 24.844 2 26.203c0 .61.61.75.703.75.516 0 2.344-.375 3.75-1.828 1.172 1.172 2.813 1.828 4.547 1.828 1.734 0 3.328-.656 4.5-1.828C16.625 26.297 18.266 27 20 27a6.429 6.429 0 004.5-1.875c1.406 1.453 3.281 1.828 3.75 1.828.61-.047.703-.656.703-.797zM13.016 11.953c-.704 0-1.266.516-1.266 1.219v5.015c0 .704.516 1.266 1.266 1.266h4.968a1.26 1.26 0 001.266-1.265v-5.016c0-.656-.516-1.219-1.266-1.219h-4.968zm4.734 6h-4.5v-4.5h4.453v4.5h.047zm-15-2.25c.14 0 .328-.094.469-.187L5 13.969v6.234a.72.72 0 00.703.703.72.72 0 00.703-.703v-7.5c0-.047 0-.047-.047-.047L15.5 4.734l9 7.922c0 .047-.047.047-.047.047v7.5c0 .375.375.703.75.703a.72.72 0 00.703-.703V13.97l1.735 1.547c.14.093.328.187.515.187.422 0 .75-.375.75-.75 0-.234-.093-.422-.281-.515L25.906 12V5.25c0-.422-.328-.75-.703-.75h-4.5c-.375 0-.703.375-.703.75v1.453l-4.031-3.562A.905.905 0 0015.5 3a.945.945 0 00-.516.14L2.234 14.39a.742.742 0 00-.234.563c0 .422.328.75.75.75zm18.703-9.75h2.953v4.688l-2.953-2.672V5.953z" fill="#5C8EE6"/></svg>