<svg width="140" height="44" fill="none" xmlns="http://www.w3.org/2000/svg"><g clip-path="url(#clip0_278_1470)"><path fill-rule="evenodd" clip-rule="evenodd" d="M21.993 4.894c2.293 0 4.48.45 6.479 1.27v15.654a6.425 6.425 0 01-10.418 5.035v5.688a11.41 11.41 0 003.993.716c6.978 0 11.468-5.51 11.468-12.198V3.256A21.89 21.89 0 0021.993 0C9.847 0 0 9.847 0 21.993c0 6.936 3.211 13.123 8.228 17.154V32.14a17.023 17.023 0 01-3.334-10.147c0-9.444 7.655-17.1 17.099-17.1z" fill="#292D33"/><path fill-rule="evenodd" clip-rule="evenodd" d="M22.062 39.107c-2.293 0-4.48-.452-6.479-1.27V22.181a6.425 6.425 0 0110.418-5.035V11.46a11.409 11.409 0 00-3.993-.717c-6.978 0-11.468 5.51-11.468 12.198v17.803A21.89 21.89 0 0022.062 44c12.146 0 21.993-9.846 21.993-21.993 0-6.936-3.212-13.123-8.229-17.153v7.006a17.023 17.023 0 013.335 10.147c0 9.444-7.655 17.1-17.1 17.1z" fill="#5C8EE6"/><path d="M71.303 22.554a.35.35 0 01-.105.254.403.403 0 01-.276.106h-2.246a.351.351 0 01-.255-.106.51.51 0 01-.148-.254l-.974-4.026h-4.874l-.975 4.026a.507.507 0 01-.148.254.351.351 0 01-.255.106h-2.246a.403.403 0 01-.275-.106.35.35 0 01-.106-.254c0-.022 0-.022.021-.043v-.063l3.475-13.286c.128-.488.318-.89.551-1.166a2.82 2.82 0 01.784-.657c.276-.148.551-.233.848-.275.275-.043.53-.064.763-.064.233 0 .487.021.784.064.275.042.572.127.847.275.276.149.53.382.763.657.233.276.424.678.551 1.166l3.475 13.286c0 .02 0 .042.021.063v.043zM65.201 9.819a.681.681 0 00-.106-.276c-.043-.043-.127-.064-.233-.064-.106 0-.191.021-.233.064a.677.677 0 00-.107.276l-1.525 6.293h3.73L65.2 9.819zm16.592 12.523c0 .148-.022.254-.085.317-.064.064-.19.106-.34.128a3.531 3.531 0 01-.656.106 12.52 12.52 0 01-.954.106l-1.038.063c-.36.021-.678.021-.954.021-.699 0-1.335-.063-1.928-.17a3.761 3.761 0 01-1.547-.656c-.445-.318-.784-.742-1.038-1.314-.254-.572-.382-1.293-.382-2.204V7.594c0-.106.043-.213.128-.297a.419.419 0 01.297-.127h2.097c.106 0 .212.042.297.127.085.084.127.19.127.297v11.145c0 .7.127 1.187.36 1.441.233.254.678.382 1.293.382h3.899c.106 0 .212.042.296.127.085.085.128.19.128.296v1.357zm4.958.148a.418.418 0 01-.127.297.418.418 0 01-.297.127H84.23a.418.418 0 01-.296-.127.418.418 0 01-.128-.297V7.572a.42.42 0 01.128-.297.508.508 0 01.296-.105h2.098a.51.51 0 01.297.105.418.418 0 01.127.297V22.49zm14.875.064a.35.35 0 01-.106.254.4.4 0 01-.275.106h-2.246a.35.35 0 01-.255-.106.51.51 0 01-.148-.255l-.975-4.026h-4.873l-.975 4.026a.511.511 0 01-.148.255.35.35 0 01-.255.106h-2.246a.402.402 0 01-.275-.106.352.352 0 01-.106-.255c0-.02 0-.02.02-.042v-.063L92.24 9.162c.127-.488.318-.89.551-1.166.233-.275.509-.508.784-.657.276-.148.551-.233.848-.275.275-.043.53-.064.763-.064.233 0 .487.021.784.064.275.042.572.127.847.275.276.149.53.382.763.657.233.276.424.678.551 1.166l3.475 13.286c0 .02 0 .042.021.063v.043zM95.524 9.819a.676.676 0 00-.106-.276c-.043-.043-.128-.064-.234-.064-.105 0-.19.021-.232.064a.671.671 0 00-.106.276l-1.526 6.293h3.73l-1.526-6.293zm20.003 12.247a.833.833 0 01-.848.848h-2.14c-.254 0-.487-.042-.699-.106-.233-.064-.424-.276-.594-.657l-4.704-10.32c-.063-.105-.127-.17-.19-.17-.064 0-.106.065-.106.17v10.66a.51.51 0 01-.106.296.42.42 0 01-.297.127h-1.801a.42.42 0 01-.297-.127.421.421 0 01-.127-.297V8.017a.85.85 0 01.254-.614.835.835 0 01.594-.233h2.288c.233 0 .403.042.551.127.128.084.255.275.382.55l4.937 10.892c.042.106.106.17.169.17.064 0 .106-.064.106-.19V7.571c0-.275.128-.402.403-.402h1.822c.276 0 .403.127.403.402v14.494zm12.544.19c0 .15-.042.255-.127.319a.999.999 0 01-.339.17c-.084.02-.233.063-.424.084-.211.043-.466.085-.762.127-.297.021-.636.064-.996.085-.36.021-.763.042-1.166.042a7.654 7.654 0 01-2.013-.275 4.985 4.985 0 01-1.928-1.017c-.594-.488-1.06-1.144-1.462-1.97-.382-.827-.572-1.908-.572-3.222v-3.115c0-1.335.19-2.415.572-3.263.402-.826.868-1.483 1.462-1.97a4.938 4.938 0 011.928-.997A8.58 8.58 0 01124.257 7c.403 0 .806.021 1.166.043.36.02.699.063.996.084.296.043.551.085.762.127.191.043.34.064.424.085a.997.997 0 01.339.149c.085.063.127.19.127.338v1.42a.514.514 0 01-.084.318c-.064.085-.191.127-.339.127h-.043c-.19-.021-.402-.042-.657-.063-.275-.022-.551-.022-.847-.043-.297-.02-.594-.02-.911-.042-.318-.021-.615-.021-.891-.021a3.74 3.74 0 00-1.228.19c-.382.149-.7.36-.975.658-.276.317-.487.72-.636 1.228-.148.509-.233 1.145-.233 1.886V16.6c0 .742.085 1.356.233 1.865.149.509.36.911.636 1.23.275.317.593.529.975.656.36.148.784.212 1.228.212.276 0 .573 0 .891-.021.317-.022.614-.022.911-.043.296-.021.572-.042.847-.064.255-.02.467-.02.657-.042h.043c.148 0 .275.042.339.127.063.085.084.19.084.318v1.42zm11.93.086c0 .148-.021.254-.084.317-.064.064-.191.106-.339.128-.17.02-.36.063-.551.085a6.083 6.083 0 01-.763.105c-.318.022-.678.064-1.102.085-.445.021-.975.021-1.611.021a10.79 10.79 0 01-1.928-.17 3.648 3.648 0 01-1.547-.656 3.132 3.132 0 01-1.059-1.314c-.254-.572-.382-1.293-.382-2.204v-7.395c0-.911.128-1.631.382-2.204.254-.572.614-1.017 1.059-1.335.424-.317.954-.53 1.547-.635.594-.106 1.229-.17 1.928-.17.636 0 1.166 0 1.611.021.424.022.784.064 1.102.085.296.021.551.064.763.085.191.042.381.084.551.106.148.021.275.063.339.127.063.064.084.17.084.318v1.356a.417.417 0 01-.127.297.417.417 0 01-.296.127h-4.323c-.615 0-1.06.127-1.293.381-.254.254-.381.742-.381 1.441v2.289h5.742a.42.42 0 01.297.127c.085.085.127.19.127.296v1.526a.417.417 0 01-.127.297.42.42 0 01-.297.127h-5.742v2.733c0 .7.127 1.187.381 1.441.233.254.678.382 1.293.382h4.323c.105 0 .212.042.296.127.085.085.127.19.127.296v1.357z" fill="#292D33"/><path d="M65.876 29.987c0 .595-.109 1.095-.311 1.5-.216.405-.5.73-.865.973a3.14 3.14 0 01-1.23.527 6.705 6.705 0 01-1.5.162c-.175 0-.378-.014-.621-.027-.23-.013-.432-.013-.581-.027v3.527a.323.323 0 01-.068.189.266.266 0 01-.189.08H59.16a.268.268 0 01-.19-.08.268.268 0 01-.08-.19v-9.296c0-.135.04-.23.121-.297a.6.6 0 01.311-.108 19.22 19.22 0 011.216-.135c.46-.027.946-.04 1.446-.04.514 0 1.014.053 1.486.148.46.094.879.27 1.23.513.365.244.649.568.865.96.202.405.31.905.31 1.5v.12zm-1.879-.135c0-.567-.162-.973-.5-1.203-.337-.243-.85-.364-1.527-.364h-.27c-.122.013-.23.013-.351.013-.122.014-.23.014-.324.014-.108.013-.19.013-.257.027v3.23h.257c.108.013.23.013.35.013.123.013.23.013.352.013.108.014.19.014.243.014.73 0 1.257-.136 1.568-.406.31-.27.46-.675.46-1.23v-.121zm10.648 6.878c0 .108-.054.162-.162.162h-1.649a.193.193 0 01-.162-.081c-.04-.054-.067-.122-.108-.19l-1.945-3.594h-.19c-.175 0-.392-.013-.621-.027-.23-.013-.433-.013-.581-.027v3.649a.326.326 0 01-.068.189.268.268 0 01-.19.08h-1.35a.266.266 0 01-.19-.08.267.267 0 01-.08-.19v-9.296c0-.135.04-.23.121-.297a.599.599 0 01.31-.108c.352-.054.757-.095 1.217-.135.46-.027.946-.04 1.446-.04.513 0 1.013.053 1.486.148.46.108.879.284 1.23.513.365.23.648.54.865.933.203.391.31.878.31 1.459v.121c0 .717-.162 1.311-.5 1.757-.324.446-.77.784-1.337 1l2.121 3.946a.26.26 0 01.027.108zm-2.189-6.932c0-.513-.162-.878-.5-1.108-.338-.23-.851-.338-1.526-.338h-.27c-.123.014-.23.014-.352.014-.122.013-.23.013-.325.013-.108.013-.189.013-.256.027v3.04h.257c.108.014.23.014.35.014.123.014.23.014.352.014.108.013.19.013.243.013.703 0 1.216-.108 1.54-.338.325-.23.487-.635.487-1.23v-.121zm10.864 2.986c0 .743-.094 1.392-.283 1.919-.203.527-.46.96-.811 1.297a3.136 3.136 0 01-1.216.757c-.46.162-.973.243-1.527.243a4.607 4.607 0 01-1.54-.243A3.138 3.138 0 0176.725 36a3.464 3.464 0 01-.797-1.297c-.203-.527-.297-1.176-.297-1.919V30.96c0-.743.094-1.378.297-1.919.19-.527.46-.973.797-1.31a3.124 3.124 0 011.216-.744c.46-.162.973-.243 1.54-.243a4.59 4.59 0 011.528.243c.473.163.878.406 1.216.743.351.338.608.784.81 1.311.19.54.284 1.176.284 1.919v1.824zm-1.878-1.824c0-.905-.162-1.554-.486-1.973-.311-.405-.811-.608-1.473-.608-.676 0-1.176.203-1.487.608-.324.42-.486 1.068-.486 1.973v1.824c0 .905.162 1.554.486 1.96.311.418.811.621 1.487.621.662 0 1.162-.203 1.473-.621.324-.406.486-1.055.486-1.96V30.96zm10.918 1.905c0 1.338-.365 2.365-1.108 3.068-.73.716-1.783 1.067-3.135 1.067-.257 0-.5 0-.77-.014-.27-.013-.527-.026-.77-.04-.257-.013-.473-.04-.676-.054-.203-.013-.365-.04-.46-.054-.12-.014-.202-.054-.256-.121-.067-.068-.095-.163-.095-.298v-9.094c0-.135.028-.23.095-.297.054-.068.135-.108.257-.122.094-.013.256-.04.46-.054.202-.013.418-.04.675-.054.243-.013.5-.027.77-.04.27-.014.513-.014.77-.014 1.352 0 2.405.351 3.135 1.054.743.716 1.108 1.743 1.108 3.081v1.986zm-1.878-1.986c0-.5-.054-.919-.176-1.243a2.119 2.119 0 00-.5-.797 1.96 1.96 0 00-.756-.406 4.226 4.226 0 00-.946-.108c-.257 0-.473 0-.649.014-.175.013-.338.013-.486.027v7.026c.148.014.31.014.486.027.176.014.392.014.649.014.338 0 .648-.04.946-.122.283-.067.54-.203.756-.405a1.96 1.96 0 00.5-.784c.122-.324.176-.743.176-1.243v-2zm10.986 2.297c0 .716-.095 1.324-.271 1.81-.189.487-.446.88-.77 1.176-.338.298-.73.514-1.176.635a5.262 5.262 0 01-1.5.203c-.54 0-1.04-.067-1.486-.203a2.76 2.76 0 01-1.175-.635c-.338-.297-.595-.689-.77-1.175-.19-.487-.284-1.095-.284-1.81v-6.068a.27.27 0 01.081-.19.322.322 0 01.189-.067h1.338a.32.32 0 01.189.068.267.267 0 01.081.189v6.08c0 .379.027.717.081 1 .054.284.149.528.297.717.135.189.325.324.555.419.23.094.54.135.904.135.366 0 .663-.041.906-.136.23-.094.419-.23.568-.418.135-.19.23-.433.283-.717.054-.283.081-.621.081-1v-6.08a.27.27 0 01.082-.19.322.322 0 01.189-.067h1.337c.068 0 .136.027.189.068a.263.263 0 01.082.189v6.067zm7.932 3.297c0 .095-.027.162-.082.203a.643.643 0 01-.216.108c-.054.013-.149.04-.27.054a8.967 8.967 0 01-.486.08c-.19.015-.406.041-.635.055-.23.014-.487.027-.744.027a4.88 4.88 0 01-1.284-.176 3.185 3.185 0 01-1.229-.648c-.378-.31-.676-.73-.933-1.257-.243-.527-.364-1.216-.364-2.054V30.88c0-.851.121-1.54.364-2.081.257-.527.555-.946.933-1.257a3.15 3.15 0 011.229-.635 5.476 5.476 0 011.284-.162c.257 0 .514.014.744.027.229.014.445.04.635.054.189.027.351.054.486.081.121.027.216.04.27.054a.644.644 0 01.216.095c.055.04.082.122.082.216v.905a.324.324 0 01-.055.203c-.04.054-.121.081-.216.081h-.027a16.513 16.513 0 00-.419-.04c-.175-.014-.351-.014-.54-.028-.189-.013-.379-.013-.581-.026-.203-.014-.392-.014-.568-.014-.283 0-.554.04-.783.122-.244.094-.446.23-.622.418a2.05 2.05 0 00-.406.784 4.38 4.38 0 00-.148 1.203v1.986c0 .473.054.865.148 1.19.095.324.23.58.406.783.176.203.378.338.622.419.229.095.5.135.783.135.176 0 .365 0 .568-.013.202-.014.392-.014.581-.027l.54-.04c.162-.014.297-.014.419-.028h.027c.095 0 .176.027.216.081a.323.323 0 01.055.203v.905zm8.107-8.296a.218.218 0 01-.081.175.325.325 0 01-.189.067h-2.365v8.203a.268.268 0 01-.081.19.268.268 0 01-.189.08h-1.338a.268.268 0 01-.189-.08.268.268 0 01-.081-.19v-8.203h-2.365a.325.325 0 01-.189-.067.218.218 0 01-.081-.175v-1.068a.27.27 0 01.081-.19.323.323 0 01.189-.067h6.608a.32.32 0 01.189.068.266.266 0 01.081.189v1.067zm3.23 8.445a.27.27 0 01-.082.19.264.264 0 01-.189.08h-1.337a.268.268 0 01-.19-.08.268.268 0 01-.081-.19v-9.513a.27.27 0 01.081-.19.324.324 0 01.19-.067h1.337c.068 0 .136.027.189.068a.268.268 0 01.082.189v9.513zm9.445-3.838c0 .743-.095 1.392-.284 1.919-.203.527-.46.96-.811 1.297a3.14 3.14 0 01-1.216.757 4.581 4.581 0 01-1.527.243 4.605 4.605 0 01-1.54-.243 3.14 3.14 0 01-1.216-.757 3.47 3.47 0 01-.798-1.297c-.202-.527-.297-1.176-.297-1.919V30.96c0-.743.095-1.378.297-1.919.19-.527.46-.973.798-1.31a3.124 3.124 0 011.216-.744 4.605 4.605 0 011.54-.243c.554 0 1.068.081 1.527.243.473.163.878.406 1.216.743.351.338.608.784.811 1.311.189.54.284 1.176.284 1.919v1.824zm-1.879-1.824c0-.905-.162-1.554-.486-1.973-.311-.405-.811-.608-1.473-.608-.675 0-1.175.203-1.486.608-.324.42-.487 1.068-.487 1.973v1.824c0 .905.163 1.554.487 1.96.311.418.811.621 1.486.621.662 0 1.162-.203 1.473-.621.324-.406.486-1.055.486-1.96V30.96zm11.243 5.392a.53.53 0 01-.541.54h-1.364c-.162 0-.311-.027-.446-.068-.149-.04-.27-.175-.379-.418l-2.999-6.581c-.041-.068-.082-.108-.122-.108-.04 0-.067.04-.067.108v6.797a.328.328 0 01-.068.19.268.268 0 01-.189.08h-1.149a.268.268 0 01-.189-.08.268.268 0 01-.081-.19v-9.23a.533.533 0 01.541-.54h1.459c.148 0 .256.027.351.081.081.054.162.176.243.352l3.149 6.945c.027.068.067.108.108.108.04 0 .067-.04.067-.121v-7.108c0-.176.082-.257.257-.257h1.162c.176 0 .257.081.257.257v9.243z" fill="#5C8EE6"/></g><defs><clipPath id="clip0_278_1470"><path fill="#fff" d="M0 0h140v44H0z"/></clipPath></defs></svg>