<svg width="60" height="68" fill="none" xmlns="http://www.w3.org/2000/svg"><g clip-path="url(#clip0_309_807)"><g filter="url(#filter0_f_309_807)"><path d="M30.51 56.523a.5.5 0 01-.5.477c-.29 0-.51-.21-.52-.477-.145-3.168-1.756-5.217-4.832-6.147C14.53 47.968 7 38.863 7 28 7 15.297 17.297 5 30 5s23 10.297 23 23c0 10.863-7.53 19.968-17.658 22.376-3.076.93-4.687 2.98-4.83 6.147h-.002z" fill="#F33"/></g><path d="M30.51 56.523a.5.5 0 01-.5.477c-.29 0-.51-.21-.52-.477-.145-3.168-1.756-5.217-4.832-6.147C14.53 47.968 7 38.863 7 28 7 15.297 17.297 5 30 5s23 10.297 23 23c0 10.863-7.53 19.968-17.658 22.376-3.076.93-4.687 2.98-4.83 6.147h-.002z" fill="#F33"/><path d="M30 68c-2.21 0-4-1.79-4-4s1.79-4 4-4 4 1.79 4 4-1.79 4-4 4z" fill="#fff"/><path fill-rule="evenodd" clip-rule="evenodd" d="M30 66a2.001 2.001 0 10.09-4 2.001 2.001 0 00-.09 4z" fill="#F33"/><path fill-rule="evenodd" clip-rule="evenodd" d="M28 34.2V39h11.4a.6.6 0 00.6-.6V24.6a.6.6 0 00-.6-.6h-4.954l-.158 2H38v1h-3.79l-.159 2H38v1h-4.028l-.373 4.715a.303.303 0 01-.323.284.306.306 0 01-.276-.309V18.4a.4.4 0 00-.4-.4H32v-.6a.4.4 0 00-.4-.4H21.4a.4.4 0 00-.4.4v.6h-.6a.4.4 0 00-.4.4v20a.6.6 0 00.6.6H25v-4.8c0-.11.09-.2.2-.2h2.6c.11 0 .2.09.2.2zM23.5 31v-6h2v6h-2zm4-6v6h2v-6h-2zm-4-2v-3h2v3h-2zm4-3v3h2v-3h-2zM35 33v-1h3v1h-3z" fill="#fff"/></g><defs><clipPath id="clip0_309_807"><path fill="#fff" d="M0 0h60v68H0z"/></clipPath><filter id="filter0_f_309_807" x="1" y="-1" width="58" height="64" filterUnits="userSpaceOnUse" color-interpolation-filters="sRGB"><feFlood flood-opacity="0" result="BackgroundImageFix"/><feBlend in="SourceGraphic" in2="BackgroundImageFix" result="shape"/><feGaussianBlur stdDeviation="3" result="effect1_foregroundBlur_309_807"/></filter></defs></svg>