<svg xmlns="http://www.w3.org/2000/svg"><symbol viewBox="0 0 10 6" id="arrow"><path d="M1 1l4 4 4-4" fill="transparent" xmlns="http://www.w3.org/2000/svg"/></symbol><symbol viewBox="0 0 16 17" id="phoneIcon"><path d="M15.969 12.082l-.75 3.156a.94.94 0 01-.938.782C6.406 15.988 0 9.582 0 1.707 0 1.238.281.863.75.77L3.906.02c.438-.094.906.156 1.094.562l1.469 3.406c.156.407.062.875-.282 1.125L4.5 6.488a10.852 10.852 0 005 4.97l1.375-1.688c.25-.313.719-.438 1.125-.282l3.406 1.47c.406.218.656.687.563 1.124z" fill="5C8EE6" xmlns="http://www.w3.org/2000/svg"/></symbol><symbol viewBox="0 0 21 28" id="timeIcon"><path d="M20.125 1.75h.219A.665.665 0 0021 1.094V.656C21 .328 20.672 0 20.344 0H.656A.665.665 0 000 .656v.438c0 .383.273.656.656.656h.219C.875 6.781 3.281 12.36 7.93 14 3.227 15.695.875 21.273.875 26.25H.656a.665.665 0 00-.656.656v.438c0 .383.273.656.656.656h19.688a.665.665 0 00.656-.656v-.438c0-.328-.328-.656-.656-.656h-.219c0-4.977-2.46-10.555-7.11-12.25 4.704-1.64 7.11-7.219 7.11-12.25zm-17.5 0h15.75c0 6.07-3.555 10.938-7.875 10.938-4.375 0-7.875-4.868-7.875-10.938zm15.75 24.5H2.625c0-6.016 3.5-10.938 7.875-10.938 4.32 0 7.875 4.922 7.875 10.938zM14.711 8.04c.328-.384 0-1.04-.547-1.04H6.781c-.547 0-.875.656-.547 1.04.11.163.22.327.383.491.11.164.274.219.492.219h6.727c.219 0 .383-.055.492-.219a3 3 0 00.383-.492zM5.359 22.75c-.328 0-.546.219-.656.492 0 .164-.055.328-.11.492a.66.66 0 00.657.766h10.445a.66.66 0 00.657-.766c-.055-.164-.11-.328-.11-.492-.11-.273-.328-.492-.656-.492H5.359z" fill="#5C8EE6" xmlns="http://www.w3.org/2000/svg"/></symbol><symbol viewBox="0 0 29 29" id="certificateIcon"><path d="M27.222 5.36L22.682.82C22.19.328 21.48 0 20.824 0H9.667C8.19.055 7.042 1.203 7.042 2.68v6.398c-.328 0-.656-.055-1.367-.273H5.4c-.273 0-.547.11-.71.273-.985 1.04-.93.985-2.298 1.367-.382.11-.656.383-.765.766C1.3 12.578 1.3 12.523.315 13.508a1.14 1.14 0 00-.273 1.094c.383 1.312.383 1.312 0 2.625-.11.382 0 .82.273 1.093.985.985.985.985 1.313 2.297.11.383.383.656.765.766.11.055.165.055.274.055v5.687c0 .328.11.602.383.766a.99.99 0 00.875.054l3.117-1.586 3.062 1.586c.165.055.274.055.438.055h14.875c1.422 0 2.625-1.148 2.625-2.57V7.219c0-.657-.328-1.367-.82-1.86zm-6.18-3.555c.11.054.273.11.383.218l4.593 4.594c.11.11.165.274.22.438h-5.196v-5.25zM1.847 17.335c.273-1.202.273-1.64 0-2.843.82-.875 1.039-1.258 1.367-2.46 1.203-.329 1.531-.548 2.406-1.423a4.513 4.513 0 002.789 0c.82.875 1.203 1.094 2.406 1.422.329 1.203.492 1.531 1.367 2.461-.328 1.203-.328 1.64 0 2.844-.82.875-1.039 1.258-1.367 2.46-.82.22-1.312.384-2.078 1.04a4.457 4.457 0 00-1.695-.328c-.656 0-1.203.11-1.75.383-.766-.657-1.258-.875-2.078-1.094-.328-1.203-.492-1.531-1.367-2.461zm5.578 7.274a1.066 1.066 0 00-.82 0l-2.188 1.149v-3.336.055a.98.98 0 00.71.273c.22 0 .384-.055.602-.11.383-.273.82-.382 1.313-.382.437 0 .875.11 1.258.328.218.164.383.164.601.164.274 0 .492-.055.711-.273l.055-.055v3.336l-2.242-1.149zm18.867.82c0 .438-.438.876-.875.876h-14v-4.867c.055 0 .11 0 .219-.055.383-.11.656-.383.765-.766.328-1.367.328-1.312 1.313-2.297a1.14 1.14 0 00.273-1.093c-.383-1.313-.383-1.313 0-2.625.11-.383 0-.82-.273-1.094-.985-.985-.985-.985-1.313-2.297a1.083 1.083 0 00-.765-.766c-1.313-.383-1.313-.328-2.297-1.367-.164-.164-.383-.219-.547-.273V2.68c0-.493.383-.93.875-.93h9.625v5.742c0 .711.547 1.258 1.312 1.258h5.688v16.68z" fill="#5C8EE6" xmlns="http://www.w3.org/2000/svg"/></symbol><symbol viewBox="0 0 25 28" id="workerIcon"><path d="M17.117 19.25c-1.586 0-2.297.875-4.867.875-2.625 0-3.336-.875-4.922-.875C3.281 19.25 0 22.586 0 26.633 0 27.398.602 28 1.367 28h21.711c.766 0 1.422-.602 1.422-1.367 0-4.047-3.336-7.383-7.383-7.383zm-15.367 7c.164-2.898 2.625-5.195 5.578-5.25 1.094 0 2.133.875 4.922.875 2.79 0 3.773-.875 4.867-.875 2.953.055 5.414 2.352 5.578 5.25H1.75zm3.063-17.5h.656a6.399 6.399 0 00-.219 1.75c0 3.883 3.117 7 7 7 3.828 0 7-3.117 7-7-.055-.602-.11-1.148-.273-1.75h.71a.431.431 0 00.438-.438v-.874A.47.47 0 0019.687 7h-.437c0-2.79-1.914-5.14-4.54-5.852C14.493.492 13.837.055 13.126 0h-1.75c-.766.055-1.422.492-1.64 1.148C7.164 1.86 5.25 4.211 5.25 7h-.438a.431.431 0 00-.437.438v.875c0 .273.164.437.438.437zm10.062-5.742A4.555 4.555 0 0117.5 7h-2.625V3.008zm-3.5-1.258h1.75V7h-1.75V1.75zM7 7c0-1.75 1.04-3.281 2.625-3.992V7H7zm.328 1.75h9.844c.164.547.273 1.148.328 1.75 0 2.898-2.406 5.25-5.25 5.25A5.251 5.251 0 017 10.5c0-.602.11-1.203.328-1.75z" fill="#5C8EE6" xmlns="http://www.w3.org/2000/svg"/></symbol><symbol viewBox="0 0 36 36" id="truckIcon"><path d="M1.75 21.5h18.375c.93 0 1.75-.766 1.75-1.75V7.5c0-.93-.82-1.75-1.75-1.75H1.75C.766 5.75 0 6.57 0 7.5v12.25c0 .984.766 1.75 1.75 1.75zm0-14h18.375v12.25H1.75V7.5zm32.21 7.766l-3.226-3.227c-.656-.656-1.53-.984-2.46-.984H24.5a.864.864 0 00-.875.875v11.375H12.469a3.71 3.71 0 00-2.406-.875c-1.258 0-2.352.547-3.063 1.476-.766-.93-1.86-1.531-3.063-1.531C1.75 22.375 0 24.18 0 26.313a3.921 3.921 0 003.938 3.937c1.203 0 2.296-.547 3.062-1.477.71.93 1.805 1.477 3.063 1.477 2.132 0 3.937-1.75 3.937-3.938 0-.437-.11-.875-.273-1.312h10.828c-.164.766-.11 1.531.164 2.352.437 1.367 1.64 2.46 3.062 2.789 2.844.71 5.469-1.477 5.469-4.266 0-.273-.055-.547-.11-.875h.985c.438 0 .875-.383.875-.875v-6.398a3.48 3.48 0 00-1.04-2.461zM3.938 28.5c-1.257 0-2.187-.93-2.187-2.188 0-1.203.93-2.187 2.188-2.187 1.203 0 2.187.984 2.187 2.188 0 1.257-.984 2.187-2.188 2.187zm6.126 0c-1.258 0-2.188-.93-2.188-2.188 0-1.203.93-2.187 2.188-2.187 1.203 0 2.187.984 2.187 2.188 0 1.257-.984 2.187-2.188 2.187zm15.312-15.75h2.898c.493 0 .93.219 1.258.547l2.953 2.953h-7.109v-3.5zm3.5 15.75a2.591 2.591 0 01-2.625-2.625 2.626 2.626 0 012.625-2.625c1.422 0 2.625 1.203 2.625 2.625a2.626 2.626 0 01-2.625 2.625zm4.375-5.25h-.93a4.295 4.295 0 00-3.445-1.75c-1.477 0-2.68.71-3.5 1.75V18h7.875v5.25zM5.687 18h.875A.431.431 0 007 17.562V9.688a.47.47 0 00-.438-.437h-.875a.431.431 0 00-.437.438v7.874c0 .274.164.438.438.438zm5.25 0h.876a.431.431 0 00.437-.438V9.688a.47.47 0 00-.438-.437h-.874a.431.431 0 00-.438.438v7.874c0 .274.164.438.438.438zm5.25 0h.875a.431.431 0 00.438-.438V9.688a.47.47 0 00-.438-.437h-.875a.431.431 0 00-.437.438v7.874c0 .274.164.438.438.438z" fill="#5C8EE6" xmlns="http://www.w3.org/2000/svg"/></symbol><symbol viewBox="0 0 36 36" id="speedometerIcon"><path d="M11.625 13.875c-.984 0-1.75.82-1.75 1.75 0 .984.766 1.75 1.75 1.75.93 0 1.75-.766 1.75-1.75 0-.93-.82-1.75-1.75-1.75zM17.75 6C9.055 6 2 13.055 2 21.75c0 2.898.766 5.633 2.133 7.93.273.547.875.875 1.476.875h24.227c.602 0 1.203-.328 1.531-.875 1.313-2.297 2.133-5.032 2.133-7.93C33.5 13.055 26.445 6 17.75 6zm0 21.875c-1.258 0-2.188-.93-2.188-2.188 0-1.203.93-2.187 2.188-2.187 1.203 0 2.188.984 2.188 2.188 0 1.257-.985 2.187-2.188 2.187zm11.594 0h-7.328c.328-.656.547-1.367.547-2.188 0-.328-.055-.656-.165-.984l5.032-2.133c.656-.328.984-1.093.71-1.75-.328-.656-1.093-.984-1.75-.71l-5.195 2.242c-.875-.875-2.133-1.477-3.445-1.477-2.68 0-4.813 2.188-4.813 4.813 0 .82.165 1.53.547 2.187H6.102c-.985-1.86-1.477-3.938-1.477-6.125 0-7.219 5.852-13.125 13.125-13.125 7.219 0 13.125 5.906 13.125 13.125 0 2.188-.547 4.266-1.531 6.125zM9 20c-.984 0-1.75.82-1.75 1.75 0 .984.766 1.75 1.75 1.75.93 0 1.75-.766 1.75-1.75 0-.93-.82-1.75-1.75-1.75zm8.75-8.75c-.984 0-1.75.82-1.75 1.75 0 .984.766 1.75 1.75 1.75.93 0 1.75-.766 1.75-1.75 0-.93-.82-1.75-1.75-1.75zm6.125 2.625c-.984 0-1.75.82-1.75 1.75 0 .984.766 1.75 1.75 1.75.93 0 1.75-.766 1.75-1.75 0-.93-.82-1.75-1.75-1.75z" xmlns="http://www.w3.org/2000/svg"/></symbol><symbol viewBox="0 0 180 180" id="agTechLogo"><g xmlns="http://www.w3.org/2000/svg"><path d="M118.028 56.416h-13.575l-3.451-5.543-6.675-10.352L78.49 65.127l-7.297 11.427-5.94 9.276-7.296 11.37-5.996 9.277-7.297 11.426h-13.52l7.297-11.426 5.94-9.277 7.297-11.37 5.94-9.276L87.538 30h13.576l6.618 10.352 6.788 10.52 3.507 5.544z"/><path d="M157.511 117.903H57.221l8.088-11.426 5.94-9.277 7.297-11.37 5.995-9.276 7.297-11.427h31.847l7.297 11.427H98.061l-5.94 9.276-7.297 11.37-5.94 9.277h57.754l-5.939-9.277h-34.11l7.581-11.37h32.751l7.354 11.37 5.939 9.277 7.297 11.426zM39.855 150.089l-1.64-2.942H29.22l2.206-4.129h4.639l-3.281-6.165-7.07 13.236H20l9.842-17.818c.51-.962 1.301-1.414 2.32-1.414h1.188c.961 0 1.753.452 2.262 1.414l9.843 17.818h-5.6zm15.046 0c-1.47 0-2.828-.226-4.073-.679a9.344 9.344 0 01-3.224-1.98 8.311 8.311 0 01-2.15-2.998c-.508-1.188-.735-2.489-.735-3.959 0-1.414.227-2.772.736-3.903a9.06 9.06 0 012.149-3.055 9.375 9.375 0 013.224-1.98c1.245-.452 2.602-.678 4.073-.678h10.295v4.921H54.562c-.68 0-1.301.113-1.867.339-.622.226-1.075.566-1.527.962-.396.452-.736.905-.962 1.527a4.984 4.984 0 00-.34 1.867c0 .679.114 1.301.34 1.923.226.566.566 1.018.962 1.414.452.453.905.735 1.527.962a4.987 4.987 0 001.867.339h5.713v-2.602h-6.222v-4.129h11.143v11.709H54.901zm27.604 0v-14.311h-7.127v-4.921h19.345v4.921h-7.07v14.311h-5.148zm21.382-7.58v-4.129h11.37v4.129h-11.37zm-6.901 7.58v-19.232h18.44v4.921h-13.293v9.333h13.35v4.978H96.986zm31.111 0c-1.527 0-2.885-.226-4.129-.679-1.245-.452-2.32-1.131-3.168-1.98a8.309 8.309 0 01-2.149-2.998c-.51-1.188-.792-2.489-.792-3.959 0-1.414.282-2.772.792-3.903a9.058 9.058 0 012.149-3.055c.848-.848 1.923-1.527 3.168-1.98 1.244-.452 2.602-.678 4.129-.678h9.39v4.921h-9.786a4.99 4.99 0 00-1.867.339 4.424 4.424 0 00-1.47.962c-.396.452-.736.905-.962 1.527a4.99 4.99 0 00-.339 1.867c0 .679.113 1.301.339 1.923.226.566.566 1.018.962 1.414.396.453.905.735 1.47.962a4.99 4.99 0 001.867.339h9.786v4.978h-9.39zm26.756 0v-7.467h-7.524v-4.695h7.524v-7.07H160v19.232h-5.147zm-14.481 0v-19.232h5.204v19.232h-5.204z"/></g></symbol><symbol viewBox="0 0 180 180" id="alianceLogo"><g xmlns="http://www.w3.org/2000/svg"><path d="M55.115 141.929a.414.414 0 01-.135.328.469.469 0 01-.347.125h-2.805a.436.436 0 01-.318-.135.662.662 0 01-.183-.318l-1.224-5.031h-6.091l-1.224 5.031a.663.663 0 01-.183.318.436.436 0 01-.319.135h-2.804a.469.469 0 01-.347-.125.414.414 0 01-.135-.328c0-.019.01-.039.01-.048a.19.19 0 00.019-.087l4.347-16.616c.154-.617.385-1.098.684-1.455.299-.347.626-.617.973-.81a3.288 3.288 0 011.06-.356 7.45 7.45 0 01.964-.077c.28 0 .607.029.964.077.366.058.723.173 1.06.356.347.193.665.463.974.81.298.357.53.838.684 1.455l4.347 16.616c0 .039.01.067.01.087a.075.075 0 01.019.048zm-7.634-15.922c-.038-.164-.077-.27-.135-.337-.048-.058-.144-.087-.289-.087-.144 0-.24.029-.289.087-.058.067-.096.173-.135.337l-1.908 7.865h4.665l-1.909-7.865zm20.751 15.662c0 .192-.039.327-.116.395a.894.894 0 01-.414.154 4.897 4.897 0 01-.839.145c-.356.048-.752.086-1.176.125-.424.038-.858.058-1.3.077-.444.019-.84.029-1.196.029-.858 0-1.667-.068-2.41-.212-.742-.145-1.387-.415-1.927-.81-.55-.395-.983-.954-1.301-1.657-.318-.704-.482-1.62-.482-2.757v-13.936c0-.145.058-.27.164-.376a.503.503 0 01.366-.154h2.622a.51.51 0 01.376.154.518.518 0 01.163.376v13.936c0 .887.145 1.484.444 1.802.298.319.838.482 1.619.482h4.877a.49.49 0 01.366.155.518.518 0 01.164.375v1.697zm6.197.183c0 .144-.048.26-.154.366a.519.519 0 01-.376.164h-2.622a.498.498 0 01-.366-.164.498.498 0 01-.164-.366v-18.659a.48.48 0 01.164-.357.518.518 0 01.366-.144H73.9c.144 0 .27.048.376.144a.47.47 0 01.154.357v18.659zm18.601.077c0 .145-.038.251-.125.328a.469.469 0 01-.347.125h-2.815a.43.43 0 01-.308-.135.68.68 0 01-.193-.318l-1.214-5.031h-6.1l-1.215 5.031a.751.751 0 01-.183.318.47.47 0 01-.318.135h-2.815a.5.5 0 01-.347-.125c-.086-.077-.125-.183-.125-.328 0-.019 0-.039.01-.048.01-.02.01-.048.01-.087l4.346-16.616c.164-.617.395-1.098.694-1.455.299-.347.617-.617.964-.81a3.45 3.45 0 011.06-.356 7.58 7.58 0 01.973-.077c.28 0 .598.029.964.077a3.37 3.37 0 011.06.356c.347.193.665.463.964.81.299.357.53.838.694 1.455l4.347 16.616c0 .039 0 .067.01.087.009.009.009.029.009.048zm-7.624-15.922a.953.953 0 00-.135-.337c-.057-.058-.154-.087-.289-.087-.144 0-.24.029-.298.087a.815.815 0 00-.126.337l-1.908 7.865h4.665l-1.909-7.865zm25.011 15.315c0 .299-.097.549-.299.752a1.065 1.065 0 01-.761.308h-2.68c-.308 0-.607-.039-.886-.125-.27-.077-.511-.357-.723-.829l-5.889-12.905c-.067-.145-.145-.212-.231-.212-.097 0-.135.067-.135.212v13.329c0 .144-.048.26-.145.366a.478.478 0 01-.356.164h-2.256a.519.519 0 01-.376-.164.489.489 0 01-.154-.366v-18.1a.99.99 0 01.309-.752c.202-.202.453-.308.751-.308h2.863c.28 0 .51.048.674.154.164.106.328.337.492.694l6.168 13.618c.058.145.126.212.212.212.097 0 .135-.077.135-.241v-13.936c0-.337.174-.501.501-.501h2.285c.337 0 .501.164.501.501v18.129zm15.69.241c0 .192-.058.327-.164.404-.106.087-.241.145-.424.203a3.095 3.095 0 01-.539.116c-.261.048-.569.086-.945.134-.366.049-.781.087-1.243.116a17.14 17.14 0 01-1.456.058c-.79 0-1.638-.116-2.515-.347a6.181 6.181 0 01-2.419-1.253c-.733-.617-1.33-1.436-1.812-2.487-.482-1.04-.723-2.38-.723-4.019v-3.903c0-1.658.241-3.017.723-4.067.482-1.051 1.079-1.879 1.812-2.477a6.14 6.14 0 012.419-1.234 10.338 10.338 0 012.515-.327c.511 0 1.003.019 1.456.048.462.038.877.077 1.243.125.376.039.684.087.945.145.26.048.433.086.539.106.183.048.318.115.424.202.106.077.164.212.164.405v1.773a.672.672 0 01-.115.405c-.087.106-.222.154-.415.154h-.058c-.221-.019-.501-.038-.829-.067-.327-.019-.674-.048-1.05-.068-.366-.009-.752-.029-1.137-.048a22.882 22.882 0 00-1.118-.029c-.559 0-1.08.087-1.542.251a2.816 2.816 0 00-1.205.829c-.337.376-.607.886-.8 1.522-.193.637-.289 1.417-.289 2.352v3.903c0 .916.096 1.687.289 2.323.193.636.463 1.157.8 1.542.328.386.732.665 1.205.839.462.164.983.25 1.542.25.356 0 .732-.009 1.118-.029l1.137-.057c.376-.01.723-.039 1.05-.058.328-.029.608-.048.829-.068h.058c.193 0 .328.049.415.155.077.106.115.24.115.395v1.783zm14.92.106c0 .192-.039.327-.116.395a.896.896 0 01-.414.154c-.212.039-.444.077-.704.125-.26.039-.578.077-.954.116-.376.039-.839.067-1.378.096-.54.029-1.205.039-2.005.039-.858 0-1.667-.068-2.409-.212-.743-.145-1.398-.415-1.947-.81-.55-.395-.983-.954-1.301-1.657-.328-.704-.482-1.62-.482-2.757v-9.243c0-1.137.154-2.052.482-2.756.318-.713.751-1.263 1.301-1.658.549-.395 1.204-.665 1.947-.809a12.625 12.625 0 012.409-.212c.8 0 1.465.009 2.005.038a29.47 29.47 0 011.378.097c.376.029.694.077.954.115.26.048.492.087.704.116a.985.985 0 01.414.164c.077.067.116.202.116.395v1.696c0 .145-.058.27-.164.376a.488.488 0 01-.366.154h-5.407c-.781 0-1.321.164-1.629.482-.308.318-.463.916-.463 1.802v2.863h7.181c.144 0 .26.048.366.154a.519.519 0 01.164.376v1.908a.516.516 0 01-.164.367.497.497 0 01-.366.163h-7.181v3.412c0 .887.155 1.484.463 1.802.308.319.848.482 1.629.482h5.407a.49.49 0 01.366.155.518.518 0 01.164.375v1.697zM48.85 151.23c0 .742-.135 1.368-.395 1.869-.27.511-.627.916-1.07 1.234a4.5 4.5 0 01-1.552.655 8.833 8.833 0 01-1.86.193c-.231 0-.491-.01-.78-.029-.3-.009-.54-.029-.733-.038v4.414a.345.345 0 01-.087.231.322.322 0 01-.231.106h-1.687a.326.326 0 01-.24-.106.324.324 0 01-.107-.231v-11.633c0-.164.049-.289.145-.357a.773.773 0 01.405-.144c.433-.068.944-.126 1.523-.164a26.659 26.659 0 011.792-.058 8.91 8.91 0 011.86.183c.588.125 1.109.337 1.552.646.443.299.8.703 1.07 1.205.26.501.395 1.127.395 1.869v.155zm-2.352-.164c0-.714-.212-1.215-.636-1.513-.414-.309-1.05-.453-1.898-.453-.087 0-.203 0-.347.009-.135 0-.28.01-.424.019-.155 0-.29.01-.415.01a6.45 6.45 0 00-.318.029v4.038c.068 0 .173 0 .318.01.135 0 .28.01.434.019.154 0 .298.01.443.01.135.009.241.009.309.009.915 0 1.56-.163 1.956-.51.386-.338.578-.848.578-1.523v-.154zm13.32 8.597c0 .135-.068.202-.203.202h-2.062a.227.227 0 01-.203-.106 1.343 1.343 0 01-.134-.231l-2.439-4.501h-.231c-.231 0-.482-.01-.78-.019-.29-.02-.53-.039-.724-.049v4.569a.355.355 0 01-.096.231.292.292 0 01-.231.106h-1.687a.322.322 0 01-.231-.106.324.324 0 01-.106-.231v-11.633c0-.164.048-.289.144-.357a.77.77 0 01.395-.144c.444-.068.955-.126 1.523-.164a26.738 26.738 0 011.803-.058 8.9 8.9 0 011.86.193 4.728 4.728 0 011.542.636c.453.289.81.684 1.07 1.176.27.491.395 1.089.395 1.812v.154c0 .906-.203 1.629-.617 2.197a3.686 3.686 0 01-1.677 1.253l2.65 4.935c.03.029.039.077.039.135zm-2.737-8.674c0-.637-.212-1.099-.636-1.379-.425-.289-1.06-.424-1.9-.424-.096 0-.211 0-.346.01-.145 0-.29.01-.434.01-.144.009-.28.009-.414.019a5.73 5.73 0 00-.309.029v3.797c.068 0 .174 0 .309.01.144.009.289.009.443.019.154 0 .299.01.434.019h.318c.877 0 1.523-.135 1.928-.414.404-.289.607-.8.607-1.542v-.154zm13.579 3.739c0 .935-.115 1.735-.356 2.4-.25.665-.578 1.205-1.002 1.629a4.006 4.006 0 01-1.523.935 5.869 5.869 0 01-1.928.308c-.694 0-1.33-.106-1.918-.308a4.007 4.007 0 01-1.523-.935c-.424-.424-.751-.964-1.002-1.629-.24-.665-.357-1.465-.357-2.4v-2.284c0-.925.116-1.725.357-2.39.25-.675.578-1.215 1.002-1.639a4.007 4.007 0 011.523-.935 5.852 5.852 0 011.918-.308c.704 0 1.34.106 1.928.308a4.01 4.01 0 011.523.935c.424.424.751.964 1.002 1.639.24.665.356 1.465.356 2.39v2.284zm-2.341-2.284c0-1.128-.203-1.947-.608-2.458-.395-.511-1.021-.771-1.86-.771-.829 0-1.455.26-1.85.771-.405.511-.608 1.33-.608 2.458v2.284c0 1.128.203 1.947.608 2.458.395.511 1.021.771 1.85.771.839 0 1.465-.26 1.86-.771.405-.511.608-1.33.608-2.458v-2.284zm13.647 2.38c0 1.677-.453 2.959-1.378 3.846-.916.887-2.227 1.33-3.933 1.33-.308 0-.626-.01-.964-.019-.327-.01-.655-.029-.963-.048-.309-.029-.588-.049-.839-.068-.26-.029-.453-.048-.569-.067a.614.614 0 01-.337-.155c-.067-.077-.106-.202-.106-.375v-11.373c0-.164.039-.289.106-.366a.553.553 0 01.337-.155 6.26 6.26 0 01.57-.067c.25-.019.53-.048.838-.068.308-.019.636-.038.963-.048.338-.009.656-.019.964-.019 1.706 0 3.017.443 3.933 1.33.925.877 1.378 2.159 1.378 3.846v2.476zm-2.342-2.476c0-.627-.077-1.157-.232-1.562-.154-.414-.366-.742-.626-.983a2.26 2.26 0 00-.945-.511 4.641 4.641 0 00-1.175-.144c-.319 0-.588.009-.81.019-.231.01-.434.019-.607.029v8.79c.173.009.376.019.607.038.222.01.492.01.81.01.414 0 .81-.048 1.175-.145.367-.086.675-.26.945-.501.26-.25.472-.569.626-.983.155-.414.232-.935.232-1.571v-2.486zm13.734 2.872c0 .896-.116 1.648-.347 2.255-.232.617-.55 1.099-.964 1.474a3.645 3.645 0 01-1.475.8 6.671 6.671 0 01-1.86.251 6.741 6.741 0 01-1.87-.251 3.645 3.645 0 01-1.474-.8c-.405-.375-.723-.857-.954-1.474-.232-.607-.347-1.359-.347-2.255v-7.595a.28.28 0 01.096-.222.32.32 0 01.241-.096h1.668c.096 0 .173.029.24.096a.28.28 0 01.097.222v7.604c0 .482.038.906.106 1.263.067.347.183.646.366.886.174.241.405.415.694.521.299.116.675.173 1.137.173.444 0 .82-.057 1.118-.173.299-.106.54-.28.713-.521.174-.24.3-.539.367-.886a6.95 6.95 0 00.096-1.263v-7.604a.29.29 0 01.106-.222.314.314 0 01.231-.096h1.677c.087 0 .164.029.232.096a.289.289 0 01.106.222v7.595zm9.917 4.115c0 .125-.029.212-.096.27a1.087 1.087 0 01-.28.125 3.99 3.99 0 01-.337.077c-.164.029-.366.048-.607.077-.232.029-.501.058-.791.077a9.53 9.53 0 01-.934.039 6.428 6.428 0 01-1.6-.222 3.865 3.865 0 01-1.542-.8c-.463-.395-.849-.915-1.157-1.58-.308-.665-.463-1.523-.463-2.574v-2.476c0-1.061.155-1.928.463-2.603.308-.665.694-1.195 1.157-1.58a3.969 3.969 0 011.542-.781 6.395 6.395 0 011.6-.212c.327 0 .645.01.934.039.29.019.559.048.791.067.241.029.443.067.607.096.154.039.27.058.337.068.116.038.212.077.28.125.067.048.096.145.096.26v1.138a.429.429 0 01-.077.25c-.048.068-.135.106-.26.106h-.039c-.144-.009-.318-.029-.53-.048-.202-.01-.424-.029-.665-.039a17.498 17.498 0 01-.723-.038c-.25-.01-.491-.01-.713-.01-.356 0-.694.048-.993.154a1.83 1.83 0 00-.761.531c-.222.241-.385.559-.51.963-.126.415-.184.916-.184 1.514v2.476c0 .588.058 1.08.183 1.494.126.405.29.733.511.974.212.25.463.424.761.53.3.115.636.164.993.164.222 0 .463-.01.713-.02l.723-.029c.241-.009.463-.028.665-.048.212-.009.386-.029.53-.038h.039c.125 0 .212.038.26.106a.407.407 0 01.077.25v1.128zm10.139-10.37a.286.286 0 01-.106.221.334.334 0 01-.231.077h-2.959v10.265a.314.314 0 01-.096.231.345.345 0 01-.241.106h-1.677a.324.324 0 01-.232-.106.326.326 0 01-.106-.231v-10.265h-2.949a.346.346 0 01-.241-.077.28.28 0 01-.096-.221v-1.34a.28.28 0 01.096-.222.323.323 0 01.241-.096h8.26c.087 0 .164.029.231.096a.287.287 0 01.106.222v1.34zm4.038 10.563a.322.322 0 01-.106.231.32.32 0 01-.231.106h-1.677a.32.32 0 01-.231-.106.322.322 0 01-.106-.231v-11.903c0-.087.038-.164.106-.222a.313.313 0 01.231-.096h1.677c.087 0 .164.029.231.096a.287.287 0 01.106.222v11.903zm11.807-4.8c0 .935-.116 1.735-.357 2.4-.241.665-.578 1.205-1.002 1.629a4.01 4.01 0 01-1.523.935 5.853 5.853 0 01-1.918.308c-.703 0-1.34-.106-1.927-.308a3.975 3.975 0 01-1.514-.935c-.433-.424-.761-.964-1.002-1.629s-.366-1.465-.366-2.4v-2.284c0-.925.125-1.725.366-2.39.241-.675.569-1.215 1.002-1.639a3.975 3.975 0 011.514-.935 5.864 5.864 0 011.927-.308c.694 0 1.33.106 1.918.308a4.01 4.01 0 011.523.935c.424.424.761.964 1.002 1.639.241.665.357 1.465.357 2.39v2.284zm-2.342-2.284c0-1.128-.203-1.947-.607-2.458-.396-.511-1.022-.771-1.851-.771-.838 0-1.455.26-1.86.771s-.597 1.33-.597 2.458v2.284c0 1.128.192 1.947.597 2.458.405.511 1.022.771 1.86.771.829 0 1.455-.26 1.851-.771.404-.511.607-1.33.607-2.458v-2.284zm14.052 6.746a.658.658 0 01-.675.675h-1.706c-.202 0-.385-.029-.559-.077-.183-.048-.337-.231-.472-.53l-3.749-8.231c-.048-.096-.096-.135-.154-.135-.058 0-.077.039-.077.135v8.501a.355.355 0 01-.097.231.305.305 0 01-.231.106h-1.436a.32.32 0 01-.231-.106.322.322 0 01-.106-.231v-11.546c0-.193.067-.347.192-.482a.675.675 0 01.482-.193h1.831c.174 0 .318.038.424.106.106.067.213.212.319.434l3.932 8.683c.038.097.077.135.135.135.058 0 .086-.048.086-.144v-8.896c0-.212.106-.318.319-.318h1.455c.212 0 .318.106.318.318v11.565z"/><path fill-rule="evenodd" clip-rule="evenodd" d="M89.946 29.879c4.626 0 9.04.906 13.069 2.554v31.583c0 7.161-5.802 12.963-12.963 12.963-3.046 0-5.84-1.05-8.057-2.804v11.478a23.016 23.016 0 008.057 1.446c14.081 0 23.131-11.122 23.131-24.606v-35.92A44.157 44.157 0 0089.946 20c-24.51 0-44.373 19.864-44.373 44.373 0 13.994 6.477 26.475 16.596 34.61v-14.14a34.39 34.39 0 01-6.727-20.47c0-19.054 15.45-34.494 34.504-34.494z"/><path fill-rule="evenodd" clip-rule="evenodd" d="M90.08 98.896c-4.625 0-9.04-.906-13.068-2.564V64.75c0-7.152 5.802-12.963 12.963-12.963 3.045 0 5.84 1.05 8.057 2.814v-11.48a23.016 23.016 0 00-8.057-1.445c-14.081 0-23.14 11.112-23.14 24.605v35.921a44.22 44.22 0 0023.246 6.573c24.509 0 44.373-19.874 44.373-44.373 0-13.995-6.477-26.476-16.606-34.61v14.139a34.325 34.325 0 016.727 20.47c0 19.055-15.44 34.495-34.494 34.495z"/></g></symbol><symbol viewBox="0 0 30 30" id="scope1"><path d="M22.34 12.375L19.667 15h-9.422l7.406-7.36a.736.736 0 000-1.03.713.713 0 00-1.078 0l-12.047 12c-1.781 1.828-2.11 4.78-.422 6.75C5.089 26.437 6.402 27 7.761 27a4.786 4.786 0 003.422-1.406l12.235-12.188a.736.736 0 000-1.031.714.714 0 00-1.079 0zM10.151 24.563a3.49 3.49 0 01-2.39.937c-.985 0-1.876-.422-2.532-1.125-1.125-1.313-.938-3.375.375-4.688l3.14-3.187h9.423l-8.016 8.063zm16.64-13.079l-8.25-8.25A.753.753 0 0018.027 3a.777.777 0 00-.563.234.798.798 0 000 1.079l8.25 8.25c.141.14.329.187.563.187.187 0 .375-.047.515-.188.282-.28.282-.796 0-1.078z" fill="#5C8EE6" xmlns="http://www.w3.org/2000/svg"/></symbol><symbol viewBox="0 0 30 30" id="scope2"><path d="M14.75 8.953c1.219 0 2.25-1.031 2.25-2.25 0-.984-1.172-2.766-1.64-3.469A.891.891 0 0014.75 3c-.281 0-.516.094-.656.281-.469.703-1.594 2.485-1.594 3.422a2.22 2.22 0 002.25 2.25zm0-3.844c.422.75.703 1.407.75 1.594 0 .422-.375.75-.75.75a.74.74 0 01-.75-.75c0-.234.281-.89.75-1.594zm6.75 3.844a2.25 2.25 0 002.25-2.25c0-.937-1.172-2.719-1.64-3.422A.756.756 0 0021.5 3c-.281 0-.516.094-.656.281-.469.703-1.594 2.485-1.594 3.422a2.22 2.22 0 002.25 2.25zm0-3.844c.422.75.703 1.407.75 1.594 0 .422-.375.75-.75.75a.74.74 0 01-.75-.75c0-.234.281-.89.75-1.594zM8 8.953a2.25 2.25 0 002.25-2.25c0-.937-1.172-2.719-1.64-3.422A.756.756 0 008 3c-.281 0-.516.094-.656.281-.469.703-1.594 2.485-1.594 3.422A2.22 2.22 0 008 8.953zM8 5.11c.422.704.703 1.36.75 1.594 0 .422-.375.75-.75.75a.74.74 0 01-.75-.75c0-.234.281-.89.75-1.594zm12 14.344a1.11 1.11 0 00-1.125 1.125c0 .656.469 1.125 1.125 1.125a1.11 1.11 0 001.125-1.125A1.14 1.14 0 0020 19.453zm2.39-2.672l-.75-3.234c-.328-1.36-1.5-2.344-2.906-2.344h-8.156c-1.36 0-2.578.985-2.906 2.344l-.75 3.328A3.47 3.47 0 005 19.969v2.578c0 .937.61 1.781 1.5 2.062v1.594c0 .422.328.75.75.75.375 0 .75-.328.75-.75v-1.5h13.5v1.5c0 .422.328.75.75.75.375 0 .75-.328.75-.75V24.61c.89-.28 1.453-1.125 1.5-2.062V19.97c0-1.36-.844-2.625-2.11-3.188zM9.126 13.875a1.56 1.56 0 011.5-1.125h8.11c.703 0 1.312.469 1.453 1.125l.609 2.625H8.562l.563-2.625zM23 22.547a.72.72 0 01-.703.703H7.157c-.376-.047-.657-.328-.657-.703v-2.578A1.98 1.98 0 018.469 18h12.515c1.078 0 2.016.89 2.016 1.969v2.578zM9.5 19.453a1.11 1.11 0 00-1.125 1.125c0 .656.469 1.125 1.125 1.125a1.11 1.11 0 001.125-1.125A1.14 1.14 0 009.5 19.453z" fill="#5C8EE6" xmlns="http://www.w3.org/2000/svg"/></symbol><symbol viewBox="0 0 30 30" id="scope3"><path d="M14.274 3.61a.754.754 0 00-.89-.563.72.72 0 00-.563.89L13.9 9.329c.422 2.25-.375 3.89-2.39 4.781l-.47.188.423 10.594c0 .187-.047.375-.188.468-.047.094-.14.141-.281.141H9.587a.426.426 0 01-.328-.14.698.698 0 01-.188-.422l.422-10.641-.469-.188c-2.015-.937-2.812-2.53-2.39-4.734l1.125-5.438c.047-.421-.188-.796-.61-.89-.375-.094-.797.187-.89.562L5.134 9.094c-.516 2.719.468 4.875 2.812 6.14l-.375 9.657a2.3 2.3 0 00.563 1.5c.375.422.89.609 1.453.609h1.406c.563 0 1.031-.188 1.406-.61.375-.421.563-.984.563-1.546l-.375-9.61c2.297-1.218 3.328-3.468 2.812-6.187l-1.125-5.438zM22.852 3c-1.5 0-4.03 2.063-5.156 4.734-.797 1.875-1.594 5.579 2.063 9.563l-.329 7.453a2.158 2.158 0 00.61 1.688 1.85 1.85 0 001.312.562h1.22c1.077 0 1.968-.938 1.968-2.156V4.828c0-.984-.75-1.828-1.688-1.828zm.188 21.844c0 .422-.281.656-.469.656h-1.219a.358.358 0 01-.234-.094c-.14-.14-.188-.375-.188-.562l.375-8.11-.234-.234c-3.14-3.281-2.812-6.234-2.016-8.156C20.134 5.859 22.243 4.5 22.852 4.5c.047 0 .188.14.188.328v20.016zM8.743 11.25h.047a.69.69 0 00.703-.703l.375-6.75c.047-.375-.281-.75-.703-.75-.375-.047-.75.281-.75.703L8.04 10.5c-.047.375.281.75.703.75zm3.047 0c.422 0 .75-.375.703-.75l-.375-6.75c0-.422-.328-.75-.75-.703-.422 0-.75.375-.703.75l.375 6.75c0 .422.328.703.75.703z" fill="#5C8EE6" xmlns="http://www.w3.org/2000/svg"/></symbol><symbol viewBox="0 0 30 30" id="scope4"><path d="M22.5 3h-15C6.656 3 6 3.703 6 4.5V18c0 1.688 1.313 3 3 3h3v3c0 1.688 1.313 3 3 3 1.64 0 3-1.313 3-3v-3h3c1.64 0 3-1.313 3-3V4.5c0-.797-.703-1.5-1.5-1.5zm0 15c0 .844-.703 1.5-1.5 1.5h-4.5V24c0 .844-.703 1.5-1.5 1.5a1.48 1.48 0 01-1.5-1.5v-4.5H9A1.48 1.48 0 017.5 18v-1.5h15V18zm0-3h-15V4.5h15V15z" fill="#5C8EE6" xmlns="http://www.w3.org/2000/svg"/></symbol><symbol viewBox="0 0 30 30" id="scope5"><path d="M15 22.5c.375 0 .75-.328.75-.75v-1.5h1.5c.375 0 .75-.328.75-.75 0-.375-.375-.75-.75-.75h-1.5v-1.5c0-.375-.375-.75-.75-.75-.422 0-.75.375-.75.75v1.5h-1.5c-.422 0-.75.375-.75.75 0 .422.328.75.75.75h1.5v1.5c0 .422.328.75.75.75zm-11.25-9c.375 0 .75-.328.75-.75V10.5H6c.375 0 .75-.328.75-.75C6.75 9.375 6.375 9 6 9H4.5V6.75c0-.375-.375-.75-.75-.75-.422 0-.75.375-.75.75V9H.75C.328 9 0 9.375 0 9.75c0 .328.328.75.75.75H3v2.25c0 .422.328.75.75.75zm25.5 9H27v-2.25c0-.375-.375-.75-.75-.75-.422 0-.75.375-.75.75v2.25h-2.25c-.422 0-.75.375-.75.75s.328.75.75.75h2.25v2.25c0 .422.328.75.75.75.375 0 .75-.328.75-.75V24h2.25a.72.72 0 00.703-.703c0-.375-.328-.797-.703-.797zm-7.875 2.063c-.516 0-1.313.937-3.422.937H13.22a5.506 5.506 0 01-4.453-2.25l-4.032-5.344c-.187-.234-.28-.468-.28-.75 0-.61.515-1.031 1.077-1.031.235 0 .61.094.89.469l1.595 2.11c.28.374.75.608 1.171.608.188 0 1.313-.14 1.313-1.265V7.172c0-.563.422-1.172 1.125-1.172.61 0 1.125.516 1.125 1.125v7.125c0 .094.094.797.75.797.375 0 .703-.375.703-.75V5.672c0-.563.422-1.172 1.125-1.172.61 0 1.125.516 1.125 1.125v8.625c0 .094.094.797.75.797.375 0 .75-.375.75-.75V7.172c0-.563.422-1.172 1.125-1.172.61 0 1.125.516 1.125 1.125v7.078c0 .14.094.797.75.797.375 0 .75-.328.75-.703V9.422c0-.61.422-1.172 1.125-1.172.61 0 1.125.516 1.125 1.125v7.734c0 .375.328.75.75.75.375 0 .797-.375.797-.75V9.47c0-1.031-.797-2.719-2.672-2.719-.375 0-.75.094-1.125.234-.047-1.359-1.219-2.484-2.625-2.484-.469 0-.89.14-1.265.328C17.483 3.797 16.5 3 15.328 3s-2.11.797-2.484 1.875a2.323 2.323 0 00-1.219-.375C9.75 4.5 9 6.234 9 7.266v10.171L7.547 15.61a2.555 2.555 0 00-2.016-.984C4.125 14.625 3 15.703 3 17.156c0 .563.14 1.172.516 1.64l4.078 5.345C8.859 25.92 10.969 27 13.219 27H18c1.5 0 4.125-.703 4.125-1.688 0-.28-.188-.75-.75-.75z" fill="#5C8EE6" xmlns="http://www.w3.org/2000/svg"/></symbol><symbol viewBox="0 0 30 30" id="scope6"><path d="M23.14 16.828l-.75-3.234c-.328-1.36-1.5-2.344-2.906-2.344h-8.109c-1.406 0-2.625.984-2.953 2.344l-.75 3.328a3.47 3.47 0 00-1.922 3.094v2.578c0 .937.61 1.781 1.5 2.062v1.594c0 .422.328.75.75.75.375 0 .75-.328.75-.75v-1.5h13.5v1.5c0 .422.328.75.75.75.375 0 .75-.328.75-.75v-1.594c.89-.281 1.453-1.125 1.5-2.062v-2.578c0-1.36-.844-2.625-2.11-3.188zM9.876 13.922c.188-.656.797-1.172 1.5-1.172h8.11c.703 0 1.312.516 1.453 1.172l.609 2.578H9.312l.563-2.578zm13.875 8.672c0 .375-.328.656-.703.656H7.907a.64.64 0 01-.657-.656v-2.578c0-1.078.89-2.016 1.969-2.016h12.515c1.078 0 2.016.938 2.016 2.016v2.578zm-3-3.094a1.11 1.11 0 00-1.125 1.125c0 .656.469 1.125 1.125 1.125a1.11 1.11 0 001.125-1.125A1.14 1.14 0 0020.75 19.5zm-10.5 0a1.11 1.11 0 00-1.125 1.125c0 .656.469 1.125 1.125 1.125a1.11 1.11 0 001.125-1.125A1.14 1.14 0 0010.25 19.5zm-1.5-9c1.219 0 2.297-.563 2.953-1.453h7.547c.656.89 1.734 1.453 3 1.453a3.73 3.73 0 003.75-3.75A3.761 3.761 0 0022.25 3a3.62 3.62 0 00-3 1.547h-7.547A3.598 3.598 0 008.75 3 3.731 3.731 0 005 6.75c0 2.11 1.64 3.75 3.75 3.75zM6.594 6c.328-.844 1.172-1.5 2.156-1.5.656 0 1.313.375 1.781.938.281.375.703.609 1.172.609h7.547c.469 0 .89-.234 1.172-.61.469-.562 1.125-.937 1.828-.937.938 0 1.781.656 2.11 1.5h-2.11v1.5h2.11c-.329.89-1.172 1.5-2.11 1.5-.703 0-1.36-.328-1.828-.89-.281-.376-.703-.563-1.172-.563h-7.547c-.469 0-.89.187-1.172.562C10.062 8.672 9.406 9 8.75 9c-.984 0-1.828-.61-2.156-1.5H8.75V6H6.594z" fill="#5C8EE6" xmlns="http://www.w3.org/2000/svg"/></symbol><symbol viewBox="0 0 30 30" id="scope7"><path d="M29.881 8.549a2.213 2.213 0 00-1.078-1.266l-8.297-4.218a.801.801 0 00-.937.234c-.75 1.078-2.625 1.781-4.594 1.781-1.922 0-3.797-.703-4.547-1.781a.801.801 0 00-.937-.234L1.194 7.283c-.516.282-.89.703-1.078 1.266a2.203 2.203 0 00.093 1.64l2.297 4.735c.516 1.031 1.828 1.453 2.86.984l2.156-.937v9.844c0 1.218.937 2.156 2.156 2.156h10.64c1.22 0 2.204-.938 2.204-2.156l-.047-9.844 2.11.89c1.078.516 2.39.094 2.906-.984l2.297-4.687a2.203 2.203 0 00.093-1.641zm-1.453.984l-2.25 4.688c-.187.328-.61.469-.937.281l-3.188-1.36a.748.748 0 00-.703.095c-.234.14-.375.374-.375.609l.047 10.969c0 .375-.328.656-.703.656H9.679a.64.64 0 01-.657-.656v-10.97c0-.234-.14-.468-.375-.609a.532.532 0 00-.375-.14c-.14 0-.234.047-.328.047l-3.188 1.36c-.328.187-.75.046-.89-.282L1.569 9.533a.664.664 0 01-.047-.515c.047-.14.187-.282.375-.375L9.63 4.658c1.172 1.22 3.188 1.922 5.39 1.922 2.204 0 4.173-.703 5.345-1.922L28.1 8.643c.188.093.328.234.375.375a.665.665 0 01-.047.515z" fill="#5C8EE6" xmlns="http://www.w3.org/2000/svg"/></symbol><symbol viewBox="0 0 30 30" id="scope8"><path d="M15.797 15.75c-1.64 0-3.563.656-4.922 1.64-1.125.797-2.063 1.594-4.875 1.594H3c-1.688 0-3 1.453-3 3.235C0 23.953 1.313 25.5 3 25.5h3l2.672.703c1.5.469 3.047.797 5.062.797C18.891 27 24 24.422 24 20.578c0-3.187-3.984-4.828-8.203-4.828zM5.25 24H3c-.797 0-1.5-.844-1.5-1.781 0-.985.656-1.735 1.5-1.735h2.25V24zm3.797.75l-2.297-.563v-3.75c2.578-.14 3.75-.937 4.828-1.687 4.266-3.047 10.922-.89 10.922 1.828 0 2.906-5.719 6.469-13.453 4.172zM19.734 3c-2.062 0-3.562.375-5.062.844L12 4.5H9c-1.688 0-3 1.547-3 3.328 0 1.828 1.313 3.234 3 3.234h3c2.813 0 3.75.797 4.875 1.594 1.36.938 3.281 1.594 4.922 1.594 4.219 0 8.203-1.594 8.203-4.781C30 5.625 24.984 3 19.734 3zM11.25 9.563H9c-.844 0-1.5-.75-1.5-1.735C7.5 6.891 8.203 6 9 6h2.25v3.563zm10.547 3.187c-1.313 0-2.906-.563-4.031-1.36-1.125-.75-2.297-1.64-5.016-1.828V5.86l2.344-.609c1.406-.375 2.765-.75 4.64-.75 2.438 0 8.766 1.219 8.766 4.969 0 2.156-3.375 3.281-6.703 3.281z" fill="#5C8EE6" xmlns="http://www.w3.org/2000/svg"/></symbol><symbol viewBox="0 0 30 30" id="scope9"><path d="M24.5 4h-18C5.656 4 5 4.703 5 5.5v3c0 .844.656 1.5 1.5 1.5v14.25c0 .375.234.703.61.75.468.094.89-.281.89-.75V22h10.5v2.25c0 .422.328.75.703.75.375 0 .797-.328.797-.75V22h3v2.25c0 .375.234.703.61.75.468.094.89-.281.89-.75V10c.797 0 1.5-.656 1.5-1.5v-3c0-.797-.703-1.5-1.5-1.5zM11 14.5H8V10h3v4.5zm-3 6V16h6v4.5H8zm15 0h-7.5V16H23v4.5zm0-6H12.5V10H23v4.5zm1.5-6h-18v-3h18v3z" fill="#5C8EE6" xmlns="http://www.w3.org/2000/svg"/></symbol><symbol viewBox="0 0 30 30" id="scope10"><path d="M15 14c-.844 0-1.5.703-1.5 1.5 0 .844.656 1.5 1.5 1.5.797 0 1.5-.656 1.5-1.5 0-.797-.703-1.5-1.5-1.5zm-7.5 0c-.844 0-1.5.703-1.5 1.5 0 .844.656 1.5 1.5 1.5.797 0 1.5-.656 1.5-1.5 0-.797-.703-1.5-1.5-1.5zm15 0c-.844 0-1.5.703-1.5 1.5 0 .844.656 1.5 1.5 1.5.797 0 1.5-.656 1.5-1.5 0-.797-.703-1.5-1.5-1.5z" fill="#5C8EE6" xmlns="http://www.w3.org/2000/svg"/></symbol><symbol viewBox="0 0 36 24" id="sliderArrow"><path d="M10.279 4.5l.719.693-6.562 6.322h29.06l-.001.98H4.446l6.552 6.312-.72.693-7.27-7.005h-.01v-.01L2.496 12l7.784-7.5z" fill="#fff" xmlns="http://www.w3.org/2000/svg"/></symbol><symbol viewBox="0 0 14 14" id="policyIcon"><path d="M11.922 2.946L7.42 1.07a1.365 1.365 0 00-.868 0L2.05 2.946c-.422.188-.68.586-.68 1.032 0 4.666 2.673 7.879 5.182 8.934.282.117.586.117.868 0 2.016-.844 5.206-3.728 5.206-8.934 0-.446-.282-.844-.704-1.032zm-1.76 2.78L6.505 9.142a.357.357 0 01-.539 0L3.956 7.37a.368.368 0 010-.515l.285-.285a.37.37 0 01.516 0l1.546 1.341L9.416 4.98a.368.368 0 01.516 0l.23.23c.14.14.14.374 0 .515z" xmlns="http://www.w3.org/2000/svg"/></symbol><symbol viewBox="0 0 24 24" id="locationIcon"><path d="M12.625 19.688a.73.73 0 01-1.219 0C6.844 13.125 6 12.438 6 10c0-3.313 2.688-6 6-6 3.344 0 6 2.688 6 6 0 2.438-.813 3.125-5.375 9.688zM12 12.5c1.406 0 2.5-1.094 2.5-2.5 0-1.375-1.094-2.5-2.5-2.5A2.507 2.507 0 009.5 10c0 1.406 1.125 2.5 2.5 2.5z" xmlns="http://www.w3.org/2000/svg"/></symbol><symbol viewBox="0 0 24 24" id="messageIcon"><path d="M4.313 9.969c.718.562 1.625 1.25 4.812 3.562.625.469 1.781 1.5 2.875 1.5 1.125 0 2.25-1.031 2.906-1.5 3.188-2.312 4.094-3 4.813-3.562.125-.094.281 0 .281.156V16.5c0 .844-.656 1.5-1.5 1.5h-13A1.5 1.5 0 014 16.5v-6.375c0-.156.188-.25.313-.156zM12 14c-.719.031-1.75-.906-2.281-1.281-4.156-3-4.469-3.281-5.406-4.031A.711.711 0 014 8.094V7.5C4 6.687 4.688 6 5.5 6h13A1.5 1.5 0 0120 7.5v.594c0 .25-.094.469-.281.594-.938.75-1.25 1.03-5.407 4.03-.53.376-1.562 1.313-2.312 1.282z" xmlns="http://www.w3.org/2000/svg"/></symbol><symbol viewBox="0 0 24 24" id="vkIcon"><path d="M21.669 16.757c-.799-1.437-2.855-3.164-3.704-3.915a.552.552 0 01-.046-.789c1.62-1.741 2.916-3.742 3.363-4.95.196-.535-.211-1.099-.785-1.099h-1.668c-.55 0-.87.197-1.024.511-1.347 2.76-2.502 3.954-3.31 4.652a.702.702 0 01-1.16-.528V6.961a.926.926 0 00-.93-.922l-3.046-.035a.461.461 0 00-.373.738l.503.722c.19.25.292.555.292.867l-.003 3.252c0 .565-.685.841-1.092.445-1.377-1.34-2.572-4.079-3.002-5.388a.927.927 0 00-.882-.636L3.16 6a.926.926 0 00-.9 1.173c1.501 5.268 4.58 10.28 10.068 10.823a.925.925 0 001.008-.921v-1.71c0-.49.384-.91.878-.923h.052c1.451 0 3.077 2.112 3.646 3.1a.92.92 0 00.8.458h2.21c.644 0 1.058-.684.747-1.243z" xmlns="http://www.w3.org/2000/svg"/></symbol><symbol viewBox="0 0 24 24" id="instagramIcon"><path d="M8.444 4A4.45 4.45 0 004 8.444v7.112A4.45 4.45 0 008.444 20h7.112A4.45 4.45 0 0020 15.556V8.444A4.45 4.45 0 0015.556 4H8.444zm0 1.778h7.112a2.67 2.67 0 012.666 2.666v7.112a2.67 2.67 0 01-2.666 2.666H8.444a2.67 2.67 0 01-2.666-2.666V8.444a2.67 2.67 0 012.666-2.666zm8 .889a.889.889 0 100 1.777.889.889 0 000-1.777zM12 7.556A4.45 4.45 0 007.556 12 4.45 4.45 0 0012 16.444 4.45 4.45 0 0016.444 12 4.45 4.45 0 0012 7.556zm0 1.777A2.67 2.67 0 0114.667 12 2.67 2.67 0 0112 14.667 2.67 2.67 0 019.333 12 2.67 2.67 0 0112 9.333z" xmlns="http://www.w3.org/2000/svg"/></symbol><symbol viewBox="0 0 24 24" id="skypeIcon"><path d="M14.43 15.247c0-.243-.038-.461-.113-.655-.069-.2-.2-.38-.393-.543-.193-.168-.465-.333-.814-.495-.35-.163-.802-.331-1.357-.506a17.2 17.2 0 01-1.76-.674 7.224 7.224 0 01-1.46-.87 3.922 3.922 0 01-.991-1.17c-.237-.443-.356-.957-.356-1.544a3.2 3.2 0 01.374-1.544c.25-.468.6-.867 1.049-1.198.449-.337.98-.596 1.59-.777A7.203 7.203 0 0112.23 5c1.005 0 1.881.18 2.63.543.749.362 1.329.858 1.74 1.488.419.63.628 1.35.628 2.162h-2.79c0-.4-.083-.75-.252-1.049a1.709 1.709 0 00-.748-.72c-.331-.175-.75-.262-1.255-.262-.486 0-.892.075-1.216.224-.325.144-.568.34-.73.59a1.451 1.451 0 00-.243.823c0 .231.056.44.168.627.119.188.293.362.524.525.231.162.515.315.852.458a12.1 12.1 0 001.17.421c.742.225 1.394.477 1.955.758a6.09 6.09 0 011.423.945c.38.35.667.746.86 1.189.194.443.29.945.29 1.507 0 .592-.114 1.123-.345 1.59a3.266 3.266 0 01-1.002 1.189 4.71 4.71 0 01-1.563.74 7.568 7.568 0 01-2.03.252 7.704 7.704 0 01-1.994-.262 6.055 6.055 0 01-1.787-.814 4.104 4.104 0 01-1.273-1.385c-.318-.562-.477-1.226-.477-1.994h2.817c0 .425.065.783.196 1.077.131.293.315.53.553.71.243.182.53.313.86.394.337.081.705.122 1.105.122.486 0 .886-.069 1.198-.206.318-.137.552-.328.701-.571.156-.244.235-.518.235-.824z" xmlns="http://www.w3.org/2000/svg"/></symbol><symbol viewBox="0 0 24 24" id="facebookIcon"><path d="M16.035 13.125l.492-3.234h-3.129V7.78c0-.914.422-1.758 1.829-1.758h1.441V3.246S15.368 3 14.137 3C11.57 3 9.883 4.582 9.883 7.395V9.89H7v3.234h2.883V21h3.515v-7.875h2.637z" xmlns="http://www.w3.org/2000/svg"/></symbol><symbol viewBox="0 0 24 24" id="twitterIcon"><path d="M19.137 8.621v.492C19.137 14 15.445 19.59 8.66 19.59c-2.11 0-4.043-.598-5.66-1.652.281.035.563.07.879.07a7.421 7.421 0 004.57-1.582 3.673 3.673 0 01-3.445-2.567c.246.036.457.07.703.07.316 0 .668-.07.95-.14a3.696 3.696 0 01-2.954-3.621v-.035c.492.281 1.09.422 1.688.457a3.632 3.632 0 01-1.653-3.06c0-.703.176-1.336.492-1.863a10.71 10.71 0 007.63 3.867 3.468 3.468 0 01-.106-.844A3.69 3.69 0 0115.445 5c1.055 0 2.004.422 2.707 1.16a7.798 7.798 0 002.32-.914 3.607 3.607 0 01-1.617 2.04 6.918 6.918 0 002.11-.563 7.818 7.818 0 01-1.828 1.898z" xmlns="http://www.w3.org/2000/svg"/></symbol><symbol viewBox="0 0 24 24" id="googlePlusIcon"><path d="M14.148 10.8c.036.352.106.669.106 1.126 0 3.867-2.602 6.574-6.504 6.574A6.73 6.73 0 011 11.75 6.752 6.752 0 017.75 5c1.828 0 3.34.668 4.535 1.793l-1.828 1.758c-.492-.492-1.371-1.055-2.707-1.055-2.285 0-4.184 1.899-4.184 4.254 0 2.39 1.899 4.29 4.184 4.29 2.672 0 3.691-1.934 3.832-2.919H7.75v-2.32h6.398zm6.504.212V9.078h-1.968v1.934h-1.97v1.968h1.97v1.97h1.968v-1.97h1.97v-1.968h-1.97z" xmlns="http://www.w3.org/2000/svg"/></symbol><symbol viewBox="0 0 24 24" id="whatsUpIcon"><path d="M17.571 6.357A7.802 7.802 0 0011.964 4c-4.357 0-7.928 3.571-7.928 7.929 0 1.428.393 2.785 1.071 3.964L4 20l4.179-1.071c1.178.607 2.464.964 3.785.964 4.393 0 8.036-3.572 8.036-7.929 0-2.143-.929-4.107-2.429-5.607zm-5.607 12.179a6.605 6.605 0 01-3.357-.929l-.214-.143-2.5.679.678-2.429-.178-.25a6.87 6.87 0 01-1-3.535c0-3.608 2.964-6.572 6.607-6.572 1.75 0 3.393.679 4.643 1.929s2 2.893 2 4.678c0 3.607-3.036 6.572-6.679 6.572zm3.643-4.929a44.128 44.128 0 00-1.357-.643c-.179-.071-.321-.107-.464.107-.107.179-.5.643-.607.786-.143.107-.25.143-.429.036-1.179-.572-1.929-1.036-2.714-2.357-.215-.357.214-.322.571-1.072.072-.143.036-.25 0-.357-.036-.107-.464-1.071-.607-1.464-.179-.393-.321-.357-.464-.357h-.357a.67.67 0 00-.536.25c-.179.214-.679.678-.679 1.643 0 1 .679 1.928.786 2.071.107.107 1.393 2.107 3.393 2.964 1.25.572 1.75.607 2.393.5.357-.035 1.143-.464 1.321-.928.179-.465.179-.857.107-.929-.035-.107-.178-.143-.357-.25z" xmlns="http://www.w3.org/2000/svg"/></symbol><symbol viewBox="0 0 24 24" id="telegramIcon"><path d="M20.284 6.245l-2.477 11.892c-.186.867-.681 1.053-1.425.681l-3.84-2.849-1.858 1.797c-.186.185-.372.371-.743.371l.247-3.902 7.123-6.441c.31-.248-.061-.434-.495-.186L8.02 13.182l-3.778-1.177c-.806-.247-.806-.867.185-1.238l14.804-5.699c.68-.247 1.3.186 1.052 1.177z" xmlns="http://www.w3.org/2000/svg"/></symbol><symbol viewBox="0 0 52 11" id="rusoLogo"><path d="M13.424 6.353V.252h2.191v6.025c0 1.415.823 2.388 2.39 2.388 1.567 0 2.373-.974 2.373-2.388V.252h2.207v6.086c0 2.526-1.492 4.245-4.58 4.245-3.09 0-4.58-1.735-4.58-4.23zM27.791 8.97l1.17-1.644a4.448 4.448 0 003.227 1.37c1.187 0 1.765-.548 1.765-1.127 0-1.795-5.843-.563-5.843-4.382C28.11 1.5 29.57.1 31.96.1c1.613 0 2.951.486 3.956 1.415l-1.203 1.582c-.82-.76-1.916-1.11-2.951-1.11-.928 0-1.445.41-1.445 1.02 0 1.612 5.827.532 5.827 4.32 0 1.857-1.324 3.257-4.062 3.257-1.947 0-3.347-.655-4.291-1.614zm13.421-3.678C41.212 2.21 43.467 0 46.551 0c3.098 0 5.353 2.209 5.353 5.292 0 3.083-2.255 5.292-5.353 5.292-3.084 0-5.339-2.209-5.339-5.292zm8.452 0c0-1.916-1.227-3.358-3.113-3.358-1.887 0-3.099 1.442-3.099 3.358 0 1.903 1.212 3.36 3.099 3.36 1.886 0 3.113-1.457 3.113-3.36zM5.935 6.535c1.095-.258 2.222-1.217 2.222-3.012 0-1.887-1.293-3.271-3.409-3.271H0v1.901h4.429c.867 0 1.521.517 1.521 1.37 0 .851-.655 1.37-1.521 1.37H0V10.4h2.16V6.795h1.584L5.737 10.4h2.48L5.936 6.535z" xmlns="http://www.w3.org/2000/svg"/></symbol><symbol viewBox="0 0 30 30" id="carChemical"><path d="M14.75 8.953c1.219 0 2.25-1.031 2.25-2.25 0-.984-1.172-2.766-1.64-3.469A.891.891 0 0014.75 3c-.281 0-.516.094-.656.281-.469.703-1.594 2.485-1.594 3.422a2.22 2.22 0 002.25 2.25zm0-3.844c.422.75.703 1.407.75 1.594 0 .422-.375.75-.75.75a.74.74 0 01-.75-.75c0-.234.281-.89.75-1.594zm6.75 3.844a2.25 2.25 0 002.25-2.25c0-.937-1.172-2.719-1.64-3.422A.756.756 0 0021.5 3c-.281 0-.516.094-.656.281-.469.703-1.594 2.485-1.594 3.422a2.22 2.22 0 002.25 2.25zm0-3.844c.422.75.703 1.407.75 1.594 0 .422-.375.75-.75.75a.74.74 0 01-.75-.75c0-.234.281-.89.75-1.594zM8 8.953a2.25 2.25 0 002.25-2.25c0-.937-1.172-2.719-1.64-3.422A.756.756 0 008 3c-.281 0-.516.094-.656.281-.469.703-1.594 2.485-1.594 3.422A2.22 2.22 0 008 8.953zM8 5.11c.422.704.703 1.36.75 1.594 0 .422-.375.75-.75.75a.74.74 0 01-.75-.75c0-.234.281-.89.75-1.594zm12 14.344a1.11 1.11 0 00-1.125 1.125c0 .656.469 1.125 1.125 1.125a1.11 1.11 0 001.125-1.125A1.14 1.14 0 0020 19.453zm2.39-2.672l-.75-3.234c-.328-1.36-1.5-2.344-2.906-2.344h-8.156c-1.36 0-2.578.985-2.906 2.344l-.75 3.328A3.47 3.47 0 005 19.969v2.578c0 .937.61 1.781 1.5 2.062v1.594c0 .422.328.75.75.75.375 0 .75-.328.75-.75v-1.5h13.5v1.5c0 .422.328.75.75.75.375 0 .75-.328.75-.75V24.61c.89-.28 1.453-1.125 1.5-2.062V19.97c0-1.36-.844-2.625-2.11-3.188zM9.126 13.875a1.56 1.56 0 011.5-1.125h8.11c.703 0 1.312.469 1.453 1.125l.609 2.625H8.562l.563-2.625zM23 22.547a.72.72 0 01-.703.703H7.157c-.376-.047-.657-.328-.657-.703v-2.578A1.98 1.98 0 018.469 18h12.515c1.078 0 2.016.89 2.016 1.969v2.578zM9.5 19.453a1.11 1.11 0 00-1.125 1.125c0 .656.469 1.125 1.125 1.125a1.11 1.11 0 001.125-1.125A1.14 1.14 0 009.5 19.453z" fill="#5C8EE6" xmlns="http://www.w3.org/2000/svg"/></symbol><symbol viewBox="0 0 30 30" id="householdChemicals"><path d="M28.953 26.156a.758.758 0 00-.656-.75c-2.719-.375-3-2.203-3.844-2.203a.756.756 0 00-.61.281 4.84 4.84 0 01-3.89 1.97c-1.594 0-3.047-.75-3.89-1.97a.756.756 0 00-.61-.28.756.756 0 00-.61.28 4.84 4.84 0 01-3.89 1.97c-3.187 0-3.61-2.204-4.453-2.204-.281 0-.516.094-.656.281C4.109 25.97 2 24.844 2 26.203c0 .61.61.75.703.75.516 0 2.344-.375 3.75-1.828 1.172 1.172 2.813 1.828 4.547 1.828 1.734 0 3.328-.656 4.5-1.828C16.625 26.297 18.266 27 20 27a6.429 6.429 0 004.5-1.875c1.406 1.453 3.281 1.828 3.75 1.828.61-.047.703-.656.703-.797zM13.016 11.953c-.704 0-1.266.516-1.266 1.219v5.015c0 .704.516 1.266 1.266 1.266h4.968a1.26 1.26 0 001.266-1.265v-5.016c0-.656-.516-1.219-1.266-1.219h-4.968zm4.734 6h-4.5v-4.5h4.453v4.5h.047zm-15-2.25c.14 0 .328-.094.469-.187L5 13.969v6.234a.72.72 0 00.703.703.72.72 0 00.703-.703v-7.5c0-.047 0-.047-.047-.047L15.5 4.734l9 7.922c0 .047-.047.047-.047.047v7.5c0 .375.375.703.75.703a.72.72 0 00.703-.703V13.97l1.735 1.547c.14.093.328.187.515.187.422 0 .75-.375.75-.75 0-.234-.093-.422-.281-.515L25.906 12V5.25c0-.422-.328-.75-.703-.75h-4.5c-.375 0-.703.375-.703.75v1.453l-4.031-3.562A.905.905 0 0015.5 3a.945.945 0 00-.516.14L2.234 14.39a.742.742 0 00-.234.563c0 .422.328.75.75.75zm18.703-9.75h2.953v4.688l-2.953-2.672V5.953z" fill="#5C8EE6" xmlns="http://www.w3.org/2000/svg"/></symbol><symbol viewBox="0 0 30 30" id="dezinfectedSubstance"><path d="M14.75 11.25c-.422 0-.75.375-.75.75 0 .422.328.75.75.75.375 0 .75-.375.75-.75s-.375-.75-.75-.75zM20 10.5h-.61c-.89 0-1.5-.75-1.5-1.547 0-.328.141-.75.47-1.031l.374-.422a.753.753 0 00.235-.516c0-.375-.328-.703-.75-.703a.753.753 0 00-.516.235l-.422.375a1.33 1.33 0 01-1.031.468c-.797 0-1.547-.609-1.547-1.5V5.25a.74.74 0 00-.75-.75c-.375 0-.75.328-.75.75v.563c0 .89-.703 1.5-1.5 1.5-.375 0-.75-.141-1.031-.47l-.422-.327c-.14-.188-.328-.235-.516-.235-.421 0-.75.328-.75.703 0 .188.094.375.235.516l.375.422c.328.328.469.703.469 1.078 0 .797-.61 1.547-1.5 1.547H8a.74.74 0 00-.75.75c0 .375.328.75.75.75h.563c.89 0 1.5.703 1.5 1.5 0 .375-.141.75-.47 1.031L9.22 15a.753.753 0 00-.235.516c0 .421.329.703.75.703.188 0 .375-.047.516-.235l.422-.375a1.329 1.329 0 011.031-.468c.328 0 1.547.28 1.547 1.5v.609c0 .375.328.75.75.75.375 0 .75-.375.75-.75v-.61c0-.89.703-1.5 1.5-1.5.375 0 .75.141 1.031.47l.422.374c.14.188.328.235.516.235.422 0 .75-.328.75-.703a.753.753 0 00-.235-.516l-.375-.422a1.329 1.329 0 01-.468-1.031c0-.797.609-1.547 1.5-1.547H20c.375 0 .75-.328.75-.75 0-.375-.375-.75-.75-.75zm-3.61 3.047v.14h-.14c-.89 0-1.734.422-2.297 1.032a2.931 2.931 0 00-2.25-1.031h-.187c.046-.047.046-.094.046-.141 0-.703-.28-1.594-1.03-2.25.609-.563 1.03-1.406 1.03-2.297 0-.047 0-.094-.046-.14h.187c.89 0 1.735-.422 2.25-1.032.563.61 1.36 1.031 2.297 1.031h.14V9c0 .844.376 1.688 1.032 2.297a3.006 3.006 0 00-1.031 2.25zM13.25 9.75a.74.74 0 00-.75.75c0 .375.328.75.75.75.375 0 .75-.328.75-.75 0-.375-.375-.75-.75-.75zm10.594-5.813l-9-3.75C14.609.095 14.234 0 14 0a2.73 2.73 0 00-.89.188l-9 3.75A2.243 2.243 0 002.75 6c0 12.094 8.86 18 11.203 18 2.438 0 11.297-6 11.297-18 0-.89-.563-1.688-1.406-2.063zM13.954 22.5C11.936 22.5 4.25 16.687 4.25 6c0-.328.14-.61.422-.703l9-3.75c.094-.047.234-.047.328-.047.047 0 .234 0 .281.047l9 3.75c.282.14.469.422.469.703 0 12.281-9.188 16.5-9.797 16.5z" fill="#5C8EE6" xmlns="http://www.w3.org/2000/svg"/></symbol><symbol viewBox="0 0 30 30" id="foodAerosols"><path d="M25.875 6.75A1.11 1.11 0 0027 5.625 1.14 1.14 0 0025.875 4.5a1.11 1.11 0 00-1.125 1.125c0 .656.469 1.125 1.125 1.125zM10.5 14.25A3.731 3.731 0 006.75 18c0 2.11 1.64 3.75 3.75 3.75A3.73 3.73 0 0014.25 18a3.761 3.761 0 00-3.75-3.75zm0 6A2.221 2.221 0 018.25 18a2.25 2.25 0 012.25-2.25c1.219 0 2.25 1.031 2.25 2.25a2.25 2.25 0 01-2.25 2.25zm15.375-6.75a1.11 1.11 0 00-1.125 1.125c0 .656.469 1.125 1.125 1.125A1.11 1.11 0 0027 14.625a1.14 1.14 0 00-1.125-1.125zm-4.5-9a1.11 1.11 0 00-1.125 1.125c0 .656.469 1.125 1.125 1.125A1.11 1.11 0 0022.5 5.625 1.14 1.14 0 0021.375 4.5zM13.5 9V4.5c0-.797-.703-1.5-1.5-1.5H9c-.844 0-1.5.703-1.5 1.5V9A4.501 4.501 0 003 13.5V24c0 1.688 1.313 3 3 3h9c1.64 0 3-1.313 3-3V13.5c0-2.484-2.016-4.5-4.5-4.5zM9 4.5h3V9H9V4.5zM16.5 24c0 .844-.703 1.5-1.5 1.5H6A1.48 1.48 0 014.5 24V13.5c0-1.64 1.313-3 3-3h6c1.64 0 3 1.36 3 3V24zm9.375-15a1.11 1.11 0 00-1.125 1.125c0 .656.469 1.125 1.125 1.125A1.11 1.11 0 0027 10.125 1.14 1.14 0 0025.875 9zm-4.5 0a1.11 1.11 0 00-1.125 1.125c0 .656.469 1.125 1.125 1.125a1.11 1.11 0 001.125-1.125A1.14 1.14 0 0021.375 9zm-4.5-4.5a1.11 1.11 0 00-1.125 1.125c0 .656.469 1.125 1.125 1.125A1.11 1.11 0 0018 5.625 1.14 1.14 0 0016.875 4.5z" fill="#5C8EE6" xmlns="http://www.w3.org/2000/svg"/></symbol><symbol viewBox="0 0 30 30" id="cosmeticalProduction"><path d="M15 22.5c.375 0 .75-.328.75-.75v-1.5h1.5c.375 0 .75-.328.75-.75 0-.375-.375-.75-.75-.75h-1.5v-1.5c0-.375-.375-.75-.75-.75-.422 0-.75.375-.75.75v1.5h-1.5c-.422 0-.75.375-.75.75 0 .422.328.75.75.75h1.5v1.5c0 .422.328.75.75.75zm-11.25-9c.375 0 .75-.328.75-.75V10.5H6c.375 0 .75-.328.75-.75C6.75 9.375 6.375 9 6 9H4.5V6.75c0-.375-.375-.75-.75-.75-.422 0-.75.375-.75.75V9H.75C.328 9 0 9.375 0 9.75c0 .328.328.75.75.75H3v2.25c0 .422.328.75.75.75zm25.5 9H27v-2.25c0-.375-.375-.75-.75-.75-.422 0-.75.375-.75.75v2.25h-2.25c-.422 0-.75.375-.75.75s.328.75.75.75h2.25v2.25c0 .422.328.75.75.75.375 0 .75-.328.75-.75V24h2.25a.72.72 0 00.703-.703c0-.375-.328-.797-.703-.797zm-7.875 2.063c-.516 0-1.313.937-3.422.937H13.22a5.506 5.506 0 01-4.453-2.25l-4.032-5.344c-.187-.234-.28-.468-.28-.75 0-.61.515-1.031 1.077-1.031.235 0 .61.094.89.469l1.595 2.11c.28.374.75.608 1.171.608.188 0 1.313-.14 1.313-1.265V7.172c0-.563.422-1.172 1.125-1.172.61 0 1.125.516 1.125 1.125v7.125c0 .094.094.797.75.797.375 0 .703-.375.703-.75V5.672c0-.563.422-1.172 1.125-1.172.61 0 1.125.516 1.125 1.125v8.625c0 .094.094.797.75.797.375 0 .75-.375.75-.75V7.172c0-.563.422-1.172 1.125-1.172.61 0 1.125.516 1.125 1.125v7.078c0 .14.094.797.75.797.375 0 .75-.328.75-.703V9.422c0-.61.422-1.172 1.125-1.172.61 0 1.125.516 1.125 1.125v7.734c0 .375.328.75.75.75.375 0 .797-.375.797-.75V9.47c0-1.031-.797-2.719-2.672-2.719-.375 0-.75.094-1.125.234-.047-1.359-1.219-2.484-2.625-2.484-.469 0-.89.14-1.265.328C17.483 3.797 16.5 3 15.328 3s-2.11.797-2.484 1.875a2.323 2.323 0 00-1.219-.375C9.75 4.5 9 6.234 9 7.266v10.171L7.547 15.61a2.555 2.555 0 00-2.016-.984C4.125 14.625 3 15.703 3 17.156c0 .563.14 1.172.516 1.64l4.078 5.345C8.859 25.92 10.969 27 13.219 27H18c1.5 0 4.125-.703 4.125-1.688 0-.28-.188-.75-.75-.75z" fill="#5C8EE6" xmlns="http://www.w3.org/2000/svg"/></symbol><symbol viewBox="0 0 30 30" id="colorsAerosols"><path d="M22.5 3h-15C6.656 3 6 3.703 6 4.5V18c0 1.688 1.313 3 3 3h3v3c0 1.688 1.313 3 3 3 1.64 0 3-1.313 3-3v-3h3c1.64 0 3-1.313 3-3V4.5c0-.797-.703-1.5-1.5-1.5zm0 15c0 .844-.703 1.5-1.5 1.5h-4.5V24c0 .844-.703 1.5-1.5 1.5a1.48 1.48 0 01-1.5-1.5v-4.5H9A1.48 1.48 0 017.5 18v-1.5h15V18zm0-3h-15V4.5h15V15z" fill="#5C8EE6" xmlns="http://www.w3.org/2000/svg"/></symbol><symbol viewBox="0 0 24 24" id="downloadIcon"><path d="M16.375 21h-9C5.477 21 4 19.523 4 17.625v-2.531c0-.457.352-.844.844-.844.457 0 .843.387.843.844v2.531c0 .95.739 1.688 1.688 1.688h9c.914 0 1.688-.739 1.688-1.688v-2.531c0-.457.351-.844.843-.844.457 0 .844.387.844.844v2.531A3.376 3.376 0 0116.375 21zm-3.938-5.836l4.782-4.5c.351-.316.351-.844.035-1.195-.317-.352-.844-.352-1.195-.035l-3.34 3.164V3.844A.856.856 0 0011.875 3a.833.833 0 00-.844.844v8.754L7.656 9.434c-.351-.317-.879-.317-1.195.035a.935.935 0 00-.211.562c0 .246.07.457.246.633l4.781 4.5a.828.828 0 001.16 0z" fill="#fff" xmlns="http://www.w3.org/2000/svg"/></symbol><symbol viewBox="0 0 24 24" id="closeModalIcon"><path d="M3.867 3.16l-.707.707L11.292 12 3.16 20.131l.707.707L12 12.706l8.132 8.132.707-.707-8.132-8.132 8.132-8.132-.707-.707L12 11.292 3.867 3.16z" fill="#828A99" xmlns="http://www.w3.org/2000/svg"/></symbol><symbol viewBox="0 0 24 24" id="circleArrow"><path d="M20.313 5.125v5.063c0 .632-.528 1.124-1.125 1.124h-5.063A1.11 1.11 0 0113 10.188c0-.598.492-1.126 1.125-1.126h2.215a5.68 5.68 0 00-4.5-2.214 5.581 5.581 0 00-5.59 5.59c0 3.128 2.496 5.624 5.59 5.624 1.23 0 2.39-.386 3.375-1.125.492-.351 1.195-.246 1.582.247.387.492.281 1.195-.211 1.582-1.371 1.02-3.023 1.547-4.746 1.547-4.324 0-7.84-3.516-7.84-7.875 0-4.325 3.516-7.84 7.84-7.84 2.46 0 4.71 1.125 6.223 3.023V5.125c0-.598.492-1.125 1.125-1.125.597 0 1.125.527 1.125 1.125z" xmlns="http://www.w3.org/2000/svg"/></symbol><symbol viewBox="0 0 15 12" id="checkIcon"><path d="M1.414 4.536L0 5.95l5.071 5.07 9.607-9.606L13.263 0 5.072 8.192 1.414 4.536z" fill="#5C8EE6" xmlns="http://www.w3.org/2000/svg"/></symbol></svg>