<svg width="360" height="310" fill="none" xmlns="http://www.w3.org/2000/svg"><g clip-path="url(#clip0_198_2148)"><path d="M231.446 302.615a4.467 4.467 0 006.255-5.601l.247-1.231a11.998 11.998 0 0118.472 2.582 12.017 12.017 0 011.706 6.811c-.553 13.476.112 28.018-8.839 38.882 40.851-33.406 59.478-90.315 47.002-141.5-6.121-8.536-8.977-19.876-6.231-30.152 3.444 3.353 10.16 2.452 9.133-3.352-.55-2.294-1.12-4.581-1.67-6.875 23.528-9.188 29.671 25.823 1.801 40.077a143.426 143.426 0 013.694 29.661 60.285 60.285 0 0115.283-23.723c6.68-6.018 15.512-9.557 23.729-13.595 9.998-4.927 21.095 4.84 17.158 15.266-6.656-.852-11.365 7.109-5.325 11.388-10.609 17.829-30.95 29.161-51.616 29.341a143.972 143.972 0 01-18.771 57.683c13.203-20.09 38.752-14.306 58.944-15.162a6.954 6.954 0 016.838 3.33 6.964 6.964 0 01-.293 7.604 40.17 40.17 0 00-7.956.324 6.072 6.072 0 00-5.067 4.83 6.081 6.081 0 002.843 6.399c-17.712 16.25-45.159 19.743-66.7 9.374a147.884 147.884 0 01-21.44 21.914l-32.025-15.277c.055-.411.127-.828.193-1.233a40.371 40.371 0 009.113 3.699c-3.416-13.034-7.223-20.668 3.52-31.464h.002zm-56.589-30.832a4.473 4.473 0 01-4.94 1.353 4.473 4.473 0 01-2.964-4.179l-.694-1.047a11.997 11.997 0 00-13.069 3.048 12.024 12.024 0 00-2.078 13.268c5.592 12.272 10.457 25.991 22.842 32.674-50.425-15.518-89.126-61.193-96.865-113.305 2.452-10.217.822-21.797-5.594-30.278-1.926 4.406-8.485 6.107-9.722.344-.355-2.333-.69-4.666-1.044-6.998-25.254.372-17.747 35.116 13.438 37.797a143.439 143.439 0 007.758 28.864 60.226 60.226 0 00-23.096-16.201c-8.455-3.053-17.968-2.996-27.1-3.634-11.117-.789-17.712 12.445-10.136 20.615 5.842-3.301 13.205 2.294 9.224 8.536 16.545 12.508 39.654 15.325 58.862 7.69a143.888 143.888 0 0039.126 46.337c-19.799-13.623-41.281 1.379-60.304 8.208a6.954 6.954 0 00-5.078 5.665 6.966 6.966 0 003.138 6.932 40.19 40.19 0 017.49-2.704 6.07 6.07 0 016.513 2.561 6.08 6.08 0 01-.221 7c22.529 8.363 49.265 1.238 65.306-16.497a147.74 147.74 0 0028.116 12.202l23.901-26.237c-.205-.36-.429-.719-.643-1.07a40.31 40.31 0 01-7.046 6.866c-1.748-13.36-1.1-21.868-15.119-27.81h-.001zm6.151-110.867a4.474 4.474 0 003.88-3.345 4.473 4.473 0 00-1.808-4.795l-.481-1.16a12.012 12.012 0 019.826-9.147 11.994 11.994 0 016.947.984 12.014 12.014 0 015.211 4.701c7.049 11.496 15.703 23.197 14.325 37.21 15.3-50.525-.943-108.16-39.817-143.69-9.837-3.671-18.526-11.492-21.972-21.554 4.728.861 9.801-3.634 5.715-7.88-1.735-1.596-3.482-3.177-5.217-4.774 14.413-20.756 39.018 4.88 23.823 32.265a143.34 143.34 0 0119.593 22.561 60.32 60.32 0 01-.53-28.221c2.192-8.723 7.552-16.589 12.123-24.526 5.556-9.668 20.209-7.752 22.75 3.1-6 3.006-5.474 12.243 1.923 12.425 1.127 20.72-9.445 41.477-26.501 53.157a143.996 143.996 0 0116.555 58.359c-.233-24.045 24.2-33.499 40.485-45.475a6.954 6.954 0 0111.525 5.424 40.23 40.23 0 00-6.425 4.708 6.08 6.08 0 00.858 9.64 6.074 6.074 0 003.553.923c-5.651 23.373-26.489 41.586-50.148 44.998a148.083 148.083 0 01-5.589 30.154l-35.097 5.187c-.184-.372-.356-.758-.527-1.131a40.314 40.314 0 009.626-2.015c-10.098-8.913-17.512-13.126-14.607-28.083h.001z" fill="#F2F2F2"/><path d="M216.307 149.654c-15.979 0-24.645-1.954-27.672-6.125-2.671-3.68-.88-8.536 1.193-14.158 1.49-4.041 3.179-8.622 3.179-13.155 0-22.048 11.171-33.227 33.203-33.227 10.961 0 22.731 5.827 31.484 15.588 7.957 8.874 11.921 19.495 10.876 29.138-.858 7.909-4.536 13.11-11.577 16.369l-.412.191-.117-.439a18.754 18.754 0 00-3.033-6.294 21.545 21.545 0 01-2.195 8.534l-.075.152-.162.047c-7.969 2.271-17.426 2.887-24.775 3.169a258.86 258.86 0 01-9.917.21z" fill="#2F2E41"/><path d="M220.662 180.374a11.96 11.96 0 00-13.48-7.916 11.937 11.937 0 00-5.138 2.29l-52.557 31.445-16.447-40.158a11.688 11.688 0 00-6.382-17.799 11.663 11.663 0 00-12.92 4.648 11.686 11.686 0 006.402 17.792c1.013 11.58 6.647 63.34 26.244 61.458 16.473-1.581 57.381-28.845 70.087-38.299a11.972 11.972 0 004.191-13.461z" fill="#FFB6B6"/><path d="M260.268 408.772h-45.743l-7.671-37.956-2.489 37.956h-42.492a868.13 868.13 0 014.648-89.241l.527-1.795.832-2.872.527-1.803 8.793-30.218.694-2.399h52.95a77.556 77.556 0 018.403 9.289 106.43 106.43 0 012.687 3.575 124.41 124.41 0 011.97 2.864 96.317 96.317 0 0113.052 28.721v.007c.465 1.75.878 3.54 1.236 5.37v.008c.321 1.627.603 3.277.825 4.965.168 1.23.313 2.475.419 3.735a85.63 85.63 0 01-.664 20.945l1.496 48.849z" fill="#2F2E41"/><path d="M17.735 61.709c2.97-1.151 4.73-3.76 3.93-5.829-.8-2.068-3.856-2.811-6.827-1.66-2.97 1.15-4.73 3.76-3.93 5.828.8 2.068 3.856 2.812 6.827 1.66z" fill="#E6E6E6"/><path d="M55.137 56.907c2.97-1.15 4.73-3.76 3.93-5.828-.8-2.069-3.856-2.812-6.827-1.661-2.97 1.15-4.73 3.76-3.93 5.828.8 2.068 3.856 2.812 6.827 1.661z" fill="#3F3D56"/><path d="M14.49 93.644c2.97-1.151 4.73-3.76 3.93-5.829-.8-2.068-3.857-2.811-6.827-1.66-2.97 1.15-4.73 3.76-3.93 5.828.8 2.068 3.856 2.812 6.827 1.66z" fill="#FF6584"/><path d="M3.67 107.731c1.363-.323 2.092-2.174 1.628-4.135-.463-1.96-1.944-3.288-3.307-2.965-1.363.323-2.092 2.174-1.628 4.134.464 1.961 1.944 3.289 3.307 2.966z" fill="#E6E6E6"/><path d="M3.447 131.58c1.363-.323 2.091-2.174 1.628-4.134-.464-1.961-1.945-3.288-3.308-2.966-1.362.323-2.091 2.174-1.628 4.135.464 1.96 1.945 3.288 3.308 2.965z" fill="#3F3D56"/><path d="M36.276 82.182c1.363-.323 2.092-2.174 1.628-4.134-.464-1.96-1.945-3.288-3.307-2.966-1.363.323-2.092 2.174-1.629 4.135.464 1.96 1.945 3.288 3.308 2.965z" fill="#E6E6E6"/><path d="M16.576 77.395c1.363-.323 2.091-2.174 1.628-4.134-.464-1.96-1.945-3.288-3.308-2.966-1.363.323-2.091 2.174-1.628 4.135.464 1.96 1.945 3.288 3.308 2.965z" fill="#FF6584"/><path d="M37.456 55.434c1.362-.323 2.091-2.174 1.628-4.135-.464-1.96-1.945-3.288-3.308-2.965-1.363.323-2.092 2.174-1.628 4.134.464 1.961 1.945 3.289 3.307 2.966z" fill="#3F3D56"/><path d="M47.166 220.5c1.437-1.688.635-4.732-1.791-6.799-2.426-2.066-5.557-2.372-6.993-.683-1.436 1.688-.634 4.732 1.791 6.799 2.426 2.066 5.557 2.372 6.993.683z" fill="#E6E6E6"/><path d="M25.137 189.87c1.436-1.688.634-4.732-1.791-6.799-2.426-2.066-5.557-2.372-6.993-.683-1.437 1.688-.635 4.732 1.791 6.799 2.426 2.066 5.557 2.372 6.993.683z" fill="#3F3D56"/><path d="M76.774 208.149c1.436-1.688.634-4.733-1.791-6.799-2.426-2.066-5.557-2.372-6.993-.684-1.437 1.689-.635 4.733 1.79 6.8 2.427 2.066 5.558 2.372 6.994.683z" fill="#FF6584"/><path d="M91.482 208.487c1.502-1.341 1.963-3.277 1.03-4.322-.932-1.046-2.906-.806-4.408.536-1.502 1.341-1.963 3.277-1.03 4.322.932 1.046 2.906.806 4.408-.536z" fill="#E6E6E6"/><path d="M112.544 197.327c1.502-1.341 1.964-3.277 1.031-4.322-.933-1.046-2.906-.806-4.408.536-1.502 1.341-1.964 3.276-1.031 4.322.932 1.046 2.906.806 4.408-.536z" fill="#3F3D56"/><path d="M53.507 191.958c1.502-1.341 1.964-3.276 1.031-4.322-.933-1.046-2.906-.806-4.408.536-1.502 1.341-1.964 3.277-1.031 4.322.932 1.046 2.906.806 4.408-.536z" fill="#E6E6E6"/><path d="M58.68 211.574c1.502-1.341 1.963-3.277 1.03-4.322-.932-1.046-2.905-.806-4.407.536-1.502 1.341-1.964 3.276-1.031 4.322.932 1.046 2.906.806 4.408-.536z" fill="#FF6584"/><path d="M29.44 203.656c1.502-1.341 1.964-3.277 1.031-4.322-.932-1.046-2.906-.806-4.408.536-1.502 1.341-1.963 3.276-1.03 4.322.932 1.046 2.906.806 4.408-.536z" fill="#3F3D56"/><path d="M195.158 24.053c1.989-.98 2.461-4.091 1.055-6.952-1.405-2.86-4.157-4.386-6.146-3.408-1.988.979-2.461 4.091-1.055 6.952 1.406 2.86 4.158 4.386 6.146 3.408z" fill="#E6E6E6"/><path d="M203.215 60.92c1.988-.98 2.461-4.092 1.055-6.953-1.406-2.86-4.157-4.386-6.146-3.407-1.989.979-2.461 4.091-1.055 6.952 1.406 2.86 4.157 4.386 6.146 3.407z" fill="#3F3D56"/><path d="M163.084 23.617c1.989-.979 2.461-4.091 1.055-6.952-1.406-2.86-4.157-4.386-6.146-3.407-1.988.978-2.461 4.09-1.055 6.951 1.406 2.861 4.158 4.387 6.146 3.408z" fill="#FF6584"/><path d="M146.226 11.918c1.911-.634 3.103-2.227 2.662-3.557-.441-1.33-2.347-1.895-4.258-1.261-1.911.634-3.103 2.227-2.662 3.557.441 1.33 2.347 1.895 4.258 1.26z" fill="#E6E6E6"/><path d="M122.466 13.785c1.911-.634 3.103-2.226 2.662-3.557-.44-1.33-2.347-1.894-4.258-1.26-1.911.634-3.103 2.226-2.662 3.556.441 1.33 2.347 1.895 4.258 1.261z" fill="#3F3D56"/><path d="M174.515 42.183c1.911-.634 3.103-2.226 2.662-3.557-.441-1.33-2.347-1.894-4.258-1.26-1.911.634-3.103 2.226-2.662 3.556.441 1.33 2.347 1.895 4.258 1.261z" fill="#E6E6E6"/><path d="M177.553 22.126c1.911-.634 3.103-2.227 2.662-3.557-.44-1.33-2.347-1.895-4.258-1.261-1.911.634-3.103 2.227-2.662 3.557.441 1.33 2.347 1.895 4.258 1.26z" fill="#FF6584"/><path d="M201.244 41.016c1.911-.634 3.102-2.226 2.662-3.557-.441-1.33-2.347-1.894-4.258-1.26-1.911.634-3.103 2.226-2.662 3.556.44 1.33 2.347 1.895 4.258 1.261z" fill="#3F3D56"/><path d="M208.579 155.792l25.2-1.299 11.706 18.509s22.023 3.684 20.496 29.655c-1.526 25.971-26.796 48.761-26.796 48.761l1.081 13.525-1.876 5.364.24 3.012 2.559 3.19.264 3.299-2.268 5.22 3.084 4.997-64.829-6.285-2.371-8.643 3.459-4.64-1.932-6.053 2.904-5.823 1.514-18.493s-16.566-24.907 2.451-43.667l7.633-12.986 8.541-10.427 8.94-17.216z" fill="#5C8EE5"/><path d="M221.107 150.565c14.748 0 26.703-11.964 26.703-26.723 0-14.758-11.955-26.722-26.703-26.722-14.747 0-26.703 11.964-26.703 26.722 0 14.759 11.956 26.723 26.703 26.723z" fill="#FFB6B6"/><path d="M217.532 122.223c-2.301 0-4.601-.065-6.899-.195l-.411-.023.054-.408a18.717 18.717 0 00-.56-7.617 21.536 21.536 0 01-5.246 7.414l-.127.117-.172-.019a131.674 131.674 0 01-18.51-3.378l-.233-.06-.046-.235a34.962 34.962 0 01-.702-6.782c0-7.116 2.578-13.105 7.259-16.864 5.095-4.092 12.399-5.35 20.574-3.546h26.139a10.847 10.847 0 017.66 3.18 10.867 10.867 0 013.179 7.667v16.565l-.286.075a124.936 124.936 0 01-31.673 4.109z" fill="#2F2E41"/><path d="M35.325 92.498a4.705 4.705 0 00-2.806 6.03l28.198 77.43a4.702 4.702 0 006.024 2.808l109.443-39.915a4.708 4.708 0 002.806-6.029l-28.198-77.43a4.702 4.702 0 00-6.025-2.808L35.325 92.497z" fill="#CCC"/><path d="M135.452 149.438l-66.99 24.433a5.06 5.06 0 01-6.485-3.023l-25.575-70.229a5.07 5.07 0 013.02-6.489L142.68 56.47a5.061 5.061 0 016.484 3.023l12.358 33.934a43.769 43.769 0 01-1.462 33.4 43.715 43.715 0 01-24.608 22.611z" fill="#fff"/><path d="M87.25 98.704l-15.92 5.805a1.617 1.617 0 01-1.647-2.714c.156-.144.34-.255.54-.328l15.918-5.806a1.617 1.617 0 012.021 2.205c-.181.39-.51.69-.913.838zm37.95-6.793l-51.604 18.821a1.619 1.619 0 11-1.108-3.043l51.604-18.82a1.62 1.62 0 111.108 3.042zm2.602 7.142l-51.605 18.821a1.617 1.617 0 01-2.17-1.591 1.62 1.62 0 011.062-1.452l51.605-18.82a1.616 1.616 0 012.072.967 1.619 1.619 0 01-.964 2.075zm2.601 7.143l-51.604 18.821a1.619 1.619 0 11-1.108-3.043l51.604-18.821a1.619 1.619 0 011.108 3.043zm2.6 7.142l-51.604 18.821a1.618 1.618 0 01-1.108-3.043l51.604-18.821a1.619 1.619 0 011.108 3.043z" fill="#5C8EE5"/><path d="M296.745 133.174l-28.254 67.662a11.83 11.83 0 01-15.32 6.383 11.85 11.85 0 01-3.973-2.639 11.86 11.86 0 01-2.609-3.995 11.86 11.86 0 01.281-9.344l31.502-69.384 17.366-42.968a10.336 10.336 0 012.126-16.257 10.314 10.314 0 0111.801 1.034 10.33 10.33 0 01-.731 16.38l-12.189 53.128z" fill="#FFB6B6"/></g><defs><clipPath id="clip0_198_2148"><path fill="#fff" d="M0 0h360v310H0z"/></clipPath></defs></svg>