<svg width="720" height="433" fill="none" xmlns="http://www.w3.org/2000/svg"><g clip-path="url(#clip0_1483_5401)"><path d="M120.82 412.168a2.81 2.81 0 01-2.727-1.73 2.825 2.825 0 01.686-3.161l.193-.769-.076-.184a7.576 7.576 0 00-2.8-3.371 7.545 7.545 0 00-8.378.031 7.576 7.576 0 00-2.774 3.392c-2.282 5.506-5.188 11.023-5.903 16.845a22.465 22.465 0 00.393 7.711 90.038 90.038 0 01-8.16-37.333 86.944 86.944 0 01.537-9.679 90.37 90.37 0 011.234-7.848 91.011 91.011 0 0117.996-38.538 24.177 24.177 0 0010.045-10.442 18.499 18.499 0 001.675-5.044c-.489.065-1.844-7.397-1.475-7.855-.681-1.036-1.901-1.551-2.645-2.562-3.702-5.029-8.801-4.151-11.463 2.682-5.688 2.876-5.743 7.646-2.253 12.233 2.22 2.919 2.525 6.868 4.473 9.992-.2.257-.409.506-.609.763a91.482 91.482 0 00-9.533 15.133 38.117 38.117 0 00-2.267-17.671c-2.17-5.244-6.237-9.661-9.818-14.195-4.302-5.446-13.123-3.07-13.88 3.834a34.56 34.56 0 00-.022.2c.532.301 1.053.62 1.562.958a3.827 3.827 0 011.608 4.011 3.827 3.827 0 01-3.148 2.955l-.078.012a38.15 38.15 0 001.002 5.695c-4.594 17.803 5.325 24.287 19.487 24.578.313.161.618.322.93.474a93.58 93.58 0 00-5.018 23.663 88.766 88.766 0 00.064 14.305l-.024-.168a23.423 23.423 0 00-7.976-13.519c-6.138-5.052-14.81-6.912-21.432-10.973a4.376 4.376 0 00-6.343 1.839 4.4 4.4 0 00-.346 2.612c.987.403 1.948.867 2.878 1.39.532.301 1.053.62 1.562.957a3.83 3.83 0 011.608 4.011 3.824 3.824 0 01-3.148 2.956l-.078.012-.16.024a38.14 38.14 0 006.998 10.98c2.873 15.541 15.21 17.015 28.41 12.49h.007a93.523 93.523 0 006.26 18.313h22.366c.08-.249.152-.506.225-.755a25.37 25.37 0 01-6.189-.37c1.659-2.04 3.319-4.096 4.978-6.136.037-.038.072-.078.104-.121.842-1.044 1.692-2.08 2.533-3.124l.001-.001a37.359 37.359 0 00-1.091-9.501l-.001-.001zm467.134 0a2.813 2.813 0 002.728-1.73 2.825 2.825 0 00-.686-3.161l-.193-.769.076-.184a7.574 7.574 0 012.799-3.371 7.55 7.55 0 018.379.031 7.576 7.576 0 012.774 3.392c2.282 5.506 5.187 11.023 5.903 16.845a22.465 22.465 0 01-.393 7.711 90.047 90.047 0 008.16-37.333 86.704 86.704 0 00-.537-9.679 90.292 90.292 0 00-1.234-7.848 91.005 91.005 0 00-17.997-38.538 24.18 24.18 0 01-10.044-10.442 18.465 18.465 0 01-1.675-5.044c.489.065 1.843-7.397 1.475-7.855.681-1.036 1.901-1.551 2.645-2.562 3.701-5.029 8.801-4.151 11.463 2.682 5.687 2.876 5.742 7.646 2.253 12.233-2.22 2.919-2.525 6.868-4.473 9.992.2.257.409.506.609.763a91.6 91.6 0 019.533 15.133 38.113 38.113 0 012.267-17.671c2.17-5.244 6.236-9.661 9.818-14.195 4.301-5.446 13.122-3.07 13.88 3.834l.022.2c-.532.301-1.053.62-1.562.958a3.828 3.828 0 00-1.608 4.011 3.822 3.822 0 003.148 2.955l.078.012a38.29 38.29 0 01-1.002 5.695c4.594 17.803-5.325 24.287-19.488 24.578-.312.161-.617.322-.93.474a93.55 93.55 0 015.019 23.663 88.731 88.731 0 01-.065 14.305l.025-.168a23.42 23.42 0 017.976-13.519c6.138-5.052 14.81-6.912 21.432-10.973a4.374 4.374 0 014.72-.012 4.396 4.396 0 011.996 4.286l-.027.177a25.49 25.49 0 00-4.44 2.347 3.83 3.83 0 001.54 6.967l.078.012.16.024a38.131 38.131 0 01-6.998 10.98c-2.873 15.541-15.211 17.015-28.409 12.49h-.008a93.61 93.61 0 01-6.261 18.313h-22.365c-.081-.249-.153-.506-.225-.755 2.07.13 4.149.006 6.189-.37-1.66-2.04-3.319-4.096-4.978-6.136a1.205 1.205 0 01-.104-.121c-.842-1.044-1.692-2.08-2.534-3.124v-.001a37.359 37.359 0 011.091-9.501v-.001zm-441.409 19.507h36.09c6.173-20.825.033-70.041 8.169-90.157 15.609-38.569 35.551-79.266 72.77-98.098 15.892-8.042 33.219-11.183 50.914-11.012 24.445.233 49.577 6.808 72.586 15.521 9.412 3.557 18.738 7.467 28.028 11.464 34.998 15.068 69.616 31.481 107.252 35.917 47.626 5.61 103.621-15.74 116.628-61.728 9.928-35.209-7.951-71.763-26.702-103.208-18.751-31.444-39.711-65.09-36.287-101.496.012-.122.025-.256.049-.379C577.331 15.423 585.123 6.025 596.008 0h-47.393c-.625 33.962 18.984 63.94 36.631 93.54 18.75 31.433 36.63 67.998 26.702 103.207-13.007 45.976-120.718-7.917-168.343-13.539-13.45-1.576 7.915 4.033-4.909 0-20.113-6.318-22.342 51.632-41.915 43.127-12.186-5.304-24.384-10.572-36.741-15.252a305.36 305.36 0 00-15.634-5.451c-.012 0-.012 0-.024-.012-35.514-11.268-74.353-15.655-107.167.635-.221.11-.454.22-.675.33-37.219 18.821-57.16 59.517-72.77 98.087-12.897 31.885-10.869 93.37-17.225 127.003z" fill="#F0F2F5"/><path d="M347.336 430.609c91.546 0 165.759-74.361 165.759-166.09 0-91.728-74.213-166.089-165.759-166.089-91.547 0-165.76 74.361-165.76 166.089 0 91.729 74.213 166.09 165.76 166.09z" fill="#fff"/><path d="M346.862 431.675c-164.002 3.775-167.598-74.296-167.598-167.156 0-92.858 75.397-168.405 168.072-168.405s168.072 75.547 168.072 168.405c0 92.86-75.871 167.156-168.546 167.156zm.474-330.927c-90.126 0-161.93 73.48-163.448 163.771-1.411 83.982 87.628 188.779 163.448 163.773 40.659-44.869 155.616-93.195 163.447-163.773 9.959-89.751-73.322-163.771-163.447-163.771z" fill="#292D33"/><path d="M324.724 350.961c-2.862 0-5.686-.668-8.246-1.951a18.439 18.439 0 01-6.503-5.44l-45.222-60.417a18.499 18.499 0 013.683-25.871 18.42 18.42 0 0120.463-1.114 18.466 18.466 0 015.355 4.816l29.586 39.523 75.987-114.205a18.436 18.436 0 0111.725-7.861c4.794-.96 9.772.028 13.84 2.745a18.478 18.478 0 017.852 11.744 18.505 18.505 0 01-2.733 13.869l-90.443 135.935a18.47 18.47 0 01-6.417 5.918 18.419 18.419 0 01-8.927 2.309zM0 431.804A1.193 1.193 0 001.194 433h717.612a1.193 1.193 0 001.194-1.196 1.197 1.197 0 00-1.194-1.196H1.194a1.178 1.178 0 00-.845.349 1.192 1.192 0 00-.349.847z" fill="#F0F2F5"/><path d="M453.186 420.077h-9.706l-4.617-37.513 14.326.001-.003 37.512z" fill="#FFB6B6"/><path d="M453.529 430.223l-29.847-.001v-.379a11.65 11.65 0 013.403-8.23 11.604 11.604 0 018.214-3.41h.001l5.452-4.144 10.172 4.145h2.605v12.019z" fill="#323A46"/><path d="M410.99 373.587l-8.965 3.725-18.607-32.878 13.233-5.498 14.339 34.651z" fill="#FFB6B6"/><path d="M415.185 382.827l-27.571 11.455-.144-.349a11.667 11.667 0 01-.004-8.909 11.627 11.627 0 016.285-6.302v-.001l3.452-5.921 10.981-.075 2.407-1 4.594 11.102z" fill="#323A46"/><path d="M464.285 206.687l-68.881 7.211-9.214 31.095-31.909 51.381s22.266 37.55 20.175 37.141c-2.09-.409 2.088 9.826 5.015 9.232 2.927-.594 5.971 6.08 3.947 7.266-2.023 1.187 6.095 11.22 6.095 11.22l12.408-11.158c2.639-19.947-.55-37.699-11.91-52.375l35.548-38.453 6.741-2.803 5.35 142.691 19.791.325c5.461-28.147 8.204-53.481 3.936-71.554 0 0 .613-54.291 2.954-53.698 2.34.594.356-6.479.356-6.479s-2.05-6.024.469-8.523c2.518-2.498.946-17.196.946-17.196 4.161-13.909 2.908-25.394-1.817-35.323z" fill="#323A46"/><path d="M411.322 91.938l19.042-4.945 8.889-12.284 21.11 2.6 4.493 16.756 15.028 8.741s-8.306 88.03-6.33 92.864c1.976 4.834 9.06 4.435 3.01 10.666-6.051 6.23-6.852 3.721-5.448 10.504 1.404 6.784 11.638 13.963 0 13.892-11.638-.071-81.865-1.076-79.859-9.118 2.006-8.042 1.975-6 5-11.042 3.026-5.042 5.062-2.225 4.044-9.665-1.018-7.44-.015-12.466-.015-16.487 0-4.021 3.362-40.56 3.362-40.56l7.674-51.922z" fill="#F0F2F5"/><path d="M449.755 72.439c12.354 0 22.37-10.035 22.37-22.415 0-12.379-10.016-22.414-22.37-22.414-12.355 0-22.37 10.035-22.37 22.414 0 12.38 10.015 22.415 22.37 22.415z" fill="#FFB6B6"/><path d="M426.316 36.46c1.964 1.59 1.515 9.325 3.704 8.064 2.188-1.261 2.644-3.519 5.164-3.542a8.243 8.243 0 015.434 2.464c.269.243.524.497.771.749.227-.08.451-.152.687-.21a7.096 7.096 0 015.213.735 6.966 6.966 0 00-3.971 1.604c.481.54.969 1.083 1.482 1.585 4.285 4.207 13.069-.273 18.976-1.284-4.92 5.382-3.95 8.387-2.726 15.58l.005.394c.251-1.66 5.554-1.577 4.68.625a28.318 28.318 0 01-4.087 6.02c7.225-5.016 13.058-11.93 14.347-20.28.264-1.756.781-3.547.281-5.26a4.023 4.023 0 00-3.844-3.071 14.89 14.89 0 00-3.527-14.836 14.806 14.806 0 00-14.714-3.91 56.582 56.582 0 00-6.861 2.968 12.315 12.315 0 01-7.268 1.233c-1.552-.321-3.123-1.126-4.645-.67-1.762.53-2.52 2.395-3.227 4.195a7.098 7.098 0 013.308 2.5 6.935 6.935 0 00-4.35-.153c-1.596 2.865-1.688 3.568-4.832 4.5z" fill="#323A46"/><path d="M433.693 80.99c-11.458-.925-21.92 7.855-26.69 18.334s-5.082 22.367-5.314 33.883l-.719 35.795c-.107 5.297-.213 10.595-.477 15.886a77.823 77.823 0 01-1.929 15.292c-2.336 9.213-7.475 17.423-12.539 25.461a343.163 343.163 0 0039.485 9.449c6.66-21.584 13.396-43.789 11.759-66.321-.867-11.923-4.067-23.564-5.284-35.457-1.723-16.843.561-33.81 2.84-50.587" fill="#292D33"/><path d="M461.505 83.002c11.349 1.829 19.431 12.847 21.581 24.162 2.15 11.314-.364 22.936-2.868 34.177l-7.785 34.943c-1.152 5.171-2.304 10.342-3.302 15.545-.97 5.054 3.092 11.536 3.138 16.683.086 9.505-1.756 17.333 1.258 26.346-13.524.73-27.079.658-40.595-.216-1.354-22.551-2.635-45.723 4.296-67.221 3.667-11.376 9.535-21.923 13.535-33.186 5.666-15.951 7.469-32.976 9.231-49.816" fill="#292D33"/><path d="M469.069 245.501a6.52 6.52 0 012.251-8.802c.296-.175.607-.325.928-.449l-1.447-49.373 15.677-3.998-5.978 57.522a6.506 6.506 0 01-2.839 7.403 6.195 6.195 0 01-8.506-2.155l-.086-.148z" fill="#FFB6B6"/><path d="M467.926 102.727s10.943-9.273 20.151 9.268c9.208 18.54 4.063 60.895 2.766 63.155-1.296 2.261-2.087-.888-1.377 5.137.578 4.901-2.855 4.288-1.624 5.334 3.247 2.757-5.845 3.071-1.176 5.501 4.67 2.43-16.23 2.885-16.23 2.885s-2.528-1.809-.773-8.631c.987-3.831 3.455-5.233.822-7.006-2.633-1.773 2.72-7.254 2.724-8.457.004-1.202-8.348-27.506-8.348-27.506l3.065-39.68z" fill="#292D33"/><path d="M377.373 331.125c-2.863 0-5.686-.667-8.246-1.95a18.445 18.445 0 01-6.504-5.441l-45.222-60.417a18.482 18.482 0 01-3.507-13.7 18.494 18.494 0 017.191-12.171 18.412 18.412 0 0125.818 3.703l29.586 39.523 75.987-114.206a18.425 18.425 0 0118.92-7.876 18.425 18.425 0 0111.742 7.844 18.509 18.509 0 01.022 20.529l-90.444 135.935a18.46 18.46 0 01-6.417 5.918 18.4 18.4 0 01-8.413 2.303c-.171.003-.342.006-.513.006z" fill="#5C8EE6"/><path d="M411.844 236.925a6.525 6.525 0 00-1.761-8.913 6.358 6.358 0 00-.903-.5l4.169-49.217-15.433-4.861 2.796 57.765a6.499 6.499 0 002.426 7.549 6.2 6.2 0 008.613-1.68c.032-.048.063-.095.093-.143z" fill="#FFB6B6"/><path d="M420.877 94.534s-10.415-9.865-20.631 8.137c-10.217 18.002-7.415 60.577-6.246 62.906 1.17 2.329 2.133-.771 1.092 5.206-.847 4.861 2.615 4.439 1.328 5.415-3.395 2.573 5.667 3.39.87 5.558-4.797 2.167 16.047 3.779 16.047 3.779s2.624-1.666 1.247-8.575c-.773-3.88-3.161-5.416-.434-7.041 2.727-1.624-2.316-7.393-2.253-8.594.062-1.201 9.852-27.003 9.852-27.003l-.872-39.788z" fill="#292D33"/></g><defs><clipPath id="clip0_1483_5401"><path fill="#fff" d="M0 0h720v433H0z"/></clipPath></defs></svg>