<svg width="140" height="44" viewBox="0 0 140 44" fill="none" xmlns="http://www.w3.org/2000/svg">
    <g clip-path="url(#clip0_278_1470)">
    <path fill-rule="evenodd" clip-rule="evenodd" d="M21.9928 4.89351C24.2857 4.89351 26.4733 5.34481 28.4715 6.16361V12.3539V21.8184C28.4715 25.3669 25.5949 28.2436 22.0465 28.2436C20.5375 28.2436 19.15 27.7235 18.0536 26.8527V32.5405C19.2966 33.0038 20.6421 33.2569 22.0465 33.2569C29.0248 33.2569 33.5146 27.7473 33.5146 21.0594V3.25613C30.1638 1.19127 26.2173 0 21.9928 0C9.84658 0 0 9.84658 0 21.9928C0 28.9293 3.21131 35.1156 8.22825 39.1466V32.1397C6.13243 29.3013 4.89351 25.7918 4.89351 21.9928C4.89351 12.5492 12.5492 4.89351 21.9928 4.89351V4.89351Z" fill="#292D33"/>
    <path fill-rule="evenodd" clip-rule="evenodd" d="M22.0619 39.1066C19.7688 39.1066 17.5811 38.6553 15.583 37.8365V31.6462V22.1817C15.583 18.6332 18.4597 15.7565 22.0082 15.7565C23.5171 15.7565 24.9044 16.2766 26.0008 17.1474V11.4596C24.7578 10.9963 23.4125 10.7432 22.0082 10.7432C15.0299 10.7432 10.54 16.2528 10.54 22.9407V40.744C13.8906 42.8088 17.8371 44.0001 22.0619 44.0001C34.2081 44.0001 44.0546 34.1535 44.0546 22.0073C44.0546 15.0708 40.8433 8.88449 35.8264 4.85352V11.8604C37.9222 14.6988 39.1611 18.2083 39.1611 22.0073C39.1611 31.4509 31.5055 39.1066 22.0619 39.1066V39.1066Z" fill="#5C8EE6"/>
    <path d="M71.3034 22.5536C71.3034 22.6595 71.2612 22.7443 71.1975 22.8079C71.1338 22.8716 71.0279 22.9138 70.922 22.9138H68.6759C68.57 22.9138 68.4852 22.8716 68.4215 22.8079C68.3582 22.7443 68.2945 22.6595 68.2734 22.5536L67.2985 18.5275H62.4248L61.4499 22.5536C61.4288 22.6595 61.3655 22.7443 61.3018 22.8079C61.2381 22.8716 61.1533 22.9138 61.0474 22.9138H58.8013C58.6954 22.9138 58.5895 22.8716 58.5258 22.8079C58.4622 22.7443 58.4199 22.6595 58.4199 22.5536C58.4199 22.5324 58.4199 22.5324 58.441 22.5113C58.441 22.4902 58.441 22.4688 58.441 22.4476L61.9164 9.16164C62.0435 8.67402 62.2342 8.27152 62.4671 7.99603C62.7003 7.72055 62.9758 7.48762 63.2513 7.33916C63.5268 7.19102 63.8023 7.10623 64.0989 7.06367C64.3744 7.02144 64.6287 7 64.8617 7C65.0949 7 65.349 7.02144 65.6456 7.06367C65.921 7.10623 66.218 7.19102 66.4934 7.33916C66.7689 7.48762 67.023 7.72055 67.2562 7.99603C67.4892 8.27152 67.6799 8.67402 67.8072 9.16164L71.2823 22.4476C71.2823 22.4688 71.2823 22.4902 71.3034 22.5113C71.3034 22.5324 71.3034 22.5324 71.3034 22.5536ZM65.2008 9.81852C65.1794 9.69117 65.1371 9.60638 65.0949 9.54304C65.0524 9.50048 64.9676 9.47936 64.8617 9.47936C64.7558 9.47936 64.671 9.50048 64.6287 9.54304C64.5862 9.60638 64.5439 9.69117 64.5225 9.81852L62.9969 16.1118H66.7264L65.2008 9.81852Z" fill="#292D33"/>
    <path d="M81.7926 22.3417C81.7926 22.4902 81.7712 22.5961 81.7078 22.6594C81.6441 22.7231 81.5171 22.7653 81.3687 22.7868C81.2205 22.829 80.9873 22.8716 80.7118 22.8927C80.4152 22.9349 80.0975 22.9775 79.7583 22.9986C79.4191 23.0197 79.0803 23.0408 78.72 23.0623C78.3598 23.0834 78.0417 23.0834 77.7662 23.0834C77.0671 23.0834 76.4314 23.0197 75.8382 22.9138C75.2446 22.8079 74.7362 22.575 74.2912 22.2569C73.8461 21.9392 73.5073 21.5153 73.2529 20.9432C72.9985 20.3711 72.8715 19.6505 72.8715 18.7393V7.59352C72.8715 7.48761 72.9137 7.38139 72.9985 7.29692C73.0833 7.21213 73.1892 7.16958 73.2955 7.16958H75.3931C75.499 7.16958 75.6049 7.21213 75.6897 7.29692C75.7745 7.38139 75.8171 7.48761 75.8171 7.59352V18.7393C75.8171 19.4387 75.9441 19.926 76.177 20.1804C76.4103 20.4344 76.8553 20.5618 77.4696 20.5618H81.3687C81.4746 20.5618 81.5805 20.604 81.6653 20.6888C81.75 20.7736 81.7926 20.8795 81.7926 20.9854V22.3417ZM86.751 22.4902C86.751 22.5961 86.7085 22.702 86.6237 22.7868C86.5392 22.8716 86.433 22.9138 86.3271 22.9138H84.2294C84.1235 22.9138 84.0176 22.8716 83.9328 22.7868C83.848 22.702 83.8055 22.5961 83.8055 22.4902V7.57241C83.8055 7.46618 83.848 7.36027 83.9328 7.27548C84.0176 7.21214 84.1235 7.16958 84.2294 7.16958H86.3271C86.433 7.16958 86.5392 7.21214 86.6237 7.27548C86.7085 7.36027 86.751 7.46618 86.751 7.57241V22.4902ZM101.626 22.5535C101.626 22.6594 101.584 22.7442 101.52 22.8079C101.457 22.8716 101.351 22.9138 101.245 22.9138H98.9987C98.8928 22.9138 98.808 22.8716 98.7444 22.8079C98.681 22.7442 98.6173 22.6594 98.5962 22.5535L97.6213 18.5275H92.7477L91.7731 22.5535C91.7516 22.6594 91.6883 22.7442 91.6246 22.8079C91.5609 22.8716 91.4765 22.9138 91.3703 22.9138H89.1241C89.0182 22.9138 88.9123 22.8716 88.8487 22.8079C88.7853 22.7442 88.7428 22.6594 88.7428 22.5535C88.7428 22.5324 88.7428 22.5324 88.7639 22.5113C88.7639 22.4902 88.7639 22.4687 88.7639 22.4476L92.2393 9.16164C92.3663 8.67402 92.557 8.27152 92.7902 7.99603C93.0232 7.72055 93.2986 7.48762 93.5741 7.33916C93.8496 7.19102 94.1251 7.10623 94.4217 7.06367C94.6972 7.02144 94.9516 7 95.1845 7C95.4177 7 95.6718 7.02144 95.9687 7.06367C96.2442 7.10623 96.5408 7.19102 96.8163 7.33916C97.0918 7.48762 97.3458 7.72055 97.5791 7.99603C97.812 8.27152 98.003 8.67402 98.13 9.16164L101.605 22.4476C101.605 22.4687 101.605 22.4902 101.626 22.5113C101.626 22.5324 101.626 22.5324 101.626 22.5535ZM95.5236 9.81851C95.5025 9.69117 95.46 9.60638 95.4177 9.54303C95.3752 9.50047 95.2904 9.47936 95.1845 9.47936C95.0786 9.47936 94.9938 9.50047 94.9516 9.54303C94.909 9.60638 94.8668 9.69117 94.8457 9.81851L93.3198 16.1118H97.0492L95.5236 9.81851ZM115.527 22.0662C115.527 22.2995 115.442 22.5113 115.294 22.6594C115.124 22.829 114.913 22.9138 114.679 22.9138H112.539C112.285 22.9138 112.052 22.8716 111.84 22.8079C111.607 22.7442 111.416 22.5324 111.246 22.151L106.542 11.8314C106.479 11.7255 106.415 11.6618 106.352 11.6618C106.288 11.6618 106.246 11.7255 106.246 11.8314V22.4902C106.246 22.5961 106.203 22.702 106.14 22.7868C106.055 22.8716 105.949 22.9138 105.843 22.9138H104.042C103.936 22.9138 103.83 22.8716 103.745 22.7868C103.661 22.702 103.618 22.5961 103.618 22.4902V8.01714C103.618 7.78422 103.703 7.57241 103.872 7.40283C104.021 7.25437 104.233 7.16958 104.466 7.16958H106.754C106.987 7.16958 107.157 7.21213 107.305 7.29692C107.433 7.38139 107.56 7.57241 107.687 7.84757L112.624 18.7393C112.666 18.8452 112.73 18.9089 112.793 18.9089C112.857 18.9089 112.899 18.8452 112.899 18.7182V7.57241C112.899 7.29692 113.027 7.16958 113.302 7.16958H115.124C115.4 7.16958 115.527 7.29692 115.527 7.57241V22.0662ZM128.071 22.2569C128.071 22.4054 128.029 22.5113 127.944 22.575C127.86 22.6383 127.754 22.702 127.605 22.7442C127.521 22.7653 127.372 22.8079 127.181 22.829C126.97 22.8716 126.715 22.9138 126.419 22.9564C126.122 22.9775 125.783 23.0197 125.423 23.0408C125.063 23.0623 124.66 23.0834 124.257 23.0834C123.621 23.0834 122.943 22.9986 122.244 22.8079C121.545 22.6172 120.888 22.278 120.316 21.7907C119.722 21.3034 119.256 20.6466 118.854 19.8201C118.472 18.9937 118.282 17.9128 118.282 16.5991V13.4843C118.282 12.1494 118.472 11.0686 118.854 10.221C119.256 9.39457 119.722 8.7377 120.316 8.2504C120.888 7.76311 121.545 7.44506 122.244 7.25436C122.943 7.08478 123.621 7 124.257 7C124.66 7 125.063 7.02144 125.423 7.04255C125.783 7.06367 126.122 7.10623 126.419 7.12734C126.715 7.16958 126.97 7.21213 127.181 7.25436C127.372 7.29692 127.521 7.31804 127.605 7.33916C127.754 7.38139 127.86 7.42394 127.944 7.48761C128.029 7.55096 128.071 7.67831 128.071 7.82645V9.24643C128.071 9.37345 128.05 9.47936 127.987 9.56415C127.923 9.64894 127.796 9.69117 127.648 9.69117H127.605C127.415 9.67005 127.203 9.64894 126.948 9.62782C126.673 9.60638 126.397 9.60638 126.101 9.58526C125.804 9.56415 125.507 9.56415 125.19 9.54303C124.872 9.52191 124.575 9.52192 124.299 9.52192C123.855 9.52192 123.431 9.58527 123.071 9.71262C122.689 9.86075 122.371 10.0726 122.096 10.3695C121.82 10.6872 121.609 11.0897 121.46 11.5984C121.312 12.1069 121.227 12.7426 121.227 13.4843V16.5991C121.227 17.3408 121.312 17.9554 121.46 18.4638C121.609 18.9725 121.82 19.3751 122.096 19.6931C122.371 20.0108 122.689 20.2226 123.071 20.35C123.431 20.4981 123.855 20.5618 124.299 20.5618C124.575 20.5618 124.872 20.5618 125.19 20.5407C125.507 20.5192 125.804 20.5192 126.101 20.4981C126.397 20.477 126.673 20.4559 126.948 20.4344C127.203 20.4133 127.415 20.4133 127.605 20.3922H127.648C127.796 20.3922 127.923 20.4344 127.987 20.5192C128.05 20.604 128.071 20.7099 128.071 20.8373V22.2569ZM140.001 22.3417C140.001 22.4902 139.98 22.5961 139.917 22.6594C139.853 22.7231 139.726 22.7653 139.578 22.7868C139.408 22.8079 139.218 22.8501 139.027 22.8716C138.815 22.9138 138.56 22.9563 138.264 22.9775C137.946 22.9986 137.586 23.0408 137.162 23.0623C136.717 23.0834 136.187 23.0834 135.551 23.0834C134.852 23.0834 134.217 23.0197 133.623 22.9138C133.03 22.8079 132.5 22.575 132.076 22.2569C131.631 21.9392 131.271 21.5153 131.017 20.9432C130.763 20.3711 130.635 19.6505 130.635 18.7393V11.3441C130.635 10.4328 130.763 9.71261 131.017 9.1402C131.271 8.56812 131.631 8.12305 132.076 7.80533C132.5 7.48761 133.03 7.27548 133.623 7.16958C134.217 7.06367 134.852 7 135.551 7C136.187 7 136.717 7 137.162 7.02144C137.586 7.04255 137.946 7.08478 138.264 7.10622C138.56 7.12734 138.815 7.16958 139.027 7.19102C139.218 7.23325 139.408 7.27548 139.578 7.29692C139.726 7.31804 139.853 7.36027 139.917 7.42394C139.98 7.48761 140.001 7.59352 140.001 7.74166V9.09797C140.001 9.20387 139.959 9.30978 139.874 9.39457C139.79 9.47936 139.683 9.52192 139.578 9.52192H135.255C134.64 9.52192 134.195 9.64894 133.962 9.90331C133.708 10.1574 133.581 10.6447 133.581 11.3441V13.6327H139.323C139.429 13.6327 139.535 13.675 139.62 13.7598C139.705 13.8446 139.747 13.9505 139.747 14.0564V15.5819C139.747 15.6882 139.705 15.7941 139.62 15.8789C139.535 15.9636 139.429 16.0059 139.323 16.0059H133.581V18.7393C133.581 19.4387 133.708 19.926 133.962 20.1804C134.195 20.4344 134.64 20.5618 135.255 20.5618H139.578C139.683 20.5618 139.79 20.604 139.874 20.6888C139.959 20.7736 140.001 20.8795 140.001 20.9854V22.3417Z" fill="#292D33"/>
    <path d="M65.8755 29.9869C65.8755 30.5818 65.7673 31.0817 65.5646 31.4868C65.3486 31.8923 65.065 32.2168 64.6998 32.4598C64.3487 32.7168 63.9299 32.8922 63.4702 32.9867C62.9976 33.0949 62.4976 33.1492 61.9703 33.1492C61.7949 33.1492 61.5922 33.1355 61.3489 33.1219C61.1192 33.1086 60.9165 33.1086 60.7677 33.0949V36.6216C60.7677 36.6892 60.7407 36.7568 60.7001 36.811C60.6462 36.865 60.5786 36.8919 60.511 36.8919H59.1599C59.0924 36.8919 59.0248 36.865 58.9705 36.811C58.9166 36.7568 58.8896 36.6892 58.8896 36.6216V27.325C58.8896 27.1899 58.9303 27.0953 59.0111 27.0278C59.0787 26.9738 59.1869 26.9332 59.322 26.9199C59.6732 26.8656 60.0787 26.825 60.538 26.7847C60.9977 26.7575 61.484 26.7441 61.984 26.7441C62.4976 26.7441 62.9976 26.7981 63.4702 26.8926C63.9299 26.9871 64.3487 27.1629 64.6998 27.4062C65.065 27.6495 65.3486 27.9738 65.5646 28.3655C65.7673 28.771 65.8755 29.2709 65.8755 29.8654V29.9869ZM63.9975 29.8518C63.9975 29.2846 63.8351 28.8792 63.4975 28.6495C63.1597 28.4062 62.6461 28.2847 61.9703 28.2847C61.9028 28.2847 61.8082 28.2847 61.7 28.2847C61.5785 28.298 61.4704 28.298 61.3489 28.298C61.2274 28.3116 61.1192 28.3116 61.0247 28.3116C60.9165 28.3249 60.8353 28.3249 60.7677 28.3386V31.5681C60.8219 31.5681 60.9028 31.5681 61.0247 31.5681C61.1328 31.5817 61.2543 31.5817 61.3758 31.5817C61.4977 31.595 61.6055 31.595 61.7273 31.595C61.8352 31.6087 61.9164 31.6087 61.9703 31.6087C62.7 31.6087 63.2272 31.4735 63.5378 31.2032C63.8487 30.9329 63.9975 30.5275 63.9975 29.9736V29.8518ZM74.6452 36.7298C74.6452 36.838 74.5913 36.8919 74.4831 36.8919H72.8344C72.7669 36.8919 72.7129 36.865 72.6723 36.811C72.6321 36.7568 72.6048 36.6892 72.5645 36.6216L70.6185 33.0273H70.4295C70.2537 33.0273 70.0374 33.014 69.8077 33.0004C69.578 32.9867 69.3753 32.9867 69.2268 32.9734V36.6216C69.2268 36.6892 69.1995 36.7568 69.1593 36.811C69.105 36.865 69.0374 36.8919 68.9699 36.8919H67.6187C67.5512 36.8919 67.4836 36.865 67.4297 36.811C67.3754 36.7568 67.3485 36.6892 67.3485 36.6216V27.325C67.3485 27.1899 67.3891 27.0953 67.47 27.0278C67.5375 26.9738 67.6457 26.9332 67.7809 26.9199C68.132 26.8656 68.5375 26.825 68.9971 26.7847C69.4565 26.7575 69.9428 26.7441 70.4428 26.7441C70.9564 26.7441 71.4564 26.7981 71.9294 26.8926C72.3887 27.0008 72.8075 27.1765 73.159 27.4062C73.5238 27.6359 73.8074 27.9468 74.0238 28.3386C74.2265 28.7304 74.3343 29.217 74.3343 29.7979V29.9194C74.3343 30.6357 74.1722 31.2302 73.8344 31.6762C73.5102 32.1219 73.0641 32.4598 72.4969 32.6762L74.6183 36.6216C74.6316 36.6489 74.6452 36.6892 74.6452 36.7298ZM72.4563 29.7979C72.4563 29.2846 72.2942 28.9198 71.9563 28.6898C71.6185 28.4601 71.1049 28.3522 70.4295 28.3522C70.3619 28.3522 70.267 28.3522 70.1592 28.3522C70.0374 28.3655 69.9295 28.3655 69.8077 28.3655C69.6862 28.3792 69.578 28.3792 69.4835 28.3792C69.3753 28.3925 69.2944 28.3925 69.2268 28.4062V31.4465C69.2808 31.4465 69.362 31.4465 69.4835 31.4465C69.5917 31.4599 69.7132 31.4599 69.8347 31.4599C69.9565 31.4735 70.0643 31.4735 70.1862 31.4735C70.2943 31.4868 70.3752 31.4868 70.4295 31.4868C71.1318 31.4868 71.6454 31.379 71.9697 31.1493C72.2942 30.9196 72.4563 30.5142 72.4563 29.9194V29.7979Z" fill="#5C8EE6"/>
    <path d="M83.3204 32.7844C83.3204 33.5273 83.2256 34.1761 83.0365 34.703C82.8338 35.23 82.5771 35.6624 82.2256 36.0002C81.8881 36.3381 81.4827 36.5947 81.0097 36.7568C80.5503 36.9189 80.0367 37.0001 79.4828 37.0001C78.9153 37.0001 78.4016 36.9189 77.9423 36.7568C77.4693 36.5947 77.0639 36.3381 76.7263 36.0002C76.3885 35.6624 76.1182 35.23 75.9288 34.703C75.7261 34.1761 75.6315 33.5273 75.6315 32.7844V30.9599C75.6315 30.217 75.7261 29.5818 75.9288 29.0413C76.1182 28.5143 76.3885 28.0683 76.7263 27.7304C77.0639 27.3926 77.4693 27.1496 77.9423 26.9871C78.4016 26.825 78.9153 26.7441 79.4828 26.7441C80.0367 26.7441 80.5503 26.825 81.0097 26.9871C81.4827 27.1496 81.8881 27.3926 82.2256 27.7304C82.5771 28.0683 82.8338 28.5143 83.0365 29.0413C83.2256 29.5818 83.3204 30.217 83.3204 30.9599V32.7844ZM81.442 30.9599C81.442 30.0545 81.2799 29.4061 80.9557 28.987C80.6448 28.5819 80.1449 28.3792 79.4828 28.3792C78.8071 28.3792 78.3071 28.5819 77.9962 28.987C77.672 29.4061 77.5099 30.0545 77.5099 30.9599V32.7844C77.5099 33.6894 77.672 34.3382 77.9962 34.7436C78.3071 35.1624 78.8071 35.3651 79.4828 35.3651C80.1449 35.3651 80.6448 35.1624 80.9557 34.7436C81.2799 34.3382 81.442 33.6894 81.442 32.7844V30.9599ZM92.3601 32.8653C92.3601 34.2031 91.9953 35.23 91.252 35.9326C90.5223 36.649 89.4685 37.0001 88.1174 37.0001C87.8604 37.0001 87.6174 37.0001 87.3471 36.9865C87.0768 36.9732 86.8202 36.9595 86.5769 36.9462C86.3199 36.9326 86.1039 36.9056 85.9011 36.892C85.6984 36.8786 85.5363 36.8514 85.4418 36.838C85.3203 36.8244 85.2391 36.7841 85.1851 36.7165C85.1176 36.649 85.0903 36.5541 85.0903 36.419V27.325C85.0903 27.1899 85.1176 27.0953 85.1851 27.0278C85.2391 26.9602 85.3203 26.9199 85.4418 26.9063C85.5363 26.8926 85.6984 26.8656 85.9011 26.8523C86.1039 26.8387 86.3199 26.8117 86.5769 26.7981C86.8202 26.7848 87.0768 26.7711 87.3471 26.7575C87.6174 26.7441 87.8604 26.7441 88.1174 26.7441C89.4685 26.7441 90.5223 27.0953 91.252 27.798C91.9953 28.5143 92.3601 29.5412 92.3601 30.879V32.8653ZM90.482 30.879C90.482 30.3791 90.4278 29.96 90.3063 29.6358C90.1848 29.2979 90.009 29.0413 89.8063 28.8386C89.59 28.6495 89.3333 28.5143 89.0497 28.4331C88.7525 28.3656 88.4416 28.3249 88.1037 28.3249C87.8471 28.3249 87.6307 28.3249 87.455 28.3386C87.2795 28.3522 87.1174 28.3522 86.9686 28.3655V35.3921C87.1174 35.4057 87.2795 35.4057 87.455 35.419C87.6307 35.4327 87.8471 35.4327 88.1037 35.4327C88.4416 35.4327 88.7525 35.3921 89.0497 35.3112C89.3333 35.2436 89.59 35.1085 89.8063 34.9057C90.009 34.7167 90.1848 34.4597 90.3063 34.1218C90.4278 33.7976 90.482 33.3789 90.482 32.8789V30.879ZM101.468 33.1762C101.468 33.8922 101.373 34.5003 101.197 34.9866C101.008 35.4733 100.751 35.8651 100.427 36.1623C100.089 36.4596 99.6975 36.6759 99.2514 36.7974C98.7921 36.9326 98.2921 37.0001 97.7515 37.0001C97.2113 37.0001 96.7113 36.9326 96.2653 36.7974C95.8059 36.6759 95.4141 36.4596 95.0896 36.1623C94.7517 35.8651 94.4951 35.4733 94.3193 34.9866C94.1303 34.5003 94.0357 33.8922 94.0357 33.1762V27.109C94.0357 27.0414 94.0627 26.9738 94.117 26.9199C94.1709 26.8793 94.2384 26.8523 94.306 26.8523H95.6438C95.7114 26.8523 95.779 26.8793 95.8329 26.9199C95.8868 26.9738 95.9141 27.0414 95.9141 27.109V33.1895C95.9141 33.5679 95.9411 33.9058 95.995 34.1894C96.0492 34.4733 96.1438 34.7167 96.2922 34.9057C96.4274 35.0948 96.6165 35.23 96.8465 35.3245C97.0761 35.419 97.3867 35.4596 97.7515 35.4596C98.1167 35.4596 98.4139 35.419 98.6569 35.3245C98.8866 35.23 99.076 35.0948 99.2245 34.9057C99.3596 34.7167 99.4541 34.4733 99.5084 34.1894C99.5623 33.9058 99.5893 33.5679 99.5893 33.1895V27.109C99.5893 27.0414 99.6166 26.9738 99.6705 26.9199C99.7244 26.8793 99.792 26.8523 99.8596 26.8523H101.197C101.265 26.8523 101.333 26.8793 101.386 26.9199C101.441 26.9738 101.468 27.0414 101.468 27.109V33.1762ZM109.4 36.4732C109.4 36.5678 109.373 36.6353 109.318 36.6759C109.264 36.7165 109.197 36.7568 109.102 36.7841C109.048 36.7974 108.953 36.8244 108.832 36.838C108.697 36.865 108.535 36.892 108.346 36.9189C108.156 36.9326 107.94 36.9595 107.711 36.9732C107.481 36.9865 107.224 37.0001 106.967 37.0001C106.562 37.0001 106.129 36.9462 105.683 36.8244C105.238 36.7029 104.819 36.4865 104.454 36.176C104.076 35.8651 103.778 35.4463 103.521 34.9191C103.278 34.3921 103.157 33.7031 103.157 32.8653V30.879C103.157 30.0276 103.278 29.3385 103.521 28.7979C103.778 28.271 104.076 27.8523 104.454 27.5414C104.819 27.2305 105.238 27.0278 105.683 26.9063C106.129 26.7981 106.562 26.7441 106.967 26.7441C107.224 26.7441 107.481 26.7575 107.711 26.7711C107.94 26.7848 108.156 26.8117 108.346 26.825C108.535 26.8523 108.697 26.8793 108.832 26.9063C108.953 26.9332 109.048 26.9469 109.102 26.9602C109.197 26.9871 109.264 27.0144 109.318 27.0547C109.373 27.0953 109.4 27.1765 109.4 27.2711V28.1765C109.4 28.2574 109.386 28.3249 109.345 28.3792C109.305 28.4331 109.224 28.4601 109.129 28.4601H109.102C108.98 28.4468 108.845 28.4331 108.683 28.4195C108.508 28.4062 108.332 28.4062 108.143 28.3925C107.954 28.3792 107.764 28.3792 107.562 28.3655C107.359 28.3522 107.17 28.3522 106.994 28.3522C106.711 28.3522 106.44 28.3925 106.211 28.4737C105.967 28.5683 105.765 28.7034 105.589 28.8925C105.413 29.0952 105.278 29.3522 105.183 29.6764C105.089 30.0006 105.035 30.406 105.035 30.879V32.8653C105.035 33.3383 105.089 33.73 105.183 34.0543C105.278 34.3788 105.413 34.6355 105.589 34.8382C105.765 35.0409 105.967 35.176 106.211 35.2569C106.44 35.3515 106.711 35.3921 106.994 35.3921C107.17 35.3921 107.359 35.3921 107.562 35.3787C107.764 35.3651 107.954 35.3651 108.143 35.3515C108.332 35.3381 108.508 35.3245 108.683 35.3112C108.845 35.2975 108.98 35.2975 109.102 35.2839H109.129C109.224 35.2839 109.305 35.3112 109.345 35.3651C109.386 35.419 109.4 35.4866 109.4 35.5678V36.4732ZM117.507 28.1765C117.507 28.244 117.48 28.3116 117.426 28.3522C117.372 28.3925 117.304 28.4195 117.237 28.4195H114.872V36.6217C114.872 36.6892 114.845 36.7568 114.791 36.8111C114.737 36.865 114.669 36.892 114.602 36.892H113.264C113.197 36.892 113.129 36.865 113.075 36.8111C113.021 36.7568 112.994 36.6892 112.994 36.6217V28.4195H110.629C110.562 28.4195 110.494 28.3925 110.44 28.3522C110.386 28.3116 110.359 28.244 110.359 28.1765V27.109C110.359 27.0414 110.386 26.9738 110.44 26.9199C110.494 26.8793 110.562 26.8523 110.629 26.8523H117.237C117.304 26.8523 117.372 26.8793 117.426 26.9199C117.48 26.9738 117.507 27.0414 117.507 27.109V28.1765ZM120.737 36.6217C120.737 36.6892 120.709 36.7568 120.655 36.8111C120.602 36.865 120.534 36.892 120.466 36.892H119.129C119.061 36.892 118.993 36.865 118.939 36.8111C118.885 36.7568 118.858 36.6892 118.858 36.6217V27.109C118.858 27.0414 118.885 26.9738 118.939 26.9199C118.993 26.8793 119.061 26.8523 119.129 26.8523H120.466C120.534 26.8523 120.602 26.8793 120.655 26.9199C120.709 26.9738 120.737 27.0414 120.737 27.109V36.6217ZM130.182 32.7844C130.182 33.5273 130.087 34.1761 129.898 34.703C129.695 35.23 129.438 35.6624 129.087 36.0002C128.749 36.3381 128.344 36.5947 127.871 36.7568C127.412 36.9189 126.898 37.0001 126.344 37.0001C125.777 37.0001 125.263 36.9189 124.804 36.7568C124.331 36.5947 123.926 36.3381 123.588 36.0002C123.25 35.6624 122.98 35.23 122.79 34.703C122.588 34.1761 122.493 33.5273 122.493 32.7844V30.9599C122.493 30.217 122.588 29.5818 122.79 29.0413C122.98 28.5143 123.25 28.0683 123.588 27.7304C123.926 27.3926 124.331 27.1496 124.804 26.9871C125.263 26.825 125.777 26.7441 126.344 26.7441C126.898 26.7441 127.412 26.825 127.871 26.9871C128.344 27.1496 128.749 27.3926 129.087 27.7304C129.438 28.0683 129.695 28.5143 129.898 29.0413C130.087 29.5818 130.182 30.217 130.182 30.9599V32.7844ZM128.303 30.9599C128.303 30.0545 128.141 29.4061 127.817 28.987C127.506 28.5819 127.006 28.3792 126.344 28.3792C125.669 28.3792 125.169 28.5819 124.858 28.987C124.534 29.4061 124.371 30.0545 124.371 30.9599V32.7844C124.371 33.6894 124.534 34.3382 124.858 34.7436C125.169 35.1624 125.669 35.3651 126.344 35.3651C127.006 35.3651 127.506 35.1624 127.817 34.7436C128.141 34.3382 128.303 33.6894 128.303 32.7844V30.9599ZM139.546 36.3517C139.546 36.5002 139.492 36.6353 139.397 36.7299C139.289 36.838 139.154 36.892 139.005 36.892H137.641C137.479 36.892 137.33 36.865 137.195 36.8244C137.046 36.7841 136.925 36.649 136.816 36.4056L133.817 29.8248C133.776 29.7573 133.735 29.717 133.695 29.717C133.655 29.717 133.628 29.7573 133.628 29.8248V36.6217C133.628 36.6892 133.6 36.7568 133.56 36.8111C133.506 36.865 133.438 36.892 133.371 36.892H132.222C132.155 36.892 132.087 36.865 132.033 36.8111C131.979 36.7568 131.952 36.6892 131.952 36.6217V27.3926C131.952 27.2441 132.006 27.109 132.114 27.0008C132.209 26.9063 132.344 26.8523 132.493 26.8523H133.952C134.1 26.8523 134.208 26.8793 134.303 26.9332C134.384 26.9871 134.465 27.109 134.546 27.2847L137.695 34.23C137.722 34.2976 137.762 34.3382 137.803 34.3382C137.843 34.3382 137.87 34.2976 137.87 34.2167V27.109C137.87 26.9332 137.952 26.8523 138.127 26.8523H139.289C139.465 26.8523 139.546 26.9332 139.546 27.109V36.3517Z" fill="#5C8EE6"/>
    </g>
    <defs>
    <clipPath id="clip0_278_1470">
    <rect width="140" height="44" fill="white"/>
    </clipPath>
    </defs>
</svg>