<svg width="60" height="68" viewBox="0 0 60 68" fill="none" xmlns="http://www.w3.org/2000/svg">
<g clip-path="url(#clip0_309_807)">
<g filter="url(#filter0_f_309_807)">
<path d="M30.51 56.523C30.5041 56.6516 30.4488 56.7729 30.3557 56.8618C30.2625 56.9506 30.1387 57.0001 30.01 57C29.72 57 29.5 56.79 29.49 56.523C29.345 53.355 27.734 51.306 24.658 50.376C14.53 47.968 7 38.863 7 28C7 15.297 17.297 5 30 5C42.703 5 53 15.297 53 28C53 38.863 45.47 47.968 35.342 50.376C32.266 51.306 30.655 53.356 30.512 56.523H30.51Z" fill="#FF3333"/>
</g>
<path d="M30.51 56.523C30.5041 56.6516 30.4488 56.7729 30.3557 56.8618C30.2625 56.9506 30.1387 57.0001 30.01 57C29.72 57 29.5 56.79 29.49 56.523C29.345 53.355 27.734 51.306 24.658 50.376C14.53 47.968 7 38.863 7 28C7 15.297 17.297 5 30 5C42.703 5 53 15.297 53 28C53 38.863 45.47 47.968 35.342 50.376C32.266 51.306 30.655 53.356 30.512 56.523H30.51Z" fill="#FF3333"/>
<path d="M30 68C27.79 68 26 66.21 26 64C26 61.79 27.79 60 30 60C32.21 60 34 61.79 34 64C34 66.21 32.21 68 30 68Z" fill="white"/>
<path fill-rule="evenodd" clip-rule="evenodd" d="M29.9997 66.0005C30.266 66.0065 30.5309 65.9592 30.7787 65.8615C31.0266 65.7638 31.2524 65.6175 31.4429 65.4313C31.6334 65.245 31.7848 65.0227 31.8882 64.7771C31.9916 64.5316 32.0449 64.2679 32.0449 64.0015C32.045 63.7351 31.9918 63.4713 31.8886 63.2258C31.7853 62.9802 31.634 62.7577 31.4436 62.5714C31.2532 62.3851 31.0274 62.2387 30.7797 62.1408C30.5319 62.043 30.267 61.9956 30.0007 62.0015C29.4781 62.013 28.9809 62.2287 28.6153 62.6023C28.2498 62.9759 28.0451 63.4778 28.0449 64.0005C28.0448 64.5232 28.2493 65.0251 28.6146 65.3989C28.98 65.7727 29.4772 65.9886 29.9997 66.0005V66.0005Z" fill="#FF3333"/>
<path fill-rule="evenodd" clip-rule="evenodd" d="M28 34.2V39H39.4C39.4788 39 39.5568 38.9845 39.6296 38.9543C39.7024 38.9242 39.7685 38.88 39.8243 38.8243C39.88 38.7685 39.9242 38.7024 39.9543 38.6296C39.9845 38.5568 40 38.4788 40 38.4V24.6C40 24.5212 39.9845 24.4432 39.9543 24.3704C39.9242 24.2976 39.88 24.2315 39.8243 24.1757C39.7685 24.12 39.7024 24.0758 39.6296 24.0457C39.5568 24.0155 39.4788 24 39.4 24H34.446L34.288 26H38V27H34.21L34.051 29H38V30H33.972L33.599 34.715C33.5966 34.7549 33.5863 34.7939 33.5687 34.8299C33.5512 34.8658 33.5267 34.8978 33.4966 34.9242C33.4666 34.9506 33.4317 34.9708 33.3938 34.9837C33.3559 34.9965 33.3159 35.0017 33.276 34.999C33.1996 34.9915 33.1289 34.9555 33.0778 34.8983C33.0266 34.8411 32.9989 34.7667 33 34.69V18.4C33 18.2939 32.9579 18.1922 32.8828 18.1172C32.8078 18.0421 32.7061 18 32.6 18H32V17.4C32 17.2939 31.9579 17.1922 31.8828 17.1172C31.8078 17.0421 31.7061 17 31.6 17H21.4C21.2939 17 21.1922 17.0421 21.1172 17.1172C21.0421 17.1922 21 17.2939 21 17.4V18H20.4C20.2939 18 20.1922 18.0421 20.1172 18.1172C20.0421 18.1922 20 18.2939 20 18.4V38.4C20 38.5591 20.0632 38.7117 20.1757 38.8243C20.2883 38.9368 20.4409 39 20.6 39H25V34.2C25 34.09 25.09 34 25.2 34H27.8C27.91 34 28 34.09 28 34.2ZM23.5 31V25H25.5V31H23.5ZM27.5 25V31H29.5V25H27.5ZM23.5 23V20H25.5V23H23.5ZM27.5 20V23H29.5V20H27.5ZM35 33V32H38V33H35Z" fill="white"/>
</g>
<defs>
<filter id="filter0_f_309_807" x="1" y="-1" width="58" height="64" filterUnits="userSpaceOnUse" color-interpolation-filters="sRGB">
<feFlood flood-opacity="0" result="BackgroundImageFix"/>
<feBlend mode="normal" in="SourceGraphic" in2="BackgroundImageFix" result="shape"/>
<feGaussianBlur stdDeviation="3" result="effect1_foregroundBlur_309_807"/>
</filter>
<clipPath id="clip0_309_807">
<rect width="60" height="68" fill="white"/>
</clipPath>
</defs>
</svg>
