<?xml version="1.0" encoding="utf-8"?>
<svg xmlns="http://www.w3.org/2000/svg" xmlns:xlink="http://www.w3.org/1999/xlink">

    <symbol viewBox="0 0 10 6" id="arrow">
        <g fill="transparent" xmlns="http://www.w3.org/2000/svg">
            <path d="M1 1L5 5L9 1" />
        </g>
    </symbol>

    <symbol viewBox="0 0 16 17" id="phoneIcon">
        <g fill="5C8EE6" xmlns="http://www.w3.org/2000/svg">
            <path d="M15.9688 12.0822L15.2188 15.2384C15.125 15.7072 14.75 16.0197 14.2812 16.0197C6.40625 15.9884 0 9.58218 0 1.70718C0 1.23843 0.28125 0.86343 0.75 0.76968L3.90625 0.0196803C4.34375 -0.0740697 4.8125 0.17593 5 0.58218L6.46875 3.98843C6.625 4.39468 6.53125 4.86343 6.1875 5.11343L4.5 6.48843C5.5625 8.64468 7.3125 10.3947 9.5 11.4572L10.875 9.76968C11.125 9.45718 11.5938 9.33218 12 9.48843L15.4062 10.9572C15.8125 11.1759 16.0625 11.6447 15.9688 12.0822Z"/>
        </g>
    </symbol>

    <symbol viewBox="0 0 21 28" id="timeIcon">
        <g fill="#5C8EE6" xmlns="http://www.w3.org/2000/svg">
            <path d="M20.125 1.75H20.3438C20.6719 1.75 21 1.47656 21 1.09375V0.65625C21 0.328125 20.6719 0 20.3438 0H0.65625C0.273438 0 0 0.328125 0 0.65625V1.09375C0 1.47656 0.273438 1.75 0.65625 1.75H0.875C0.875 6.78125 3.28125 12.3594 7.92969 14C3.22656 15.6953 0.875 21.2734 0.875 26.25H0.65625C0.273438 26.25 0 26.5781 0 26.9062V27.3438C0 27.7266 0.273438 28 0.65625 28H20.3438C20.6719 28 21 27.7266 21 27.3438V26.9062C21 26.5781 20.6719 26.25 20.3438 26.25H20.125C20.125 21.2734 17.6641 15.6953 13.0156 14C17.7188 12.3594 20.125 6.78125 20.125 1.75ZM2.625 1.75H18.375C18.375 7.82031 14.8203 12.6875 10.5 12.6875C6.125 12.6875 2.625 7.82031 2.625 1.75ZM18.375 26.25H2.625C2.625 20.2344 6.125 15.3125 10.5 15.3125C14.8203 15.3125 18.375 20.2344 18.375 26.25ZM14.7109 8.03906C15.0391 7.65625 14.7109 7 14.1641 7H6.78125C6.23438 7 5.90625 7.65625 6.23438 8.03906C6.34375 8.20312 6.45312 8.36719 6.61719 8.53125C6.72656 8.69531 6.89062 8.75 7.10938 8.75H13.8359C14.0547 8.75 14.2188 8.69531 14.3281 8.53125C14.4922 8.36719 14.6016 8.20312 14.7109 8.03906ZM5.35938 22.75C5.03125 22.75 4.8125 22.9688 4.70312 23.2422C4.70312 23.4062 4.64844 23.5703 4.59375 23.7344C4.53906 24.1172 4.8125 24.5 5.25 24.5H15.6953C16.1328 24.5 16.4062 24.1172 16.3516 23.7344C16.2969 23.5703 16.2422 23.4062 16.2422 23.2422C16.1328 22.9688 15.9141 22.75 15.5859 22.75H5.35938Z" />
        </g>
    </symbol>

    <symbol viewBox="0 0 29 29" id="certificateIcon">
        <g fill="#5C8EE6" xmlns="http://www.w3.org/2000/svg">
            <path d="M27.2216 5.35938L22.6825 0.820312C22.1903 0.328125 21.4794 0 20.8232 0H9.66691C8.19035 0.0546875 7.04191 1.20312 7.04191 2.67969V9.07812C6.71379 9.07812 6.38566 9.02344 5.67473 8.80469C5.62004 8.80469 5.51066 8.80469 5.40129 8.80469C5.12785 8.80469 4.85441 8.91406 4.69035 9.07812C3.70598 10.1172 3.76066 10.0625 2.39348 10.4453C2.01066 10.5547 1.73723 10.8281 1.62785 11.2109C1.29973 12.5781 1.29973 12.5234 0.31535 13.5078C0.0419129 13.7812 -0.0674621 14.2188 0.0419129 14.6016C0.424725 15.9141 0.424725 15.9141 0.0419129 17.2266C-0.0674621 17.6094 0.0419129 18.0469 0.31535 18.3203C1.29973 19.3047 1.29973 19.3047 1.62785 20.6172C1.73723 21 2.01066 21.2734 2.39348 21.3828C2.50285 21.4375 2.55754 21.4375 2.66691 21.4375V27.125C2.66691 27.4531 2.77629 27.7266 3.04973 27.8906C3.32316 28.0547 3.65129 28.0547 3.92473 27.9453L7.04191 26.3594L10.1044 27.9453C10.2685 28 10.3779 28 10.5419 28H25.4169C26.8388 28 28.0419 26.8516 28.0419 25.4297V7.21875C28.0419 6.5625 27.7138 5.85156 27.2216 5.35938ZM21.0419 1.80469C21.1513 1.85938 21.3153 1.91406 21.4247 2.02344L26.0185 6.61719C26.1278 6.72656 26.1825 6.89062 26.2372 7.05469H21.0419V1.80469ZM1.8466 17.3359C2.12004 16.1328 2.12004 15.6953 1.8466 14.4922C2.66691 13.6172 2.88566 13.2344 3.21379 12.0312C4.41691 11.7031 4.74504 11.4844 5.62004 10.6094C6.16691 10.7734 6.54973 10.8281 7.04191 10.8281C7.47941 10.8281 7.86223 10.7734 8.4091 10.6094C9.22941 11.4844 9.61223 11.7031 10.8154 12.0312C11.1435 13.2344 11.3075 13.5625 12.1825 14.4922C11.8544 15.6953 11.8544 16.1328 12.1825 17.3359C11.3622 18.2109 11.1435 18.5938 10.8154 19.7969C9.99504 20.0156 9.50285 20.1797 8.73723 20.8359C8.19035 20.6172 7.64348 20.5078 7.04191 20.5078C6.38566 20.5078 5.83879 20.6172 5.29191 20.8906C4.52629 20.2344 4.0341 20.0156 3.21379 19.7969C2.88566 18.5938 2.7216 18.2656 1.8466 17.3359ZM7.42473 24.6094C7.15129 24.5 6.87785 24.5 6.60441 24.6094L4.41691 25.7578V22.4219C4.41691 22.4766 4.41691 22.4766 4.41691 22.4766C4.63566 22.6953 4.9091 22.75 5.12785 22.75C5.3466 22.75 5.51066 22.6953 5.72941 22.6406C6.11223 22.3672 6.54973 22.2578 7.04191 22.2578C7.47941 22.2578 7.91691 22.3672 8.29973 22.5859C8.51848 22.75 8.68254 22.75 8.90129 22.75C9.17473 22.75 9.39348 22.6953 9.61223 22.4766C9.61223 22.4766 9.61223 22.4766 9.66691 22.4219V25.7578L7.42473 24.6094ZM26.2919 25.4297C26.2919 25.8672 25.8544 26.3047 25.4169 26.3047H11.4169V21.4375C11.4716 21.4375 11.5263 21.4375 11.6357 21.3828C12.0185 21.2734 12.2919 21 12.4013 20.6172C12.7294 19.25 12.7294 19.3047 13.7138 18.3203C13.9872 18.0469 14.0966 17.6094 13.9872 17.2266C13.6044 15.9141 13.6044 15.9141 13.9872 14.6016C14.0966 14.2188 13.9872 13.7812 13.7138 13.5078C12.7294 12.5234 12.7294 12.5234 12.4013 11.2109C12.2919 10.8281 12.0185 10.5547 11.6357 10.4453C10.3232 10.0625 10.3232 10.1172 9.33879 9.07812C9.17473 8.91406 8.95598 8.85938 8.79191 8.80469V2.67969C8.79191 2.1875 9.17473 1.75 9.66691 1.75H19.2919V7.49219C19.2919 8.20312 19.8388 8.75 20.6044 8.75H26.2919V25.4297Z" />
        </g>
    </symbol>

    <symbol viewBox="0 0 25 28" id="workerIcon">
        <g fill="#5C8EE6" xmlns="http://www.w3.org/2000/svg">
            <path d="M17.1172 19.25C15.5312 19.25 14.8203 20.125 12.25 20.125C9.625 20.125 8.91406 19.25 7.32812 19.25C3.28125 19.25 0 22.5859 0 26.6328C0 27.3984 0.601562 28 1.36719 28H23.0781C23.8438 28 24.5 27.3984 24.5 26.6328C24.5 22.5859 21.1641 19.25 17.1172 19.25ZM1.75 26.25C1.91406 23.3516 4.375 21.0547 7.32812 21C8.42188 21 9.46094 21.875 12.25 21.875C15.0391 21.875 16.0234 21 17.1172 21C20.0703 21.0547 22.5312 23.3516 22.6953 26.25H1.75ZM4.8125 8.75H5.46875C5.30469 9.35156 5.25 9.89844 5.25 10.5C5.25 14.3828 8.36719 17.5 12.25 17.5C16.0781 17.5 19.25 14.3828 19.25 10.5C19.1953 9.89844 19.1406 9.35156 18.9766 8.75H19.6875C19.9062 8.75 20.125 8.58594 20.125 8.3125V7.4375C20.125 7.21875 19.9062 7 19.6875 7H19.25C19.25 4.21094 17.3359 1.85938 14.7109 1.14844C14.4922 0.492188 13.8359 0.0546875 13.125 0H11.375C10.6094 0.0546875 9.95312 0.492188 9.73438 1.14844C7.16406 1.85938 5.25 4.21094 5.25 7H4.8125C4.53906 7 4.375 7.21875 4.375 7.4375V8.3125C4.375 8.58594 4.53906 8.75 4.8125 8.75ZM14.875 3.00781C16.4062 3.71875 17.4453 5.25 17.5 7H14.875V3.00781ZM11.375 1.75H13.125V7H11.375V1.75ZM7 7C7 5.25 8.03906 3.71875 9.625 3.00781V7H7ZM7.32812 8.75H17.1719C17.3359 9.29688 17.4453 9.89844 17.5 10.5C17.5 13.3984 15.0938 15.75 12.25 15.75C9.35156 15.75 7 13.3984 7 10.5C7 9.89844 7.10938 9.29688 7.32812 8.75Z" />
        </g>
    </symbol>

    <symbol viewBox="0 0 36 36" id="truckIcon">
        <g fill="#5C8EE6" xmlns="http://www.w3.org/2000/svg">
            <path d="M1.75 21.5H20.125C21.0547 21.5 21.875 20.7344 21.875 19.75V7.5C21.875 6.57031 21.0547 5.75 20.125 5.75H1.75C0.765625 5.75 0 6.57031 0 7.5V19.75C0 20.7344 0.765625 21.5 1.75 21.5ZM1.75 7.5H20.125V19.75H1.75V7.5ZM33.9609 15.2656L30.7344 12.0391C30.0781 11.3828 29.2031 11.0547 28.2734 11.0547H24.5C24.0078 11.0547 23.625 11.4375 23.625 11.9297V23.3047H12.4688C11.8125 22.7578 10.9922 22.4297 10.0625 22.4297C8.80469 22.4297 7.71094 22.9766 7 23.9062C6.23438 22.9766 5.14062 22.375 3.9375 22.375C1.75 22.375 0 24.1797 0 26.3125C0 28.5 1.75 30.25 3.9375 30.25C5.14062 30.25 6.23438 29.7031 7 28.7734C7.71094 29.7031 8.80469 30.25 10.0625 30.25C12.1953 30.25 14 28.5 14 26.3125C14 25.875 13.8906 25.4375 13.7266 25H24.5547C24.3906 25.7656 24.4453 26.5312 24.7188 27.3516C25.1562 28.7188 26.3594 29.8125 27.7812 30.1406C30.625 30.8516 33.25 28.6641 33.25 25.875C33.25 25.6016 33.1953 25.3281 33.1406 25H34.125C34.5625 25 35 24.6172 35 24.125V17.7266C35 16.7969 34.6172 15.9219 33.9609 15.2656ZM3.9375 28.5C2.67969 28.5 1.75 27.5703 1.75 26.3125C1.75 25.1094 2.67969 24.125 3.9375 24.125C5.14062 24.125 6.125 25.1094 6.125 26.3125C6.125 27.5703 5.14062 28.5 3.9375 28.5ZM10.0625 28.5C8.80469 28.5 7.875 27.5703 7.875 26.3125C7.875 25.1094 8.80469 24.125 10.0625 24.125C11.2656 24.125 12.25 25.1094 12.25 26.3125C12.25 27.5703 11.2656 28.5 10.0625 28.5ZM25.375 12.75H28.2734C28.7656 12.75 29.2031 12.9688 29.5312 13.2969L32.4844 16.25H25.375V12.75ZM28.875 28.5C27.3984 28.5 26.25 27.3516 26.25 25.875C26.25 24.4531 27.3984 23.25 28.875 23.25C30.2969 23.25 31.5 24.4531 31.5 25.875C31.5 27.3516 30.2969 28.5 28.875 28.5ZM33.25 23.25H32.3203C31.5547 22.2109 30.2969 21.5 28.875 21.5C27.3984 21.5 26.1953 22.2109 25.375 23.25V18H33.25V23.25ZM5.6875 18H6.5625C6.78125 18 7 17.8359 7 17.5625V9.6875C7 9.46875 6.78125 9.25 6.5625 9.25H5.6875C5.41406 9.25 5.25 9.46875 5.25 9.6875V17.5625C5.25 17.8359 5.41406 18 5.6875 18ZM10.9375 18H11.8125C12.0312 18 12.25 17.8359 12.25 17.5625V9.6875C12.25 9.46875 12.0312 9.25 11.8125 9.25H10.9375C10.6641 9.25 10.5 9.46875 10.5 9.6875V17.5625C10.5 17.8359 10.6641 18 10.9375 18ZM16.1875 18H17.0625C17.2812 18 17.5 17.8359 17.5 17.5625V9.6875C17.5 9.46875 17.2812 9.25 17.0625 9.25H16.1875C15.9141 9.25 15.75 9.46875 15.75 9.6875V17.5625C15.75 17.8359 15.9141 18 16.1875 18Z" />
        </g>
    </symbol>

    <symbol viewBox="0 0 36 36" id="speedometerIcon">
        <g xmlns="http://www.w3.org/2000/svg">
            <path d="M11.625 13.875C10.6406 13.875 9.875 14.6953 9.875 15.625C9.875 16.6094 10.6406 17.375 11.625 17.375C12.5547 17.375 13.375 16.6094 13.375 15.625C13.375 14.6953 12.5547 13.875 11.625 13.875ZM17.75 6C9.05469 6 2 13.0547 2 21.75C2 24.6484 2.76562 27.3828 4.13281 29.6797C4.40625 30.2266 5.00781 30.5547 5.60938 30.5547H29.8359C30.4375 30.5547 31.0391 30.2266 31.3672 29.6797C32.6797 27.3828 33.5 24.6484 33.5 21.75C33.5 13.0547 26.4453 6 17.75 6ZM17.75 27.875C16.4922 27.875 15.5625 26.9453 15.5625 25.6875C15.5625 24.4844 16.4922 23.5 17.75 23.5C18.9531 23.5 19.9375 24.4844 19.9375 25.6875C19.9375 26.9453 18.9531 27.875 17.75 27.875ZM29.3438 27.875H22.0156C22.3438 27.2188 22.5625 26.5078 22.5625 25.6875C22.5625 25.3594 22.5078 25.0312 22.3984 24.7031L27.4297 22.5703C28.0859 22.2422 28.4141 21.4766 28.1406 20.8203C27.8125 20.1641 27.0469 19.8359 26.3906 20.1094L21.1953 22.3516C20.3203 21.4766 19.0625 20.875 17.75 20.875C15.0703 20.875 12.9375 23.0625 12.9375 25.6875C12.9375 26.5078 13.1016 27.2188 13.4844 27.875H6.10156C5.11719 26.0156 4.625 23.9375 4.625 21.75C4.625 14.5312 10.4766 8.625 17.75 8.625C24.9688 8.625 30.875 14.5312 30.875 21.75C30.875 23.9375 30.3281 26.0156 29.3438 27.875ZM9 20C8.01562 20 7.25 20.8203 7.25 21.75C7.25 22.7344 8.01562 23.5 9 23.5C9.92969 23.5 10.75 22.7344 10.75 21.75C10.75 20.8203 9.92969 20 9 20ZM17.75 11.25C16.7656 11.25 16 12.0703 16 13C16 13.9844 16.7656 14.75 17.75 14.75C18.6797 14.75 19.5 13.9844 19.5 13C19.5 12.0703 18.6797 11.25 17.75 11.25ZM23.875 13.875C22.8906 13.875 22.125 14.6953 22.125 15.625C22.125 16.6094 22.8906 17.375 23.875 17.375C24.8047 17.375 25.625 16.6094 25.625 15.625C25.625 14.6953 24.8047 13.875 23.875 13.875Z" />
        </g>
    </symbol>

    <symbol viewBox="0 0 180 180" id="agTechLogo">
        <g xmlns="http://www.w3.org/2000/svg">
            <path d="M118.028 56.4162H104.453L101.002 50.8727L94.3273 40.5212L78.4889 65.1273L71.1919 76.5535L65.2525 85.8303L57.9556 97.2L51.9596 106.477L44.6626 117.903H31.1434L38.4404 106.477L44.3798 97.2L51.6768 85.8303L57.6162 76.5535L87.5394 30H101.115L107.733 40.3515L114.521 50.8727L118.028 56.4162Z" />
            <path d="M157.511 117.903H57.2202L65.3091 106.477L71.2485 97.2L78.5455 85.8303L84.5414 76.5535L91.8384 65.1273H123.685L130.982 76.5535H98.0606L92.1212 85.8303L84.8242 97.2L78.8848 106.477H136.638L130.699 97.2H96.5899L104.17 85.8303H136.921L144.275 97.2L150.214 106.477L157.511 117.903Z" />
            <path d="M39.8545 150.089L38.2141 147.147H29.2202L31.4263 143.018H36.0646L32.7838 136.853L25.7131 150.089H20L29.8424 132.271C30.3515 131.309 31.1434 130.857 32.1616 130.857H33.3495C34.3111 130.857 35.103 131.309 35.6121 132.271L45.4545 150.089H39.8545Z" />
            <path d="M54.901 150.089C53.4303 150.089 52.0727 149.863 50.8283 149.41C49.5838 148.958 48.5091 148.279 47.604 147.43C46.699 146.638 45.9636 145.62 45.4545 144.432C44.9455 143.244 44.7192 141.943 44.7192 140.473C44.7192 139.059 44.9455 137.701 45.4545 136.57C45.9636 135.382 46.699 134.364 47.604 133.515C48.5091 132.667 49.5838 131.988 50.8283 131.535C52.0727 131.083 53.4303 130.857 54.901 130.857H65.196V135.778H54.5616C53.8828 135.778 53.2606 135.891 52.695 136.117C52.0727 136.343 51.6202 136.683 51.1677 137.079C50.7717 137.531 50.4323 137.984 50.2061 138.606C49.9798 139.172 49.8667 139.794 49.8667 140.473C49.8667 141.152 49.9798 141.774 50.2061 142.396C50.4323 142.962 50.7717 143.414 51.1677 143.81C51.6202 144.263 52.0727 144.545 52.695 144.772C53.2606 144.998 53.8828 145.111 54.5616 145.111H60.2747V142.509H54.0525V138.38H65.196V150.089H54.901Z" />
            <path d="M82.5051 150.089V135.778H75.3778V130.857H94.7232V135.778H87.6525V150.089H82.5051Z" />
            <path d="M103.887 142.509V138.38H115.257V142.509H103.887ZM96.9859 150.089V130.857H115.426V135.778H102.133V145.111H115.483V150.089H96.9859Z" />
            <path d="M128.097 150.089C126.57 150.089 125.212 149.863 123.968 149.41C122.723 148.958 121.648 148.279 120.8 147.43C119.895 146.638 119.16 145.62 118.651 144.432C118.141 143.244 117.859 141.943 117.859 140.473C117.859 139.059 118.141 137.701 118.651 136.57C119.16 135.382 119.895 134.364 120.8 133.515C121.648 132.667 122.723 131.988 123.968 131.535C125.212 131.083 126.57 130.857 128.097 130.857H137.487V135.778H127.701C127.022 135.778 126.4 135.891 125.834 136.117C125.269 136.343 124.76 136.683 124.364 137.079C123.968 137.531 123.628 137.984 123.402 138.606C123.176 139.172 123.063 139.794 123.063 140.473C123.063 141.152 123.176 141.774 123.402 142.396C123.628 142.962 123.968 143.414 124.364 143.81C124.76 144.263 125.269 144.545 125.834 144.772C126.4 144.998 127.022 145.111 127.701 145.111H137.487V150.089H128.097Z" />
            <path d="M154.853 150.089V142.622H147.329V137.927H154.853V130.857H160V150.089H154.853ZM140.372 150.089V130.857H145.576V150.089H140.372Z" />
        </g>
    </symbol>

    <symbol viewBox="0 0 180 180" id="alianceLogo">
        <g xmlns="http://www.w3.org/2000/svg">
            <path d="M55.1146 141.929C55.1146 142.074 55.0664 142.18 54.9796 142.257C54.8929 142.343 54.7772 142.382 54.6327 142.382H51.828C51.7027 142.382 51.5967 142.334 51.51 142.247C51.4232 142.16 51.3558 142.054 51.3269 141.929L50.1028 136.898H44.0117L42.7877 141.929C42.7588 142.054 42.6913 142.16 42.6046 142.247C42.5178 142.334 42.4118 142.382 42.2865 142.382H39.4819C39.3373 142.382 39.2217 142.343 39.1349 142.257C39.0482 142.18 39 142.074 39 141.929C39 141.91 39.0096 141.89 39.0096 141.881C39.0193 141.861 39.0289 141.833 39.0289 141.794L43.3756 125.178C43.5298 124.561 43.7611 124.08 44.0599 123.723C44.3587 123.376 44.6864 123.106 45.0333 122.913C45.3706 122.73 45.7272 122.615 46.0935 122.557C46.4501 122.509 46.7778 122.48 47.0573 122.48C47.3368 122.48 47.6645 122.509 48.0211 122.557C48.3873 122.615 48.7439 122.73 49.0812 122.913C49.4282 123.106 49.7462 123.376 50.0547 123.723C50.3534 124.08 50.5847 124.561 50.7389 125.178L55.0856 141.794C55.0856 141.833 55.0953 141.861 55.0953 141.881C55.1049 141.89 55.1146 141.91 55.1146 141.929ZM47.4813 126.007C47.4428 125.843 47.4042 125.737 47.3464 125.67C47.2982 125.612 47.2018 125.583 47.0573 125.583C46.9127 125.583 46.8163 125.612 46.7681 125.67C46.7103 125.737 46.6718 125.843 46.6332 126.007L44.7249 133.872H49.3896L47.4813 126.007Z" />
            <path d="M68.2317 141.669C68.2317 141.861 68.1932 141.996 68.1161 142.064C68.0293 142.131 67.8944 142.189 67.7016 142.218C67.5089 142.276 67.2294 142.324 66.8631 142.363C66.5065 142.411 66.1114 142.449 65.6873 142.488C65.2633 142.526 64.8295 142.546 64.3862 142.565C63.9429 142.584 63.5477 142.594 63.1911 142.594C62.3333 142.594 61.5237 142.526 60.7816 142.382C60.0395 142.237 59.3938 141.967 58.8541 141.572C58.3047 141.177 57.871 140.618 57.5529 139.915C57.2349 139.211 57.071 138.295 57.071 137.158V123.222C57.071 123.077 57.1289 122.952 57.2349 122.846C57.3409 122.74 57.4662 122.692 57.6011 122.692H60.2226C60.3672 122.692 60.4925 122.74 60.5985 122.846C60.7045 122.952 60.7624 123.077 60.7624 123.222V137.158C60.7624 138.045 60.9069 138.642 61.2057 138.96C61.5045 139.279 62.0442 139.442 62.8249 139.442H67.7016C67.8462 139.442 67.9619 139.491 68.0679 139.597C68.1739 139.703 68.2317 139.828 68.2317 139.972V141.669Z" />
            <path d="M74.4289 141.852C74.4289 141.996 74.3807 142.112 74.2747 142.218C74.1687 142.324 74.0434 142.382 73.8988 142.382H71.2773C71.1327 142.382 71.0171 142.324 70.9111 142.218C70.805 142.112 70.7472 141.996 70.7472 141.852V123.193C70.7472 123.058 70.805 122.933 70.9111 122.836C71.0171 122.74 71.1327 122.692 71.2773 122.692H73.8988C74.0434 122.692 74.1687 122.74 74.2747 122.836C74.3807 122.933 74.4289 123.058 74.4289 123.193V141.852Z" />
            <path d="M93.03 141.929C93.03 142.074 92.9915 142.18 92.9047 142.257C92.818 142.343 92.7023 142.382 92.5578 142.382H89.7435C89.6278 142.382 89.5218 142.334 89.4351 142.247C89.3387 142.16 89.2809 142.054 89.2423 141.929L88.0279 136.898H81.9272L80.7128 141.929C80.6742 142.054 80.6164 142.16 80.5297 142.247C80.4333 142.334 80.3273 142.382 80.2116 142.382H77.3974C77.2624 142.382 77.1468 142.343 77.0504 142.257C76.9636 142.18 76.9251 142.074 76.9251 141.929C76.9251 141.91 76.9251 141.89 76.9347 141.881C76.9444 141.861 76.9444 141.833 76.9444 141.794L81.2911 125.178C81.4549 124.561 81.6862 124.08 81.985 123.723C82.2838 123.376 82.6018 123.106 82.9488 122.913C83.2957 122.73 83.6523 122.615 84.0089 122.557C84.3752 122.509 84.6932 122.48 84.9824 122.48C85.2619 122.48 85.5799 122.509 85.9462 122.557C86.3124 122.615 86.6594 122.73 87.0063 122.913C87.3533 123.106 87.6713 123.376 87.9701 123.723C88.2689 124.08 88.5002 124.561 88.664 125.178L93.0107 141.794C93.0107 141.833 93.0107 141.861 93.0204 141.881C93.03 141.89 93.03 141.91 93.03 141.929ZM85.4064 126.007C85.3679 125.843 85.3197 125.737 85.2715 125.67C85.2137 125.612 85.1173 125.583 84.9824 125.583C84.8378 125.583 84.7414 125.612 84.6836 125.67C84.6354 125.737 84.5872 125.843 84.5583 126.007L82.65 133.872H87.3147L85.4064 126.007Z" />
            <path d="M110.417 141.322C110.417 141.621 110.32 141.871 110.118 142.074C109.906 142.276 109.655 142.382 109.357 142.382H106.677C106.369 142.382 106.07 142.343 105.791 142.257C105.521 142.18 105.28 141.9 105.068 141.428L99.179 128.523C99.1115 128.378 99.0344 128.311 98.9477 128.311C98.8513 128.311 98.8127 128.378 98.8127 128.523V141.852C98.8127 141.996 98.7646 142.112 98.6682 142.218C98.5718 142.324 98.4465 142.382 98.3116 142.382H96.0563C95.9117 142.382 95.7864 142.324 95.6804 142.218C95.5744 142.112 95.5262 141.996 95.5262 141.852V123.752C95.5262 123.453 95.6226 123.203 95.8346 123C96.037 122.798 96.2876 122.692 96.5864 122.692H99.4488C99.7283 122.692 99.9597 122.74 100.123 122.846C100.287 122.952 100.451 123.183 100.615 123.54L106.783 137.158C106.841 137.303 106.909 137.37 106.995 137.37C107.092 137.37 107.13 137.293 107.13 137.129V123.193C107.13 122.856 107.304 122.692 107.631 122.692H109.916C110.253 122.692 110.417 122.856 110.417 123.193V141.322Z" />
            <path d="M126.107 141.563C126.107 141.755 126.049 141.89 125.943 141.967C125.837 142.054 125.702 142.112 125.519 142.17C125.413 142.208 125.24 142.247 124.98 142.286C124.719 142.334 124.411 142.372 124.035 142.42C123.669 142.469 123.254 142.507 122.792 142.536C122.339 142.575 121.847 142.594 121.336 142.594C120.546 142.594 119.698 142.478 118.821 142.247C117.934 142.016 117.134 141.601 116.402 140.994C115.669 140.377 115.072 139.558 114.59 138.507C114.108 137.467 113.867 136.127 113.867 134.488V130.585C113.867 128.927 114.108 127.568 114.59 126.518C115.072 125.467 115.669 124.639 116.402 124.041C117.134 123.443 117.934 123.029 118.821 122.807C119.698 122.586 120.546 122.48 121.336 122.48C121.847 122.48 122.339 122.499 122.792 122.528C123.254 122.566 123.669 122.605 124.035 122.653C124.411 122.692 124.719 122.74 124.98 122.798C125.24 122.846 125.413 122.884 125.519 122.904C125.702 122.952 125.837 123.019 125.943 123.106C126.049 123.183 126.107 123.318 126.107 123.511V125.284C126.107 125.448 126.069 125.583 125.992 125.689C125.905 125.795 125.77 125.843 125.577 125.843H125.519C125.298 125.824 125.018 125.805 124.69 125.776C124.363 125.757 124.016 125.728 123.64 125.708C123.274 125.699 122.888 125.679 122.503 125.66C122.117 125.641 121.741 125.631 121.385 125.631C120.826 125.631 120.305 125.718 119.843 125.882C119.37 126.055 118.966 126.325 118.638 126.711C118.301 127.087 118.031 127.597 117.838 128.233C117.645 128.87 117.549 129.65 117.549 130.585V134.488C117.549 135.404 117.645 136.175 117.838 136.811C118.031 137.447 118.301 137.968 118.638 138.353C118.966 138.739 119.37 139.018 119.843 139.192C120.305 139.356 120.826 139.442 121.385 139.442C121.741 139.442 122.117 139.433 122.503 139.413C122.888 139.394 123.274 139.375 123.64 139.356C124.016 139.346 124.363 139.317 124.69 139.298C125.018 139.269 125.298 139.25 125.519 139.23H125.577C125.77 139.23 125.905 139.279 125.992 139.385C126.069 139.491 126.107 139.625 126.107 139.78V141.563Z" />
            <path d="M141.027 141.669C141.027 141.861 140.988 141.996 140.911 142.064C140.824 142.131 140.689 142.189 140.497 142.218C140.285 142.257 140.053 142.295 139.793 142.343C139.533 142.382 139.215 142.42 138.839 142.459C138.463 142.498 138 142.526 137.461 142.555C136.921 142.584 136.256 142.594 135.456 142.594C134.598 142.594 133.789 142.526 133.047 142.382C132.304 142.237 131.649 141.967 131.1 141.572C130.55 141.177 130.117 140.618 129.799 139.915C129.471 139.211 129.317 138.295 129.317 137.158V127.915C129.317 126.778 129.471 125.863 129.799 125.159C130.117 124.446 130.55 123.896 131.1 123.501C131.649 123.106 132.304 122.836 133.047 122.692C133.789 122.547 134.598 122.48 135.456 122.48C136.256 122.48 136.921 122.489 137.461 122.518C138 122.547 138.463 122.576 138.839 122.615C139.215 122.644 139.533 122.692 139.793 122.73C140.053 122.778 140.285 122.817 140.497 122.846C140.689 122.884 140.824 122.942 140.911 123.01C140.988 123.077 141.027 123.212 141.027 123.405V125.101C141.027 125.246 140.969 125.371 140.863 125.477C140.757 125.583 140.641 125.631 140.497 125.631H135.09C134.309 125.631 133.769 125.795 133.461 126.113C133.153 126.431 132.998 127.029 132.998 127.915V130.778H140.179C140.323 130.778 140.439 130.826 140.545 130.932C140.651 131.038 140.709 131.163 140.709 131.308V133.216C140.709 133.351 140.651 133.477 140.545 133.583C140.439 133.689 140.323 133.746 140.179 133.746H132.998V137.158C132.998 138.045 133.153 138.642 133.461 138.96C133.769 139.279 134.309 139.442 135.09 139.442H140.497C140.641 139.442 140.757 139.491 140.863 139.597C140.969 139.703 141.027 139.828 141.027 139.972V141.669Z" />
            <path d="M48.8499 151.23C48.8499 151.972 48.715 152.598 48.4548 153.099C48.1849 153.61 47.8283 154.015 47.385 154.333C46.932 154.641 46.4212 154.853 45.8333 154.988C45.2454 155.114 44.6285 155.181 43.9732 155.181C43.7418 155.181 43.4816 155.171 43.1925 155.152C42.8937 155.143 42.6528 155.123 42.46 155.114V159.528C42.46 159.614 42.4311 159.692 42.3733 159.759C42.3058 159.827 42.2287 159.865 42.142 159.865H40.4553C40.3589 159.865 40.2818 159.827 40.2144 159.759C40.1469 159.692 40.1084 159.614 40.1084 159.528V147.895C40.1084 147.731 40.1565 147.606 40.2529 147.538C40.3493 147.461 40.4842 147.413 40.6577 147.394C41.0914 147.326 41.6022 147.268 42.1805 147.23C42.7588 147.191 43.3563 147.172 43.9732 147.172C44.6285 147.172 45.2454 147.23 45.8333 147.355C46.4212 147.48 46.9416 147.692 47.385 148.001C47.8283 148.3 48.1849 148.704 48.4548 149.206C48.715 149.707 48.8499 150.333 48.8499 151.075V151.23ZM46.4983 151.066C46.4983 150.352 46.2862 149.851 45.8622 149.553C45.4477 149.244 44.8116 149.1 43.9635 149.1C43.8768 149.1 43.7611 149.1 43.6165 149.109C43.4816 149.109 43.337 149.119 43.1925 149.128C43.0383 149.128 42.9033 149.138 42.7781 149.138C42.6431 149.148 42.5371 149.157 42.46 149.167V153.205C42.5275 153.205 42.6335 153.205 42.7781 153.215C42.913 153.215 43.0576 153.225 43.2118 153.234C43.366 153.234 43.5105 153.244 43.6551 153.244C43.79 153.253 43.896 153.253 43.9635 153.253C44.8791 153.253 45.5249 153.09 45.92 152.743C46.3055 152.405 46.4983 151.895 46.4983 151.22V151.066Z" />
            <path d="M59.8178 159.663C59.8178 159.798 59.7504 159.865 59.6154 159.865H57.5529C57.4662 159.865 57.3891 159.827 57.3505 159.759C57.3024 159.692 57.2542 159.614 57.2156 159.528L54.7772 155.027H54.5459C54.3146 155.027 54.064 155.017 53.7652 155.008C53.4761 154.988 53.2352 154.969 53.0424 154.959V159.528C53.0424 159.614 53.0039 159.692 52.946 159.759C52.8882 159.827 52.8111 159.865 52.7147 159.865H51.0281C50.9413 159.865 50.8642 159.827 50.7968 159.759C50.7293 159.692 50.6908 159.614 50.6908 159.528V147.895C50.6908 147.731 50.7389 147.606 50.8353 147.538C50.9317 147.461 51.0666 147.413 51.2305 147.394C51.6738 147.326 52.1846 147.268 52.7533 147.23C53.3315 147.191 53.9291 147.172 54.5556 147.172C55.2013 147.172 55.8278 147.239 56.4157 147.365C57.0036 147.5 57.5144 147.712 57.9577 148.001C58.4107 148.29 58.7673 148.685 59.0275 149.177C59.2974 149.668 59.4227 150.266 59.4227 150.989V151.143C59.4227 152.049 59.2203 152.772 58.8059 153.34C58.3914 153.899 57.8324 154.323 57.1289 154.593L59.7793 159.528C59.8082 159.557 59.8178 159.605 59.8178 159.663ZM57.0807 150.989C57.0807 150.352 56.8686 149.89 56.4446 149.61C56.0205 149.321 55.3844 149.186 54.5459 149.186C54.4495 149.186 54.3339 149.186 54.199 149.196C54.0544 149.196 53.9098 149.206 53.7652 149.206C53.6207 149.215 53.4857 149.215 53.3508 149.225C53.2255 149.234 53.1195 149.244 53.0424 149.254V153.051C53.1099 153.051 53.2159 153.051 53.3508 153.061C53.4954 153.07 53.64 153.07 53.7942 153.08C53.9484 153.08 54.0929 153.09 54.2279 153.099C54.3724 153.099 54.4785 153.099 54.5459 153.099C55.423 153.099 56.0687 152.964 56.4735 152.685C56.8783 152.396 57.0807 151.885 57.0807 151.143V150.989Z" />
            <path d="M70.6605 154.728C70.6605 155.663 70.5448 156.463 70.3039 157.128C70.0533 157.793 69.7256 158.333 69.3015 158.757C68.8678 159.181 68.3667 159.489 67.7787 159.692C67.1908 159.894 66.5547 160 65.8512 160C65.1572 160 64.5211 159.894 63.9332 159.692C63.3453 159.489 62.8441 159.181 62.4104 158.757C61.9864 158.333 61.6587 157.793 61.4081 157.128C61.1671 156.463 61.0515 155.663 61.0515 154.728V152.444C61.0515 151.519 61.1671 150.719 61.4081 150.054C61.6587 149.379 61.9864 148.839 62.4104 148.415C62.8441 147.991 63.3453 147.683 63.9332 147.48C64.5211 147.278 65.1572 147.172 65.8512 147.172C66.5547 147.172 67.1908 147.278 67.7787 147.48C68.3667 147.683 68.8678 147.991 69.3015 148.415C69.7256 148.839 70.0533 149.379 70.3039 150.054C70.5448 150.719 70.6605 151.519 70.6605 152.444V154.728ZM68.3185 152.444C68.3185 151.316 68.1161 150.497 67.7113 149.986C67.3161 149.475 66.6897 149.215 65.8512 149.215C65.0223 149.215 64.3958 149.475 64.0007 149.986C63.5959 150.497 63.3935 151.316 63.3935 152.444V154.728C63.3935 155.856 63.5959 156.675 64.0007 157.186C64.3958 157.697 65.0223 157.957 65.8512 157.957C66.6897 157.957 67.3161 157.697 67.7113 157.186C68.1161 156.675 68.3185 155.856 68.3185 154.728V152.444Z" />
            <path d="M81.9657 154.824C81.9657 156.501 81.5127 157.783 80.5875 158.67C79.6719 159.557 78.3611 160 76.6552 160C76.3468 160 76.0288 159.99 75.6914 159.981C75.3638 159.971 75.0361 159.952 74.7277 159.933C74.4192 159.904 74.1397 159.884 73.8892 159.865C73.6289 159.836 73.4362 159.817 73.3205 159.798C73.1663 159.769 73.0603 159.72 72.9832 159.643C72.9157 159.566 72.8772 159.441 72.8772 159.268V147.895C72.8772 147.731 72.9157 147.606 72.9832 147.529C73.0603 147.451 73.1663 147.394 73.3205 147.374C73.4362 147.355 73.6289 147.326 73.8892 147.307C74.1397 147.288 74.4192 147.259 74.7277 147.239C75.0361 147.22 75.3638 147.201 75.6914 147.191C76.0288 147.182 76.3468 147.172 76.6552 147.172C78.3611 147.172 79.6719 147.615 80.5875 148.502C81.5127 149.379 81.9657 150.661 81.9657 152.348V154.824ZM79.6237 152.348C79.6237 151.721 79.5466 151.191 79.3924 150.786C79.2382 150.372 79.0262 150.044 78.7659 149.803C78.4961 149.562 78.1877 149.389 77.8214 149.292C77.4552 149.196 77.06 149.148 76.6456 149.148C76.3275 149.148 76.0577 149.157 75.836 149.167C75.6047 149.177 75.4023 149.186 75.2288 149.196V157.986C75.4023 157.995 75.6047 158.005 75.836 158.024C76.0577 158.034 76.3275 158.034 76.6456 158.034C77.06 158.034 77.4552 157.986 77.8214 157.889C78.1877 157.803 78.4961 157.629 78.7659 157.388C79.0262 157.138 79.2382 156.819 79.3924 156.405C79.5466 155.991 79.6237 155.47 79.6237 154.834V152.348Z" />
            <path d="M93.3577 155.22C93.3577 156.116 93.242 156.868 93.0107 157.475C92.7794 158.092 92.4614 158.574 92.0469 158.949C91.6325 159.325 91.141 159.586 90.5723 159.749C90.0037 159.913 89.3869 160 88.7122 160C88.0376 160 87.4111 159.913 86.8425 159.749C86.2738 159.586 85.7823 159.325 85.3679 158.949C84.9631 158.574 84.6451 158.092 84.4137 157.475C84.1824 156.868 84.0668 156.116 84.0668 155.22V147.625C84.0668 147.538 84.0957 147.461 84.1632 147.403C84.2306 147.336 84.3077 147.307 84.4041 147.307H86.0715C86.1678 147.307 86.2449 147.336 86.3124 147.403C86.3799 147.461 86.4088 147.538 86.4088 147.625V155.229C86.4088 155.711 86.4473 156.135 86.5148 156.492C86.5823 156.839 86.6979 157.138 86.881 157.378C87.0545 157.619 87.2858 157.793 87.575 157.899C87.8737 158.015 88.2496 158.072 88.7122 158.072C89.1556 158.072 89.5315 158.015 89.8302 157.899C90.129 157.793 90.37 157.619 90.5434 157.378C90.7169 157.138 90.8422 156.839 90.9097 156.492C90.9771 156.135 91.0061 155.711 91.0061 155.229V147.625C91.0061 147.538 91.0446 147.461 91.1121 147.403C91.1795 147.336 91.2566 147.307 91.3434 147.307H93.0204C93.1071 147.307 93.1842 147.336 93.2517 147.403C93.3191 147.461 93.3577 147.538 93.3577 147.625V155.22Z" />
            <path d="M103.275 159.335C103.275 159.46 103.246 159.547 103.179 159.605C103.111 159.653 103.015 159.692 102.899 159.73C102.832 159.749 102.716 159.778 102.562 159.807C102.398 159.836 102.196 159.855 101.955 159.884C101.723 159.913 101.454 159.942 101.164 159.961C100.875 159.99 100.557 160 100.23 160C99.7283 160 99.1886 159.923 98.6296 159.778C98.061 159.634 97.5502 159.364 97.0876 158.978C96.6249 158.583 96.2394 158.063 95.931 157.398C95.6226 156.733 95.4684 155.875 95.4684 154.824V152.348C95.4684 151.287 95.6226 150.42 95.931 149.745C96.2394 149.08 96.6249 148.55 97.0876 148.165C97.5502 147.789 98.061 147.529 98.6296 147.384C99.1886 147.239 99.7283 147.172 100.23 147.172C100.557 147.172 100.875 147.182 101.164 147.211C101.454 147.23 101.723 147.259 101.955 147.278C102.196 147.307 102.398 147.345 102.562 147.374C102.716 147.413 102.832 147.432 102.899 147.442C103.015 147.48 103.111 147.519 103.179 147.567C103.246 147.615 103.275 147.712 103.275 147.827V148.965C103.275 149.061 103.246 149.148 103.198 149.215C103.15 149.283 103.063 149.321 102.938 149.321H102.899C102.755 149.312 102.581 149.292 102.369 149.273C102.167 149.263 101.945 149.244 101.704 149.234C101.463 149.225 101.222 149.215 100.981 149.196C100.731 149.186 100.49 149.186 100.268 149.186C99.9115 149.186 99.5741 149.234 99.2754 149.34C98.9766 149.447 98.726 149.63 98.514 149.871C98.2923 150.112 98.1285 150.43 98.0032 150.834C97.8779 151.249 97.82 151.75 97.82 152.348V154.824C97.82 155.412 97.8779 155.904 98.0032 156.318C98.1285 156.723 98.2923 157.051 98.514 157.292C98.726 157.542 98.9766 157.716 99.2754 157.822C99.5741 157.937 99.9115 157.986 100.268 157.986C100.49 157.986 100.731 157.976 100.981 157.966C101.222 157.957 101.463 157.947 101.704 157.937C101.945 157.928 102.167 157.909 102.369 157.889C102.581 157.88 102.755 157.86 102.899 157.851H102.938C103.063 157.851 103.15 157.889 103.198 157.957C103.246 158.024 103.275 158.101 103.275 158.207V159.335Z" />
            <path d="M113.414 148.965C113.414 149.051 113.376 149.128 113.308 149.186C113.241 149.244 113.164 149.263 113.077 149.263H110.118V159.528C110.118 159.614 110.089 159.692 110.022 159.759C109.954 159.827 109.867 159.865 109.781 159.865H108.104C108.017 159.865 107.94 159.827 107.872 159.759C107.805 159.692 107.766 159.614 107.766 159.528V149.263H104.817C104.721 149.263 104.644 149.244 104.576 149.186C104.509 149.128 104.48 149.051 104.48 148.965V147.625C104.48 147.538 104.509 147.461 104.576 147.403C104.644 147.336 104.721 147.307 104.817 147.307H113.077C113.164 147.307 113.241 147.336 113.308 147.403C113.376 147.461 113.414 147.538 113.414 147.625V148.965Z" />
            <path d="M117.452 159.528C117.452 159.614 117.414 159.692 117.346 159.759C117.279 159.827 117.202 159.865 117.115 159.865H115.438C115.351 159.865 115.274 159.827 115.207 159.759C115.139 159.692 115.101 159.614 115.101 159.528V147.625C115.101 147.538 115.139 147.461 115.207 147.403C115.274 147.336 115.351 147.307 115.438 147.307H117.115C117.202 147.307 117.279 147.336 117.346 147.403C117.414 147.461 117.452 147.538 117.452 147.625V159.528Z" />
            <path d="M129.259 154.728C129.259 155.663 129.143 156.463 128.902 157.128C128.661 157.793 128.324 158.333 127.9 158.757C127.466 159.181 126.965 159.489 126.377 159.692C125.789 159.894 125.153 160 124.459 160C123.756 160 123.119 159.894 122.532 159.692C121.953 159.489 121.443 159.181 121.018 158.757C120.585 158.333 120.257 157.793 120.016 157.128C119.775 156.463 119.65 155.663 119.65 154.728V152.444C119.65 151.519 119.775 150.719 120.016 150.054C120.257 149.379 120.585 148.839 121.018 148.415C121.443 147.991 121.953 147.683 122.532 147.48C123.119 147.278 123.756 147.172 124.459 147.172C125.153 147.172 125.789 147.278 126.377 147.48C126.965 147.683 127.466 147.991 127.9 148.415C128.324 148.839 128.661 149.379 128.902 150.054C129.143 150.719 129.259 151.519 129.259 152.444V154.728ZM126.917 152.444C126.917 151.316 126.714 150.497 126.31 149.986C125.914 149.475 125.288 149.215 124.459 149.215C123.621 149.215 123.004 149.475 122.599 149.986C122.194 150.497 122.002 151.316 122.002 152.444V154.728C122.002 155.856 122.194 156.675 122.599 157.186C123.004 157.697 123.621 157.957 124.459 157.957C125.288 157.957 125.914 157.697 126.31 157.186C126.714 156.675 126.917 155.856 126.917 154.728V152.444Z" />
            <path d="M140.969 159.19C140.969 159.374 140.911 159.537 140.776 159.672C140.651 159.798 140.487 159.865 140.294 159.865H138.588C138.386 159.865 138.203 159.836 138.029 159.788C137.846 159.74 137.692 159.557 137.557 159.258L133.808 151.027C133.76 150.931 133.712 150.892 133.654 150.892C133.596 150.892 133.577 150.931 133.577 151.027V159.528C133.577 159.614 133.538 159.692 133.48 159.759C133.413 159.827 133.345 159.865 133.249 159.865H131.813C131.726 159.865 131.649 159.827 131.582 159.759C131.514 159.692 131.476 159.614 131.476 159.528V147.982C131.476 147.789 131.543 147.635 131.668 147.5C131.803 147.374 131.957 147.307 132.15 147.307H133.981C134.155 147.307 134.299 147.345 134.405 147.413C134.511 147.48 134.618 147.625 134.724 147.847L138.656 156.53C138.694 156.627 138.733 156.665 138.791 156.665C138.849 156.665 138.877 156.617 138.877 156.521V147.625C138.877 147.413 138.983 147.307 139.196 147.307H140.651C140.863 147.307 140.969 147.413 140.969 147.625V159.19Z" />
            <path fill-rule="evenodd" clip-rule="evenodd" d="M89.9459 29.8788C94.5721 29.8788 98.9862 30.7848 103.015 32.4329V64.0162C103.015 71.1772 97.2129 76.9792 90.0519 76.9792C87.0063 76.9792 84.2113 75.9287 81.9946 74.1746V85.6533C84.5005 86.5882 87.2184 87.099 90.0519 87.099C104.133 87.099 113.183 75.9769 113.183 62.4935V26.573C106.427 22.4095 98.4658 20 89.9459 20C65.4367 20 45.573 39.8637 45.573 64.3728C45.573 78.3671 52.0497 90.8481 62.1695 98.9825V84.8437C57.9481 79.1188 55.4422 72.035 55.4422 64.3728C55.4422 45.3187 70.8918 29.8788 89.9459 29.8788Z" />
            <path fill-rule="evenodd" clip-rule="evenodd" d="M90.0808 98.8958C85.4546 98.8958 81.0405 97.9898 77.0118 96.3321V64.7487C77.0118 57.5974 82.8138 51.7858 89.9748 51.7858C93.0204 51.7858 95.8154 52.8363 98.0321 54.6V43.1213C95.5262 42.1864 92.8083 41.6756 89.9748 41.6756C75.8938 41.6756 66.8342 52.7881 66.8342 66.2811V102.202C73.6 106.365 81.5609 108.775 90.0808 108.775C114.59 108.775 134.454 88.9013 134.454 64.4018C134.454 50.4075 127.977 37.9265 117.848 29.7921V43.9309C122.079 49.6558 124.575 56.7396 124.575 64.4018C124.575 83.4559 109.135 98.8958 90.0808 98.8958Z" />
        </g>
    </symbol>

    <symbol viewBox="0 0 30 30" id="scope1">
        <g xmlns="http://www.w3.org/2000/svg">
            <path d="M22.3393 12.375L19.6675 15H10.2456L17.6518 7.64062C17.9331 7.35938 17.9331 6.89062 17.6518 6.60938C17.3706 6.28125 16.855 6.28125 16.5737 6.60938L4.52683 18.6094C2.74558 20.4375 2.41746 23.3906 4.10496 25.3594C5.08933 26.4375 6.40183 27 7.76121 27C9.02683 27 10.2456 26.5312 11.1831 25.5938L23.4175 13.4062C23.6987 13.125 23.6987 12.6562 23.4175 12.375C23.1362 12.0469 22.6206 12.0469 22.3393 12.375ZM10.1518 24.5625C9.49558 25.1719 8.65183 25.5 7.76121 25.5C6.77683 25.5 5.88621 25.0781 5.22996 24.375C4.10496 23.0625 4.29246 21 5.60496 19.6875L8.74558 16.5H18.1675L10.1518 24.5625ZM26.7925 11.4844L18.5425 3.23438C18.4018 3.09375 18.2143 3 18.0268 3C17.7925 3 17.605 3.09375 17.4643 3.23438C17.1831 3.51562 17.1831 4.03125 17.4643 4.3125L25.7143 12.5625C25.855 12.7031 26.0425 12.75 26.2768 12.75C26.4643 12.75 26.6518 12.7031 26.7925 12.5625C27.0737 12.2812 27.0737 11.7656 26.7925 11.4844Z" fill="#5C8EE6"/>
        </g>
    </symbol>

    <symbol viewBox="0 0 30 30" id="scope2">
        <g xmlns="http://www.w3.org/2000/svg">
            <path d="M14.75 8.95312C15.9688 8.95312 17 7.92188 17 6.70312C17 5.71875 15.8281 3.9375 15.3594 3.23438C15.2188 3.09375 14.9844 3 14.75 3C14.4688 3 14.2344 3.09375 14.0938 3.28125C13.625 3.98438 12.5 5.76562 12.5 6.70312C12.5 7.96875 13.4844 8.95312 14.75 8.95312ZM14.75 5.10938C15.1719 5.85938 15.4531 6.51562 15.5 6.70312C15.5 7.125 15.125 7.45312 14.75 7.45312C14.3281 7.45312 14 7.125 14 6.70312C14 6.46875 14.2812 5.8125 14.75 5.10938ZM21.5 8.95312C22.7188 8.95312 23.75 7.96875 23.75 6.70312C23.75 5.76562 22.5781 3.98438 22.1094 3.28125C21.9688 3.09375 21.7344 3 21.5 3C21.2188 3 20.9844 3.09375 20.8438 3.28125C20.375 3.98438 19.25 5.76562 19.25 6.70312C19.25 7.96875 20.2344 8.95312 21.5 8.95312ZM21.5 5.10938C21.9219 5.85938 22.2031 6.51562 22.25 6.70312C22.25 7.125 21.875 7.45312 21.5 7.45312C21.0781 7.45312 20.75 7.125 20.75 6.70312C20.75 6.46875 21.0312 5.8125 21.5 5.10938ZM8 8.95312C9.21875 8.95312 10.25 7.96875 10.25 6.70312C10.25 5.76562 9.07812 3.98438 8.60938 3.28125C8.46875 3.09375 8.23438 3 8 3C7.71875 3 7.48438 3.09375 7.34375 3.28125C6.875 3.98438 5.75 5.76562 5.75 6.70312C5.75 7.96875 6.73438 8.95312 8 8.95312ZM8 5.10938C8.42188 5.8125 8.70312 6.46875 8.75 6.70312C8.75 7.125 8.375 7.45312 8 7.45312C7.57812 7.45312 7.25 7.125 7.25 6.70312C7.25 6.46875 7.53125 5.8125 8 5.10938ZM20 19.4531C19.3438 19.4531 18.875 19.9688 18.875 20.5781C18.875 21.2344 19.3438 21.7031 20 21.7031C20.6094 21.7031 21.125 21.2344 21.125 20.5781C21.125 19.9688 20.6094 19.4531 20 19.4531ZM22.3906 16.7812L21.6406 13.5469C21.3125 12.1875 20.1406 11.2031 18.7344 11.2031H10.5781C9.21875 11.2031 8 12.1875 7.67188 13.5469L6.92188 16.875C5.79688 17.4375 5 18.6094 5 19.9688V22.5469C5 23.4844 5.60938 24.3281 6.5 24.6094V26.2031C6.5 26.625 6.82812 26.9531 7.25 26.9531C7.625 26.9531 8 26.625 8 26.2031V24.7031H21.5V26.2031C21.5 26.625 21.8281 26.9531 22.25 26.9531C22.625 26.9531 23 26.625 23 26.2031V24.6094C23.8906 24.3281 24.4531 23.4844 24.5 22.5469V19.9688C24.5 18.6094 23.6562 17.3438 22.3906 16.7812ZM9.125 13.875C9.3125 13.2188 9.92188 12.75 10.625 12.75H18.7344C19.4375 12.75 20.0469 13.2188 20.1875 13.875L20.7969 16.5H8.5625L9.125 13.875ZM23 22.5469C23 22.9219 22.6719 23.25 22.2969 23.25H7.15625C6.78125 23.2031 6.5 22.9219 6.5 22.5469V19.9688C6.5 18.8906 7.39062 18 8.46875 18H20.9844C22.0625 18 23 18.8906 23 19.9688V22.5469ZM9.5 19.4531C8.84375 19.4531 8.375 19.9688 8.375 20.5781C8.375 21.2344 8.84375 21.7031 9.5 21.7031C10.1094 21.7031 10.625 21.2344 10.625 20.5781C10.625 19.9688 10.1094 19.4531 9.5 19.4531Z" fill="#5C8EE6"/>
        </g>
    </symbol>

    <symbol viewBox="0 0 30 30" id="scope3">
        <g xmlns="http://www.w3.org/2000/svg">
            <path d="M14.2743 3.60938C14.1805 3.23438 13.8055 2.95312 13.3837 3.04688C12.9618 3.14062 12.7274 3.51562 12.8212 3.9375L13.8993 9.32812C14.3212 11.5781 13.5243 13.2188 11.5087 14.1094L11.0399 14.2969L11.4618 24.8906C11.4618 25.0781 11.4149 25.2656 11.2743 25.3594C11.2274 25.4531 11.1337 25.5 10.993 25.5H9.58678C9.44616 25.5 9.35241 25.4531 9.25866 25.3594C9.16491 25.2656 9.07116 25.0781 9.07116 24.9375L9.49303 14.2969L9.02428 14.1094C7.00866 13.1719 6.21178 11.5781 6.63366 9.375L7.75866 3.9375C7.80553 3.51562 7.57116 3.14062 7.14928 3.04688C6.77428 2.95312 6.35241 3.23438 6.25866 3.60938L5.13366 9.09375C4.61803 11.8125 5.60241 13.9688 7.94616 15.2344L7.57116 24.8906C7.57116 25.4062 7.75866 25.9688 8.13366 26.3906C8.50866 26.8125 9.02428 27 9.58678 27H10.993C11.5555 27 12.0243 26.8125 12.3993 26.3906C12.7743 25.9688 12.9618 25.4062 12.9618 24.8438L12.5868 15.2344C14.8837 14.0156 15.9149 11.7656 15.3993 9.04688L14.2743 3.60938ZM22.8524 3C21.3524 3 18.8212 5.0625 17.6962 7.73438C16.8993 9.60938 16.1024 13.3125 19.7587 17.2969L19.4305 24.75C19.3837 25.4062 19.618 26.0156 20.0399 26.4375C20.4149 26.8125 20.8837 27 21.3524 27H22.5712C23.6493 27 24.5399 26.0625 24.5399 24.8438V4.82812C24.5399 3.84375 23.7899 3 22.8524 3ZM23.0399 24.8438C23.0399 25.2656 22.7587 25.5 22.5712 25.5H21.3524C21.2587 25.5 21.1649 25.4531 21.118 25.4062C20.9774 25.2656 20.9305 25.0312 20.9305 24.8438L21.3055 16.7344L21.0712 16.5C17.9305 13.2188 18.2587 10.2656 19.0555 8.34375C20.1337 5.85938 22.243 4.5 22.8524 4.5C22.8993 4.5 23.0399 4.64062 23.0399 4.82812V24.8438ZM8.74303 11.25C8.74303 11.25 8.74303 11.25 8.78991 11.25C9.16491 11.25 9.49303 10.9688 9.49303 10.5469L9.86803 3.79688C9.91491 3.42188 9.58678 3.04688 9.16491 3.04688C8.78991 3 8.41491 3.32812 8.41491 3.75L8.03991 10.5C7.99303 10.875 8.32116 11.25 8.74303 11.25ZM11.7899 11.25C12.2118 11.25 12.5399 10.875 12.493 10.5L12.118 3.75C12.118 3.32812 11.7899 3 11.368 3.04688C10.9462 3.04688 10.618 3.42188 10.6649 3.79688L11.0399 10.5469C11.0399 10.9688 11.368 11.25 11.7899 11.25Z" fill="#5C8EE6"/>
        </g>
    </symbol>

    <symbol viewBox="0 0 30 30" id="scope4">
        <g xmlns="http://www.w3.org/2000/svg">
            <path d="M22.5 3H7.5C6.65625 3 6 3.70312 6 4.5V18C6 19.6875 7.3125 21 9 21H12V24C12 25.6875 13.3125 27 15 27C16.6406 27 18 25.6875 18 24V21H21C22.6406 21 24 19.6875 24 18V4.5C24 3.70312 23.2969 3 22.5 3ZM22.5 18C22.5 18.8438 21.7969 19.5 21 19.5H16.5V24C16.5 24.8438 15.7969 25.5 15 25.5C14.1562 25.5 13.5 24.8438 13.5 24V19.5H9C8.15625 19.5 7.5 18.8438 7.5 18V16.5H22.5V18ZM22.5 15H7.5V4.5H22.5V15Z" fill="#5C8EE6"/>
        </g>
    </symbol>

    <symbol viewBox="0 0 30 30" id="scope5">
        <g viewBox="0 0 30 30" xmlns="http://www.w3.org/2000/svg">
            <path d="M15 22.5C15.375 22.5 15.75 22.1719 15.75 21.75V20.25H17.25C17.625 20.25 18 19.9219 18 19.5C18 19.125 17.625 18.75 17.25 18.75H15.75V17.25C15.75 16.875 15.375 16.5 15 16.5C14.5781 16.5 14.25 16.875 14.25 17.25V18.75H12.75C12.3281 18.75 12 19.125 12 19.5C12 19.9219 12.3281 20.25 12.75 20.25H14.25V21.75C14.25 22.1719 14.5781 22.5 15 22.5ZM3.75 13.5C4.125 13.5 4.5 13.1719 4.5 12.75V10.5H6C6.375 10.5 6.75 10.1719 6.75 9.75C6.75 9.375 6.375 9 6 9H4.5V6.75C4.5 6.375 4.125 6 3.75 6C3.32812 6 3 6.375 3 6.75V9H0.75C0.328125 9 0 9.375 0 9.75C0 10.0781 0.328125 10.5 0.75 10.5H3V12.75C3 13.1719 3.32812 13.5 3.75 13.5ZM29.25 22.5H27V20.25C27 19.875 26.625 19.5 26.25 19.5C25.8281 19.5 25.5 19.875 25.5 20.25V22.5H23.25C22.8281 22.5 22.5 22.875 22.5 23.25C22.5 23.625 22.8281 24 23.25 24H25.5V26.25C25.5 26.6719 25.8281 27 26.25 27C26.625 27 27 26.6719 27 26.25V24H29.25C29.625 24 29.9531 23.6719 29.9531 23.2969C29.9531 22.9219 29.625 22.5 29.25 22.5ZM21.375 24.5625C20.8594 24.5625 20.0625 25.5 17.9531 25.5H13.2188C11.4375 25.5 9.79688 24.6562 8.76562 23.25L4.73438 17.9062C4.54688 17.6719 4.45312 17.4375 4.45312 17.1562C4.45312 16.5469 4.96875 16.125 5.53125 16.125C5.76562 16.125 6.14062 16.2188 6.42188 16.5938L8.01562 18.7031C8.29688 19.0781 8.76562 19.3125 9.1875 19.3125C9.375 19.3125 10.5 19.1719 10.5 18.0469C10.5 18.0469 10.5 18.0469 10.5 18V7.17188C10.5 6.60938 10.9219 6 11.625 6C12.2344 6 12.75 6.51562 12.75 7.125V14.25C12.75 14.3438 12.8438 15.0469 13.5 15.0469C13.875 15.0469 14.2031 14.6719 14.2031 14.2969V5.67188C14.2031 5.10938 14.625 4.5 15.3281 4.5C15.9375 4.5 16.4531 5.01562 16.4531 5.625V14.25C16.4531 14.3438 16.5469 15.0469 17.2031 15.0469C17.5781 15.0469 17.9531 14.6719 17.9531 14.2969V7.17188C17.9531 6.60938 18.375 6 19.0781 6C19.6875 6 20.2031 6.51562 20.2031 7.125V14.2031C20.2031 14.3438 20.2969 15 20.9531 15C21.3281 15 21.7031 14.6719 21.7031 14.2969V9.42188C21.7031 8.8125 22.125 8.25 22.8281 8.25C23.4375 8.25 23.9531 8.76562 23.9531 9.375V17.1094C23.9531 17.4844 24.2812 17.8594 24.7031 17.8594C25.0781 17.8594 25.5 17.4844 25.5 17.1094V9.46875C25.5 8.4375 24.7031 6.75 22.8281 6.75C22.4531 6.75 22.0781 6.84375 21.7031 6.98438C21.6562 5.625 20.4844 4.5 19.0781 4.5C18.6094 4.5 18.1875 4.64062 17.8125 4.82812C17.4844 3.79688 16.5 3 15.3281 3C14.1562 3 13.2188 3.79688 12.8438 4.875C12.4688 4.64062 12.0469 4.5 11.625 4.5C9.75 4.5 9 6.23438 9 7.26562V17.4375L7.54688 15.6094C7.07812 15 6.32812 14.625 5.53125 14.625C4.125 14.625 3 15.7031 3 17.1562C3 17.7188 3.14062 18.3281 3.51562 18.7969L7.59375 24.1406C8.85938 25.9219 10.9688 27 13.2188 27H18C19.5 27 22.125 26.2969 22.125 25.3125C22.125 25.0312 21.9375 24.5625 21.375 24.5625Z" fill="#5C8EE6"/>
        </g>
    </symbol>

    <symbol viewBox="0 0 30 30" id="scope6">
        <g viewBox="0 0 30 30" xmlns="http://www.w3.org/2000/svg">
            <path d="M23.1406 16.8281L22.3906 13.5938C22.0625 12.2344 20.8906 11.25 19.4844 11.25H11.375C9.96875 11.25 8.75 12.2344 8.42188 13.5938L7.67188 16.9219C6.54688 17.4844 5.75 18.6562 5.75 20.0156V22.5938C5.75 23.5312 6.35938 24.375 7.25 24.6562V26.25C7.25 26.6719 7.57812 27 8 27C8.375 27 8.75 26.6719 8.75 26.25V24.75H22.25V26.25C22.25 26.6719 22.5781 27 23 27C23.375 27 23.75 26.6719 23.75 26.25V24.6562C24.6406 24.375 25.2031 23.5312 25.25 22.5938V20.0156C25.25 18.6562 24.4062 17.3906 23.1406 16.8281ZM9.875 13.9219C10.0625 13.2656 10.6719 12.75 11.375 12.75H19.4844C20.1875 12.75 20.7969 13.2656 20.9375 13.9219L21.5469 16.5H9.3125L9.875 13.9219ZM23.75 22.5938C23.75 22.9688 23.4219 23.25 23.0469 23.25H7.90625C7.53125 23.25 7.25 22.9688 7.25 22.5938V20.0156C7.25 18.9375 8.14062 18 9.21875 18H21.7344C22.8125 18 23.75 18.9375 23.75 20.0156V22.5938ZM20.75 19.5C20.0938 19.5 19.625 20.0156 19.625 20.625C19.625 21.2812 20.0938 21.75 20.75 21.75C21.3594 21.75 21.875 21.2812 21.875 20.625C21.875 20.0156 21.3594 19.5 20.75 19.5ZM10.25 19.5C9.59375 19.5 9.125 20.0156 9.125 20.625C9.125 21.2812 9.59375 21.75 10.25 21.75C10.8594 21.75 11.375 21.2812 11.375 20.625C11.375 20.0156 10.8594 19.5 10.25 19.5ZM8.75 10.5C9.96875 10.5 11.0469 9.9375 11.7031 9.04688H19.25C19.9062 9.9375 20.9844 10.5 22.25 10.5C24.3125 10.5 26 8.85938 26 6.75C26 4.6875 24.3125 3 22.25 3C20.9844 3 19.9062 3.60938 19.25 4.54688H11.7031C11.0469 3.60938 9.96875 3 8.75 3C6.64062 3 5 4.6875 5 6.75C5 8.85938 6.64062 10.5 8.75 10.5ZM6.59375 6C6.92188 5.15625 7.76562 4.5 8.75 4.5C9.40625 4.5 10.0625 4.875 10.5312 5.4375C10.8125 5.8125 11.2344 6.04688 11.7031 6.04688H19.25C19.7188 6.04688 20.1406 5.8125 20.4219 5.4375C20.8906 4.875 21.5469 4.5 22.25 4.5C23.1875 4.5 24.0312 5.15625 24.3594 6H22.25V7.5H24.3594C24.0312 8.39062 23.1875 9 22.25 9C21.5469 9 20.8906 8.67188 20.4219 8.10938C20.1406 7.73438 19.7188 7.54688 19.25 7.54688H11.7031C11.2344 7.54688 10.8125 7.73438 10.5312 8.10938C10.0625 8.67188 9.40625 9 8.75 9C7.76562 9 6.92188 8.39062 6.59375 7.5H8.75V6H6.59375Z" fill="#5C8EE6"/>
        </g>
    </symbol>

    <symbol viewBox="0 0 30 30" id="scope7">
        <g viewBox="0 0 30 30" xmlns="http://www.w3.org/2000/svg">
            <path d="M29.8813 8.54898C29.6938 7.98648 29.3188 7.56461 28.8032 7.28336L20.5063 3.06461C20.1782 2.92398 19.8032 3.01773 19.5688 3.29898C18.8188 4.37711 16.9438 5.08023 14.9751 5.08023C13.0532 5.08023 11.1782 4.37711 10.4282 3.29898C10.1938 3.01773 9.81882 2.92398 9.4907 3.06461L1.19382 7.28336C0.678196 7.56461 0.303196 7.98648 0.115696 8.54898C-0.0718041 9.11148 -0.0249291 9.67398 0.209446 10.1896L2.50632 14.924C3.02195 15.9552 4.33445 16.3771 5.3657 15.9084L7.52195 14.9709V24.8146C7.52195 26.0334 8.45945 26.9709 9.6782 26.9709H20.3188C21.5376 26.9709 22.5219 26.0334 22.5219 24.8146L22.4751 14.9709L24.5844 15.8615C25.6626 16.3771 26.9751 15.9552 27.4907 14.8771L29.7876 10.1896C30.0219 9.67398 30.0688 9.11148 29.8813 8.54898ZM28.4282 9.53336L26.1782 14.2209C25.9907 14.549 25.5688 14.6896 25.2407 14.5021L22.0532 13.1427C21.8188 13.049 21.5376 13.0959 21.3501 13.2365C21.1157 13.3771 20.9751 13.6115 20.9751 13.8459L21.0219 24.8146C21.0219 25.1896 20.6938 25.4709 20.3188 25.4709H9.6782C9.3032 25.4709 9.02195 25.1896 9.02195 24.8146V13.8459C9.02195 13.6115 8.88132 13.3771 8.64695 13.2365C8.5532 13.1427 8.41257 13.0959 8.27195 13.0959C8.13132 13.0959 8.03757 13.1427 7.94382 13.1427L4.75632 14.5021C4.4282 14.6896 4.00632 14.549 3.8657 14.2209L1.56882 9.53336C1.47507 9.34586 1.47507 9.20523 1.52195 9.01773C1.56882 8.87711 1.70945 8.73648 1.89695 8.64273L9.63132 4.65836C10.8032 5.87711 12.8188 6.58023 15.0219 6.58023C17.2251 6.58023 19.1938 5.87711 20.3657 4.65836L28.1001 8.64273C28.2876 8.73648 28.4282 8.87711 28.4751 9.01773C28.5219 9.20523 28.5219 9.34586 28.4282 9.53336Z" fill="#5C8EE6"/>
        </g>
    </symbol>

    <symbol viewBox="0 0 30 30" id="scope8">
        <g xmlns="http://www.w3.org/2000/svg">
            <path d="M15.7969 15.75C14.1562 15.75 12.2344 16.4062 10.875 17.3906C9.75 18.1875 8.8125 18.9844 6 18.9844H3C1.3125 18.9844 0 20.4375 0 22.2188C0 23.9531 1.3125 25.5 3 25.5H6L8.67188 26.2031C10.1719 26.6719 11.7188 27 13.7344 27C18.8906 27 24 24.4219 24 20.5781C24 17.3906 20.0156 15.75 15.7969 15.75ZM5.25 24H3C2.20312 24 1.5 23.1562 1.5 22.2188C1.5 21.2344 2.15625 20.4844 3 20.4844H5.25V24ZM9.04688 24.75L6.75 24.1875V20.4375C9.32812 20.2969 10.5 19.5 11.5781 18.75C15.8438 15.7031 22.5 17.8594 22.5 20.5781C22.5 23.4844 16.7812 27.0469 9.04688 24.75ZM19.7344 3C17.6719 3 16.1719 3.375 14.6719 3.84375L12 4.5H9C7.3125 4.5 6 6.04688 6 7.82812C6 9.65625 7.3125 11.0625 9 11.0625H12C14.8125 11.0625 15.75 11.8594 16.875 12.6562C18.2344 13.5938 20.1562 14.25 21.7969 14.25C26.0156 14.25 30 12.6562 30 9.46875C30 5.625 24.9844 3 19.7344 3ZM11.25 9.5625H9C8.15625 9.5625 7.5 8.8125 7.5 7.82812C7.5 6.89062 8.20312 6 9 6H11.25V9.5625ZM21.7969 12.75C20.4844 12.75 18.8906 12.1875 17.7656 11.3906C16.6406 10.6406 15.4688 9.75 12.75 9.5625V5.85938L15.0938 5.25C16.5 4.875 17.8594 4.5 19.7344 4.5C22.1719 4.5 28.5 5.71875 28.5 9.46875C28.5 11.625 25.125 12.75 21.7969 12.75Z" fill="#5C8EE6"/>
        </g>
    </symbol>

    <symbol viewBox="0 0 30 30" id="scope9">
        <g xmlns="http://www.w3.org/2000/svg">
            <path d="M24.5 4H6.5C5.65625 4 5 4.70312 5 5.5V8.5C5 9.34375 5.65625 10 6.5 10V24.25C6.5 24.625 6.73438 24.9531 7.10938 25C7.57812 25.0938 8 24.7188 8 24.25V22H18.5V24.25C18.5 24.6719 18.8281 25 19.2031 25C19.5781 25 20 24.6719 20 24.25V22H23V24.25C23 24.625 23.2344 24.9531 23.6094 25C24.0781 25.0938 24.5 24.7188 24.5 24.25V10C25.2969 10 26 9.34375 26 8.5V5.5C26 4.70312 25.2969 4 24.5 4ZM11 14.5H8V10H11V14.5ZM8 20.5V16H14V20.5H8ZM23 20.5H15.5V16H23V20.5ZM23 14.5H12.5V10H23V14.5ZM24.5 8.5H6.5V5.5H24.5V8.5Z" fill="#5C8EE6"/>
        </g>
    </symbol>

    <symbol viewBox="0 0 30 30" id="scope10">
        <g xmlns="http://www.w3.org/2000/svg">
            <path d="M15 14C14.1562 14 13.5 14.7031 13.5 15.5C13.5 16.3438 14.1562 17 15 17C15.7969 17 16.5 16.3438 16.5 15.5C16.5 14.7031 15.7969 14 15 14ZM7.5 14C6.65625 14 6 14.7031 6 15.5C6 16.3438 6.65625 17 7.5 17C8.29688 17 9 16.3438 9 15.5C9 14.7031 8.29688 14 7.5 14ZM22.5 14C21.6562 14 21 14.7031 21 15.5C21 16.3438 21.6562 17 22.5 17C23.2969 17 24 16.3438 24 15.5C24 14.7031 23.2969 14 22.5 14Z" fill="#5C8EE6"/>
        </g>
    </symbol>

    <symbol viewBox="0 0 31 16" id="sliderArrow">
        <g xmlns="http://www.w3.org/2000/svg">
            <path d="M8.16158 0.686292L8.86869 1.3934L2.41405 7.84803L31 7.84795L30.9997 8.84819L2.42381 8.84801L8.86869 15.2929L8.16158 16L1.00959 8.84801H0.999926V8.83835L0.504726 8.34315L8.16158 0.686292Z" fill="white"/>
        </g>
    </symbol>

    <symbol viewBox="0 0 14 14" id="policyIcon">
        <g xmlns="http://www.w3.org/2000/svg">
            <path d="M11.9221 2.94626L7.41988 1.07035C7.27918 1.02345 7.13849 1 6.99779 1C6.83365 1 6.69296 1.02345 6.55226 1.07035L2.05007 2.94626C1.62799 3.13385 1.37005 3.53249 1.37005 3.97802C1.37005 8.64436 4.04323 11.8569 6.55226 12.9121C6.83365 13.0293 7.13849 13.0293 7.41988 12.9121C9.43649 12.0679 12.6255 9.18368 12.6255 3.97802C12.6255 3.53249 12.3442 3.13385 11.9221 2.94626ZM10.1616 5.72512L6.50537 9.14349C6.36467 9.30763 6.10673 9.30763 5.96604 9.14349L3.95613 7.37141C3.81544 7.23072 3.81544 6.99623 3.95613 6.85554L4.24087 6.5708C4.38156 6.43011 4.61605 6.43011 4.75675 6.5708L6.30254 7.91226L9.41607 4.97962C9.55677 4.83893 9.79126 4.83893 9.93195 4.97962L10.1616 5.20924C10.3023 5.34994 10.3023 5.58443 10.1616 5.72512Z" />
        </g>
    </symbol>

    <symbol viewBox="0 0 24 24" id="locationIcon">
        <g xmlns="http://www.w3.org/2000/svg">
            <path d="M12.625 19.6875C12.3438 20.125 11.6875 20.125 11.4062 19.6875C6.84375 13.125 6 12.4375 6 10C6 6.6875 8.6875 4 12 4C15.3438 4 18 6.6875 18 10C18 12.4375 17.1875 13.125 12.625 19.6875ZM12 12.5C13.4062 12.5 14.5 11.4062 14.5 10C14.5 8.625 13.4062 7.5 12 7.5C10.625 7.5 9.5 8.625 9.5 10C9.5 11.4062 10.625 12.5 12 12.5Z" />
        </g>
    </symbol>

    <symbol viewBox="0 0 24 24" id="messageIcon">
        <g viewBox="0 0 24 24" xmlns="http://www.w3.org/2000/svg">
            <path d="M4.3125 9.96875C5.03125 10.5312 5.9375 11.2188 9.125 13.5312C9.75 14 10.9062 15.0312 12 15.0312C13.125 15.0312 14.25 14 14.9062 13.5312C18.0938 11.2188 19 10.5312 19.7188 9.96875C19.8438 9.875 20 9.96875 20 10.125V16.5C20 17.3438 19.3438 18 18.5 18H5.5C4.6875 18 4 17.3438 4 16.5V10.125C4 9.96875 4.1875 9.875 4.3125 9.96875ZM12 14C11.2812 14.0312 10.25 13.0938 9.71875 12.7188C5.5625 9.71875 5.25 9.4375 4.3125 8.6875C4.125 8.5625 4 8.34375 4 8.09375V7.5C4 6.6875 4.6875 6 5.5 6H18.5C19.3438 6 20 6.6875 20 7.5V8.09375C20 8.34375 19.9062 8.5625 19.7188 8.6875C18.7812 9.4375 18.4688 9.71875 14.3125 12.7188C13.7812 13.0938 12.75 14.0312 12 14Z" />
        </g>
    </symbol>

    <symbol viewBox="0 0 24 24" id="vkIcon">
        <g xmlns="http://www.w3.org/2000/svg">
            <path d="M21.6689 16.7569C20.8705 15.32 18.8138 13.5935 17.9648 12.8422C17.7324 12.6365 17.7075 12.2806 17.919 12.0531C19.5394 10.3119 20.8354 8.31123 21.2815 7.1023C21.4783 6.56826 21.0709 6.004 20.4968 6.004H18.8294C18.2798 6.004 17.9581 6.20127 17.8048 6.51538C16.4582 9.27491 15.303 10.4692 14.4944 11.1672C14.0416 11.5581 13.3357 11.2343 13.3357 10.6393C13.3357 9.49306 13.3357 8.01133 13.3357 6.96057C13.3357 6.45096 12.9189 6.03865 12.4049 6.03865L9.35877 6.004C8.97534 6.004 8.7563 6.43808 8.98644 6.74242L9.48939 7.4644C9.67866 7.71454 9.78085 8.01888 9.78085 8.33122L9.77818 11.5826C9.77818 12.1482 9.09263 12.4245 8.68566 12.0282C7.30878 10.6873 6.11407 7.94913 5.68399 6.63979C5.55959 6.2608 5.20459 6.00489 4.80206 6.004L3.1595 6C2.54326 6 2.09274 6.58425 2.26024 7.1725C3.76108 12.4405 6.84049 17.4522 12.3284 17.9956C12.8692 18.0489 13.3357 17.6135 13.3357 17.0745V15.3658C13.3357 14.8757 13.72 14.4545 14.214 14.4421C14.2314 14.4416 14.2487 14.4416 14.266 14.4416C15.7175 14.4416 17.3432 16.5543 17.9119 17.5424C18.0754 17.8267 18.3811 18 18.7116 18H20.9211C21.5658 18 21.9795 17.3162 21.6689 16.7569Z" />
        </g>
    </symbol>

    <symbol viewBox="0 0 24 24" id="skypeIcon">
        <g  xmlns="http://www.w3.org/2000/svg">
            <path d="M14.4295 15.2473C14.4295 15.004 14.392 14.7857 14.3172 14.5922C14.2485 14.3926 14.1175 14.2117 13.9241 14.0495C13.7307 13.881 13.4593 13.7157 13.1099 13.5535C12.7606 13.3913 12.3082 13.2228 11.753 13.0481C11.1353 12.8485 10.5489 12.6239 9.99362 12.3743C9.4446 12.1248 8.95797 11.8347 8.53373 11.504C8.11573 11.1671 7.78507 10.7772 7.54175 10.3342C7.30468 9.89127 7.18614 9.37656 7.18614 8.79011C7.18614 8.22237 7.31091 7.70766 7.56047 7.24599C7.81002 6.77807 8.1594 6.37879 8.6086 6.04813C9.0578 5.71123 9.5881 5.45232 10.1995 5.27139C10.8172 5.09046 11.4941 5 12.2303 5C13.2347 5 14.1113 5.18093 14.8599 5.54278C15.6086 5.90463 16.1888 6.40062 16.6006 7.03075C17.0186 7.66087 17.2276 8.38146 17.2276 9.19251H14.4388C14.4388 8.79323 14.3546 8.44385 14.1861 8.14438C14.0239 7.83868 13.7744 7.59848 13.4375 7.4238C13.1068 7.24911 12.6888 7.16176 12.1835 7.16176C11.6968 7.16176 11.2913 7.23663 10.9669 7.38636C10.6425 7.52986 10.3992 7.72638 10.2369 7.97594C10.0747 8.21925 9.99362 8.49376 9.99362 8.79947C9.99362 9.0303 10.0498 9.2393 10.1621 9.42647C10.2806 9.61364 10.4553 9.78832 10.6861 9.95053C10.917 10.1127 11.2008 10.2656 11.5377 10.4091C11.8746 10.5526 12.2646 10.693 12.7075 10.8302C13.45 11.0548 14.1019 11.3075 14.6634 11.5882C15.2311 11.869 15.7053 12.184 16.0859 12.5334C16.4664 12.8828 16.7534 13.279 16.9468 13.7219C17.1402 14.1649 17.2369 14.6671 17.2369 15.2286C17.2369 15.8213 17.1215 16.3516 16.8907 16.8195C16.6598 17.2874 16.3261 17.6836 15.8893 18.008C15.4526 18.3324 14.9317 18.5789 14.3265 18.7473C13.7213 18.9158 13.0444 19 12.2958 19C11.622 19 10.9575 18.9127 10.3024 18.738C9.64737 18.557 9.05156 18.2857 8.51501 17.9238C7.98471 17.5619 7.56047 17.1003 7.24229 16.5388C6.92411 15.9773 6.76501 15.3128 6.76501 14.5455H9.58186C9.58186 14.9697 9.64737 15.3284 9.77838 15.6217C9.9094 15.9149 10.0934 16.152 10.3305 16.3329C10.5738 16.5138 10.8608 16.6448 11.1915 16.7259C11.5284 16.807 11.8965 16.8476 12.2958 16.8476C12.7824 16.8476 13.1817 16.779 13.4936 16.6417C13.8118 16.5045 14.0458 16.3142 14.1955 16.0709C14.3515 15.8275 14.4295 15.553 14.4295 15.2473Z" />
        </g>
    </symbol>

    <symbol viewBox="0 0 24 24" id="whatsUpIcon">
        <g xmlns="http://www.w3.org/2000/svg">
            <path d="M17.5714 6.35714C16.1071 4.85714 14.1071 4 11.9643 4C7.60714 4 4.03571 7.57143 4.03571 11.9286C4.03571 13.3571 4.42857 14.7143 5.10714 15.8929L4 20L8.17857 18.9286C9.35714 19.5357 10.6429 19.8929 11.9643 19.8929C16.3571 19.8929 20 16.3214 20 11.9643C20 9.82143 19.0714 7.85714 17.5714 6.35714ZM11.9643 18.5357C10.7857 18.5357 9.64286 18.2143 8.60714 17.6071L8.39286 17.4643L5.89286 18.1429L6.57143 15.7143L6.39286 15.4643C5.75 14.3929 5.39286 13.1786 5.39286 11.9286C5.39286 8.32143 8.35714 5.35714 12 5.35714C13.75 5.35714 15.3929 6.03571 16.6429 7.28571C17.8929 8.53571 18.6429 10.1786 18.6429 11.9643C18.6429 15.5714 15.6071 18.5357 11.9643 18.5357ZM15.6071 13.6071C15.3929 13.5 14.4286 13.0357 14.25 12.9643C14.0714 12.8929 13.9286 12.8571 13.7857 13.0714C13.6786 13.25 13.2857 13.7143 13.1786 13.8571C13.0357 13.9643 12.9286 14 12.75 13.8929C11.5714 13.3214 10.8214 12.8571 10.0357 11.5357C9.82143 11.1786 10.25 11.2143 10.6071 10.4643C10.6786 10.3214 10.6429 10.2143 10.6071 10.1071C10.5714 10 10.1429 9.03571 10 8.64286C9.82143 8.25 9.67857 8.28571 9.53571 8.28571C9.42857 8.28571 9.28571 8.28571 9.17857 8.28571C9.03571 8.28571 8.82143 8.32143 8.64286 8.53571C8.46429 8.75 7.96429 9.21429 7.96429 10.1786C7.96429 11.1786 8.64286 12.1071 8.75 12.25C8.85714 12.3571 10.1429 14.3571 12.1429 15.2143C13.3929 15.7857 13.8929 15.8214 14.5357 15.7143C14.8929 15.6786 15.6786 15.25 15.8571 14.7857C16.0357 14.3214 16.0357 13.9286 15.9643 13.8571C15.9286 13.75 15.7857 13.7143 15.6071 13.6071Z" />
        </g>
    </symbol>

    <symbol viewBox="0 0 24 24" id="telegramIcon">
        <g xmlns="http://www.w3.org/2000/svg">
            <path d="M20.2844 6.24515L17.8069 18.1372C17.6211 19.0044 17.1256 19.1902 16.3823 18.8185L12.5422 15.9694L10.684 17.7656C10.4982 17.9514 10.3124 18.1372 9.94079 18.1372L10.1885 14.2351L17.3114 7.7936C17.6211 7.54585 17.2495 7.36003 16.8159 7.60778L8.02072 13.1822L4.24251 12.0054C3.43731 11.7576 3.43731 11.1382 4.42832 10.7666L19.2315 5.06833C19.9128 4.82058 20.5322 5.25415 20.2844 6.24515Z" />
        </g>
    </symbol>

    <symbol viewBox="0 0 52 11" id="rusoLogo">
        <g xmlns="http://www.w3.org/2000/svg">
            <path d="M13.4243 6.35301V0.251953H15.6153V6.27665C15.6153 7.69226 16.4376 8.66538 18.005 8.66538C19.5724 8.66538 20.3781 7.69129 20.3781 6.27665V0.251953H22.5847V6.33832C22.5847 8.86411 21.0927 10.5832 18.005 10.5832C14.9153 10.5832 13.4243 8.84845 13.4243 6.35301Z" />
            <path d="M27.791 8.96925L28.9619 7.3265C29.6775 8.07249 30.7877 8.69513 32.1877 8.69513C33.3752 8.69513 33.9528 8.14788 33.9528 7.56929C33.9528 5.77383 28.1102 7.00637 28.1102 3.18734C28.1102 1.49859 29.5708 0.0986328 31.9595 0.0986328C33.5729 0.0986328 34.9112 0.58519 35.9156 1.51425L34.7134 3.0963C33.893 2.33562 32.7966 1.98612 31.7618 1.98612C30.8337 1.98612 30.3168 2.39632 30.3168 3.00525C30.3168 4.61764 36.1437 3.53782 36.1437 7.3265C36.1437 9.18267 34.8202 10.5826 32.0819 10.5826C30.1347 10.5826 28.7348 9.92768 27.791 8.96925Z" />
            <path d="M41.2124 5.29241C41.2124 2.2086 43.467 0 46.5508 0C49.6493 0 51.9039 2.2086 51.9039 5.29241C51.9039 8.37525 49.6493 10.5838 46.5508 10.5838C43.467 10.5838 41.2124 8.37525 41.2124 5.29241ZM49.664 5.29241C49.664 3.37555 48.4373 1.9335 46.5508 1.9335C44.6643 1.9335 43.4523 3.37555 43.4523 5.29241C43.4523 7.19459 44.6643 8.65132 46.5508 8.65132C48.4373 8.65132 49.664 7.19459 49.664 5.29241Z" />
            <path d="M5.93463 6.5351C7.03012 6.27665 8.15693 5.31822 8.15693 3.52275C8.15693 1.63624 6.86369 0.251953 4.74809 0.251953H0V2.15315H2.16063H2.32118H4.42894C5.29633 2.15315 5.95029 2.67005 5.95029 3.52275C5.95029 4.37447 5.29535 4.89236 4.42894 4.89236H2.32118H2.16063H0.000978824V10.4001H2.16161V6.79453H3.74463L5.73687 10.4011H8.21763L5.93463 6.5351Z" />
        </g>
    </symbol>

    <symbol viewBox="0 0 30 30" id="carChemical">
        <g xmlns="http://www.w3.org/2000/svg">
            <path d="M14.75 8.95312C15.9688 8.95312 17 7.92188 17 6.70312C17 5.71875 15.8281 3.9375 15.3594 3.23438C15.2188 3.09375 14.9844 3 14.75 3C14.4688 3 14.2344 3.09375 14.0938 3.28125C13.625 3.98438 12.5 5.76562 12.5 6.70312C12.5 7.96875 13.4844 8.95312 14.75 8.95312ZM14.75 5.10938C15.1719 5.85938 15.4531 6.51562 15.5 6.70312C15.5 7.125 15.125 7.45312 14.75 7.45312C14.3281 7.45312 14 7.125 14 6.70312C14 6.46875 14.2812 5.8125 14.75 5.10938ZM21.5 8.95312C22.7188 8.95312 23.75 7.96875 23.75 6.70312C23.75 5.76562 22.5781 3.98438 22.1094 3.28125C21.9688 3.09375 21.7344 3 21.5 3C21.2188 3 20.9844 3.09375 20.8438 3.28125C20.375 3.98438 19.25 5.76562 19.25 6.70312C19.25 7.96875 20.2344 8.95312 21.5 8.95312ZM21.5 5.10938C21.9219 5.85938 22.2031 6.51562 22.25 6.70312C22.25 7.125 21.875 7.45312 21.5 7.45312C21.0781 7.45312 20.75 7.125 20.75 6.70312C20.75 6.46875 21.0312 5.8125 21.5 5.10938ZM8 8.95312C9.21875 8.95312 10.25 7.96875 10.25 6.70312C10.25 5.76562 9.07812 3.98438 8.60938 3.28125C8.46875 3.09375 8.23438 3 8 3C7.71875 3 7.48438 3.09375 7.34375 3.28125C6.875 3.98438 5.75 5.76562 5.75 6.70312C5.75 7.96875 6.73438 8.95312 8 8.95312ZM8 5.10938C8.42188 5.8125 8.70312 6.46875 8.75 6.70312C8.75 7.125 8.375 7.45312 8 7.45312C7.57812 7.45312 7.25 7.125 7.25 6.70312C7.25 6.46875 7.53125 5.8125 8 5.10938ZM20 19.4531C19.3438 19.4531 18.875 19.9688 18.875 20.5781C18.875 21.2344 19.3438 21.7031 20 21.7031C20.6094 21.7031 21.125 21.2344 21.125 20.5781C21.125 19.9688 20.6094 19.4531 20 19.4531ZM22.3906 16.7812L21.6406 13.5469C21.3125 12.1875 20.1406 11.2031 18.7344 11.2031H10.5781C9.21875 11.2031 8 12.1875 7.67188 13.5469L6.92188 16.875C5.79688 17.4375 5 18.6094 5 19.9688V22.5469C5 23.4844 5.60938 24.3281 6.5 24.6094V26.2031C6.5 26.625 6.82812 26.9531 7.25 26.9531C7.625 26.9531 8 26.625 8 26.2031V24.7031H21.5V26.2031C21.5 26.625 21.8281 26.9531 22.25 26.9531C22.625 26.9531 23 26.625 23 26.2031V24.6094C23.8906 24.3281 24.4531 23.4844 24.5 22.5469V19.9688C24.5 18.6094 23.6562 17.3438 22.3906 16.7812ZM9.125 13.875C9.3125 13.2188 9.92188 12.75 10.625 12.75H18.7344C19.4375 12.75 20.0469 13.2188 20.1875 13.875L20.7969 16.5H8.5625L9.125 13.875ZM23 22.5469C23 22.9219 22.6719 23.25 22.2969 23.25H7.15625C6.78125 23.2031 6.5 22.9219 6.5 22.5469V19.9688C6.5 18.8906 7.39062 18 8.46875 18H20.9844C22.0625 18 23 18.8906 23 19.9688V22.5469ZM9.5 19.4531C8.84375 19.4531 8.375 19.9688 8.375 20.5781C8.375 21.2344 8.84375 21.7031 9.5 21.7031C10.1094 21.7031 10.625 21.2344 10.625 20.5781C10.625 19.9688 10.1094 19.4531 9.5 19.4531Z" fill="#5C8EE6"/>
        </g>
    </symbol>

    <symbol viewBox="0 0 30 30" id="householdChemicals">
        <g xmlns="http://www.w3.org/2000/svg">
            <path d="M28.9531 26.1562C28.9531 25.7812 28.6719 25.4531 28.2969 25.4062C25.5781 25.0312 25.2969 23.2031 24.4531 23.2031C24.2188 23.2031 23.9844 23.2969 23.8438 23.4844C22.9531 24.7031 21.5 25.4531 19.9531 25.4531C18.3594 25.4531 16.9062 24.7031 16.0625 23.4844C15.9219 23.2969 15.6875 23.2031 15.4531 23.2031C15.2188 23.2031 14.9844 23.2969 14.8438 23.4844C13.9531 24.7031 12.5 25.4531 10.9531 25.4531C7.76562 25.4531 7.34375 23.25 6.5 23.25C6.21875 23.25 5.98438 23.3438 5.84375 23.5312C4.10938 25.9688 2 24.8438 2 26.2031C2 26.8125 2.60938 26.9531 2.70312 26.9531C3.21875 26.9531 5.04688 26.5781 6.45312 25.125C7.625 26.2969 9.26562 26.9531 11 26.9531C12.7344 26.9531 14.3281 26.2969 15.5 25.125C16.625 26.2969 18.2656 27 20 27C21.6875 27 23.3281 26.2969 24.5 25.125C25.9062 26.5781 27.7812 26.9531 28.25 26.9531C28.8594 26.9062 28.9531 26.2969 28.9531 26.1562ZM13.0156 11.9531C12.3125 11.9531 11.75 12.4688 11.75 13.1719V18.1875C11.75 18.8906 12.2656 19.4531 13.0156 19.4531H17.9844C18.6875 19.4531 19.25 18.8906 19.25 18.1875V13.1719C19.25 12.5156 18.7344 11.9531 17.9844 11.9531H13.0156ZM17.75 17.9531H13.25V13.4531H17.7031V17.9531H17.75ZM2.75 15.7031C2.89062 15.7031 3.07812 15.6094 3.21875 15.5156L5 13.9688V20.2031C5 20.5781 5.32812 20.9062 5.70312 20.9062C6.07812 20.9062 6.40625 20.5781 6.40625 20.2031V12.7031C6.40625 12.6562 6.40625 12.6562 6.35938 12.6562L15.5 4.73438L24.5 12.6562C24.5 12.7031 24.4531 12.7031 24.4531 12.7031V20.2031C24.4531 20.5781 24.8281 20.9062 25.2031 20.9062C25.5781 20.9062 25.9062 20.5781 25.9062 20.2031V13.9688L27.6406 15.5156C27.7812 15.6094 27.9688 15.7031 28.1562 15.7031C28.5781 15.7031 28.9062 15.3281 28.9062 14.9531C28.9062 14.7188 28.8125 14.5312 28.625 14.4375L25.9062 12V5.25C25.9062 4.82812 25.5781 4.5 25.2031 4.5H20.7031C20.3281 4.5 20 4.875 20 5.25V6.70312L15.9688 3.14062C15.8281 3.04688 15.6406 3 15.5 3C15.3125 3 15.125 3.04688 14.9844 3.14062L2.23438 14.3906C2.04688 14.5781 2 14.7656 2 14.9531C2 15.375 2.32812 15.7031 2.75 15.7031ZM21.4531 5.95312H24.4062V10.6406L21.4531 7.96875V5.95312Z" fill="#5C8EE6"/>
        </g>
    </symbol>

    <symbol viewBox="0 0 30 30" id="dezinfectedSubstance">
        <g xmlns="http://www.w3.org/2000/svg">
            <path d="M14.75 11.25C14.3281 11.25 14 11.625 14 12C14 12.4219 14.3281 12.75 14.75 12.75C15.125 12.75 15.5 12.375 15.5 12C15.5 11.625 15.125 11.25 14.75 11.25ZM20 10.5H19.3906C18.5 10.5 17.8906 9.75 17.8906 8.95312C17.8906 8.625 18.0312 8.20312 18.3594 7.92188L18.7344 7.5C18.875 7.35938 18.9688 7.17188 18.9688 6.98438C18.9688 6.60938 18.6406 6.28125 18.2188 6.28125C18.0312 6.28125 17.8438 6.375 17.7031 6.51562L17.2812 6.89062C17 7.21875 16.625 7.35938 16.25 7.35938C15.4531 7.35938 14.7031 6.75 14.7031 5.85938V5.25C14.7031 4.82812 14.375 4.5 13.9531 4.5C13.5781 4.5 13.2031 4.82812 13.2031 5.25V5.8125C13.2031 6.70312 12.5 7.3125 11.7031 7.3125C11.3281 7.3125 10.9531 7.17188 10.6719 6.84375L10.25 6.51562C10.1094 6.32812 9.92188 6.28125 9.73438 6.28125C9.3125 6.28125 8.98438 6.60938 8.98438 6.98438C8.98438 7.17188 9.07812 7.35938 9.21875 7.5L9.59375 7.92188C9.92188 8.25 10.0625 8.625 10.0625 9C10.0625 9.79688 9.45312 10.5469 8.5625 10.5469H8C7.57812 10.5469 7.25 10.875 7.25 11.2969C7.25 11.6719 7.57812 12.0469 8 12.0469H8.5625C9.45312 12.0469 10.0625 12.75 10.0625 13.5469C10.0625 13.9219 9.92188 14.2969 9.59375 14.5781L9.21875 15C9.07812 15.1406 8.98438 15.3281 8.98438 15.5156C8.98438 15.9375 9.3125 16.2188 9.73438 16.2188C9.92188 16.2188 10.1094 16.1719 10.25 15.9844L10.6719 15.6094C10.9531 15.2812 11.3281 15.1406 11.7031 15.1406C12.0312 15.1406 13.25 15.4219 13.25 16.6406V17.25C13.25 17.625 13.5781 18 14 18C14.375 18 14.75 17.625 14.75 17.25V16.6406C14.75 15.75 15.4531 15.1406 16.25 15.1406C16.625 15.1406 17 15.2812 17.2812 15.6094L17.7031 15.9844C17.8438 16.1719 18.0312 16.2188 18.2188 16.2188C18.6406 16.2188 18.9688 15.8906 18.9688 15.5156C18.9688 15.3281 18.875 15.1406 18.7344 15L18.3594 14.5781C18.0312 14.2969 17.8906 13.9219 17.8906 13.5469C17.8906 12.75 18.5 12 19.3906 12H20C20.375 12 20.75 11.6719 20.75 11.25C20.75 10.875 20.375 10.5 20 10.5ZM16.3906 13.5469C16.3906 13.5938 16.3906 13.6406 16.3906 13.6875C16.3438 13.6875 16.2969 13.6875 16.25 13.6875C15.3594 13.6875 14.5156 14.1094 13.9531 14.7188C13.4375 14.1094 12.6406 13.6875 11.7031 13.6875C11.6562 13.6875 11.6094 13.6875 11.5156 13.6875C11.5625 13.6406 11.5625 13.5938 11.5625 13.5469C11.5625 12.8438 11.2812 11.9531 10.5312 11.2969C11.1406 10.7344 11.5625 9.89062 11.5625 9C11.5625 8.95312 11.5625 8.90625 11.5156 8.85938C11.6094 8.85938 11.6562 8.85938 11.7031 8.85938C12.5938 8.85938 13.4375 8.4375 13.9531 7.82812C14.5156 8.4375 15.3125 8.85938 16.25 8.85938C16.2969 8.85938 16.3438 8.85938 16.3906 8.85938C16.3906 8.90625 16.3906 8.95312 16.3906 9C16.3906 9.84375 16.7656 10.6875 17.4219 11.2969C16.8125 11.8125 16.3906 12.6562 16.3906 13.5469ZM13.25 9.75C12.8281 9.75 12.5 10.0781 12.5 10.5C12.5 10.875 12.8281 11.25 13.25 11.25C13.625 11.25 14 10.9219 14 10.5C14 10.125 13.625 9.75 13.25 9.75ZM23.8438 3.9375L14.8438 0.1875C14.6094 0.09375 14.2344 0 14 0C13.7188 0 13.3438 0.09375 13.1094 0.1875L4.10938 3.9375C3.26562 4.3125 2.75 5.10938 2.75 6C2.75 18.0938 11.6094 24 13.9531 24C16.3906 24 25.25 18 25.25 6C25.25 5.10938 24.6875 4.3125 23.8438 3.9375ZM13.9531 22.5C11.9375 22.5 4.25 16.6875 4.25 6C4.25 5.67188 4.39062 5.39062 4.67188 5.29688L13.6719 1.54688C13.7656 1.5 13.9062 1.5 14 1.5C14.0469 1.5 14.2344 1.5 14.2812 1.54688L23.2812 5.29688C23.5625 5.4375 23.75 5.71875 23.75 6C23.75 18.2812 14.5625 22.5 13.9531 22.5Z" fill="#5C8EE6"/>
        </g>
    </symbol>

    <symbol viewBox="0 0 30 30" id="foodAerosols">
        <g xmlns="http://www.w3.org/2000/svg">
            <path d="M25.875 6.75C26.4844 6.75 27 6.28125 27 5.625C27 5.01562 26.4844 4.5 25.875 4.5C25.2188 4.5 24.75 5.01562 24.75 5.625C24.75 6.28125 25.2188 6.75 25.875 6.75ZM10.5 14.25C8.39062 14.25 6.75 15.9375 6.75 18C6.75 20.1094 8.39062 21.75 10.5 21.75C12.5625 21.75 14.25 20.1094 14.25 18C14.25 15.9375 12.5625 14.25 10.5 14.25ZM10.5 20.25C9.23438 20.25 8.25 19.2656 8.25 18C8.25 16.7812 9.23438 15.75 10.5 15.75C11.7188 15.75 12.75 16.7812 12.75 18C12.75 19.2656 11.7188 20.25 10.5 20.25ZM25.875 13.5C25.2188 13.5 24.75 14.0156 24.75 14.625C24.75 15.2812 25.2188 15.75 25.875 15.75C26.4844 15.75 27 15.2812 27 14.625C27 14.0156 26.4844 13.5 25.875 13.5ZM21.375 4.5C20.7188 4.5 20.25 5.01562 20.25 5.625C20.25 6.28125 20.7188 6.75 21.375 6.75C21.9844 6.75 22.5 6.28125 22.5 5.625C22.5 5.01562 21.9844 4.5 21.375 4.5ZM13.5 9V4.5C13.5 3.70312 12.7969 3 12 3H9C8.15625 3 7.5 3.70312 7.5 4.5V9C5.01562 9 3 11.0156 3 13.5V24C3 25.6875 4.3125 27 6 27H15C16.6406 27 18 25.6875 18 24V13.5C18 11.0156 15.9844 9 13.5 9ZM9 4.5H12V9H9V4.5ZM16.5 24C16.5 24.8438 15.7969 25.5 15 25.5H6C5.15625 25.5 4.5 24.8438 4.5 24V13.5C4.5 11.8594 5.8125 10.5 7.5 10.5H13.5C15.1406 10.5 16.5 11.8594 16.5 13.5V24ZM25.875 9C25.2188 9 24.75 9.51562 24.75 10.125C24.75 10.7812 25.2188 11.25 25.875 11.25C26.4844 11.25 27 10.7812 27 10.125C27 9.51562 26.4844 9 25.875 9ZM21.375 9C20.7188 9 20.25 9.51562 20.25 10.125C20.25 10.7812 20.7188 11.25 21.375 11.25C21.9844 11.25 22.5 10.7812 22.5 10.125C22.5 9.51562 21.9844 9 21.375 9ZM16.875 4.5C16.2188 4.5 15.75 5.01562 15.75 5.625C15.75 6.28125 16.2188 6.75 16.875 6.75C17.4844 6.75 18 6.28125 18 5.625C18 5.01562 17.4844 4.5 16.875 4.5Z" fill="#5C8EE6"/>
        </g>
    </symbol>

    <symbol viewBox="0 0 30 30" id="cosmeticalProduction">
        <g xmlns="http://www.w3.org/2000/svg">
            <path d="M15 22.5C15.375 22.5 15.75 22.1719 15.75 21.75V20.25H17.25C17.625 20.25 18 19.9219 18 19.5C18 19.125 17.625 18.75 17.25 18.75H15.75V17.25C15.75 16.875 15.375 16.5 15 16.5C14.5781 16.5 14.25 16.875 14.25 17.25V18.75H12.75C12.3281 18.75 12 19.125 12 19.5C12 19.9219 12.3281 20.25 12.75 20.25H14.25V21.75C14.25 22.1719 14.5781 22.5 15 22.5ZM3.75 13.5C4.125 13.5 4.5 13.1719 4.5 12.75V10.5H6C6.375 10.5 6.75 10.1719 6.75 9.75C6.75 9.375 6.375 9 6 9H4.5V6.75C4.5 6.375 4.125 6 3.75 6C3.32812 6 3 6.375 3 6.75V9H0.75C0.328125 9 0 9.375 0 9.75C0 10.0781 0.328125 10.5 0.75 10.5H3V12.75C3 13.1719 3.32812 13.5 3.75 13.5ZM29.25 22.5H27V20.25C27 19.875 26.625 19.5 26.25 19.5C25.8281 19.5 25.5 19.875 25.5 20.25V22.5H23.25C22.8281 22.5 22.5 22.875 22.5 23.25C22.5 23.625 22.8281 24 23.25 24H25.5V26.25C25.5 26.6719 25.8281 27 26.25 27C26.625 27 27 26.6719 27 26.25V24H29.25C29.625 24 29.9531 23.6719 29.9531 23.2969C29.9531 22.9219 29.625 22.5 29.25 22.5ZM21.375 24.5625C20.8594 24.5625 20.0625 25.5 17.9531 25.5H13.2188C11.4375 25.5 9.79688 24.6562 8.76562 23.25L4.73438 17.9062C4.54688 17.6719 4.45312 17.4375 4.45312 17.1562C4.45312 16.5469 4.96875 16.125 5.53125 16.125C5.76562 16.125 6.14062 16.2188 6.42188 16.5938L8.01562 18.7031C8.29688 19.0781 8.76562 19.3125 9.1875 19.3125C9.375 19.3125 10.5 19.1719 10.5 18.0469C10.5 18.0469 10.5 18.0469 10.5 18V7.17188C10.5 6.60938 10.9219 6 11.625 6C12.2344 6 12.75 6.51562 12.75 7.125V14.25C12.75 14.3438 12.8438 15.0469 13.5 15.0469C13.875 15.0469 14.2031 14.6719 14.2031 14.2969V5.67188C14.2031 5.10938 14.625 4.5 15.3281 4.5C15.9375 4.5 16.4531 5.01562 16.4531 5.625V14.25C16.4531 14.3438 16.5469 15.0469 17.2031 15.0469C17.5781 15.0469 17.9531 14.6719 17.9531 14.2969V7.17188C17.9531 6.60938 18.375 6 19.0781 6C19.6875 6 20.2031 6.51562 20.2031 7.125V14.2031C20.2031 14.3438 20.2969 15 20.9531 15C21.3281 15 21.7031 14.6719 21.7031 14.2969V9.42188C21.7031 8.8125 22.125 8.25 22.8281 8.25C23.4375 8.25 23.9531 8.76562 23.9531 9.375V17.1094C23.9531 17.4844 24.2812 17.8594 24.7031 17.8594C25.0781 17.8594 25.5 17.4844 25.5 17.1094V9.46875C25.5 8.4375 24.7031 6.75 22.8281 6.75C22.4531 6.75 22.0781 6.84375 21.7031 6.98438C21.6562 5.625 20.4844 4.5 19.0781 4.5C18.6094 4.5 18.1875 4.64062 17.8125 4.82812C17.4844 3.79688 16.5 3 15.3281 3C14.1562 3 13.2188 3.79688 12.8438 4.875C12.4688 4.64062 12.0469 4.5 11.625 4.5C9.75 4.5 9 6.23438 9 7.26562V17.4375L7.54688 15.6094C7.07812 15 6.32812 14.625 5.53125 14.625C4.125 14.625 3 15.7031 3 17.1562C3 17.7188 3.14062 18.3281 3.51562 18.7969L7.59375 24.1406C8.85938 25.9219 10.9688 27 13.2188 27H18C19.5 27 22.125 26.2969 22.125 25.3125C22.125 25.0312 21.9375 24.5625 21.375 24.5625Z" fill="#5C8EE6"/>
        </g>
    </symbol>

    <symbol viewBox="0 0 30 30" id="colorsAerosols">
        <g xmlns="http://www.w3.org/2000/svg">
            <path d="M22.5 3H7.5C6.65625 3 6 3.70312 6 4.5V18C6 19.6875 7.3125 21 9 21H12V24C12 25.6875 13.3125 27 15 27C16.6406 27 18 25.6875 18 24V21H21C22.6406 21 24 19.6875 24 18V4.5C24 3.70312 23.2969 3 22.5 3ZM22.5 18C22.5 18.8438 21.7969 19.5 21 19.5H16.5V24C16.5 24.8438 15.7969 25.5 15 25.5C14.1562 25.5 13.5 24.8438 13.5 24V19.5H9C8.15625 19.5 7.5 18.8438 7.5 18V16.5H22.5V18ZM22.5 15H7.5V4.5H22.5V15Z" fill="#5C8EE6"/>
        </g>
    </symbol>

    <symbol viewBox="0 0 24 24" id="downloadIcon">
        <g xmlns="http://www.w3.org/2000/svg">
            <path d="M16.375 21H7.375C5.47656 21 4 19.5234 4 17.625V15.0938C4 14.6367 4.35156 14.25 4.84375 14.25C5.30078 14.25 5.6875 14.6367 5.6875 15.0938V17.625C5.6875 18.5742 6.42578 19.3125 7.375 19.3125H16.375C17.2891 19.3125 18.0625 18.5742 18.0625 17.625V15.0938C18.0625 14.6367 18.4141 14.25 18.9062 14.25C19.3633 14.25 19.75 14.6367 19.75 15.0938V17.625C19.75 19.4883 18.2383 21 16.375 21ZM12.4375 15.1641L17.2188 10.6641C17.5703 10.3477 17.5703 9.82031 17.2539 9.46875C16.9375 9.11719 16.4102 9.11719 16.0586 9.43359L12.7188 12.5977V3.84375C12.7188 3.38672 12.332 3 11.875 3C11.3828 3 11.0312 3.38672 11.0312 3.84375V12.5977L7.65625 9.43359C7.30469 9.11719 6.77734 9.11719 6.46094 9.46875C6.32031 9.64453 6.25 9.85547 6.25 10.0312C6.25 10.2773 6.32031 10.4883 6.49609 10.6641L11.2773 15.1641C11.5938 15.4805 12.1211 15.4805 12.4375 15.1641Z" fill="white"/>
        </g>
    </symbol>

</svg>