<svg width="720" height="433" viewBox="0 0 720 433" fill="none" xmlns="http://www.w3.org/2000/svg">
<g clip-path="url(#clip0_1483_5401)">
<path d="M120.82 412.168C120.244 412.195 119.672 412.043 119.185 411.734C118.697 411.424 118.315 410.972 118.093 410.438C117.87 409.904 117.816 409.315 117.939 408.749C118.062 408.184 118.355 407.67 118.779 407.277L118.972 406.508C118.947 406.447 118.921 406.385 118.896 406.324C118.314 404.948 117.341 403.776 116.096 402.953C114.852 402.13 113.393 401.694 111.902 401.7C110.412 401.705 108.956 402.152 107.718 402.984C106.48 403.816 105.515 404.996 104.944 406.376C102.662 411.882 99.7565 417.399 99.0412 423.221C98.7261 425.795 98.859 428.404 99.4339 430.932C94.0744 419.218 91.2913 406.485 91.2734 393.599C91.2723 390.365 91.4516 387.134 91.8105 383.92C92.1071 381.285 92.5186 378.669 93.045 376.072C95.9177 361.981 102.085 348.773 111.041 337.534C115.376 335.164 118.882 331.52 121.086 327.092C121.884 325.501 122.448 323.802 122.761 322.048C122.272 322.113 120.917 314.651 121.286 314.193C120.605 313.157 119.385 312.642 118.641 311.631C114.939 306.602 109.84 307.48 107.178 314.313C101.49 317.189 101.435 321.959 104.925 326.546C107.145 329.465 107.45 333.414 109.398 336.538C109.198 336.795 108.989 337.044 108.789 337.301C105.125 342.021 101.932 347.09 99.2558 352.434C99.9067 346.447 99.1298 340.391 96.989 334.763C94.8193 329.519 90.7525 325.102 87.1712 320.568C82.8695 315.122 74.0484 317.498 73.2906 324.402C73.2832 324.469 73.276 324.536 73.2691 324.602C73.801 324.903 74.3217 325.222 74.8312 325.56C75.4712 325.988 75.9672 326.601 76.254 327.316C76.5409 328.032 76.6053 328.818 76.4388 329.571C76.2723 330.324 75.8827 331.009 75.321 331.536C74.7592 332.064 74.0516 332.409 73.2909 332.526L73.213 332.538C73.4025 334.459 73.7374 336.363 74.215 338.233C69.6206 356.036 79.5395 362.52 93.7024 362.811C94.015 362.972 94.3197 363.133 94.6324 363.285C91.9431 370.922 90.2562 378.876 89.6142 386.948C89.2507 391.71 89.2721 396.494 89.6783 401.253L89.6542 401.085C88.6281 395.793 85.8108 391.018 81.6781 387.566C75.54 382.514 66.868 380.654 60.2461 376.593C59.5424 376.14 58.7241 375.898 57.8878 375.896C57.0515 375.894 56.232 376.132 55.5261 376.581C54.8201 377.03 54.2572 377.673 53.9035 378.432C53.5499 379.191 53.4203 380.036 53.5302 380.867C53.5391 380.926 53.5481 380.985 53.5573 381.044C54.5444 381.447 55.5055 381.911 56.4351 382.434C56.967 382.735 57.4877 383.054 57.9972 383.391C58.6372 383.82 59.1331 384.432 59.42 385.148C59.7068 385.863 59.7712 386.649 59.6047 387.402C59.4382 388.155 59.0486 388.84 58.4869 389.368C57.9252 389.895 57.2176 390.24 56.4569 390.358L56.3789 390.37C56.3228 390.378 56.2747 390.386 56.2187 390.394C57.9053 394.429 60.2725 398.143 63.2167 401.374C66.0895 416.915 78.4279 418.389 91.6262 413.864H91.6342C93.0823 420.169 95.1805 426.306 97.8949 432.177H120.26C120.34 431.928 120.412 431.671 120.485 431.422C118.414 431.552 116.336 431.428 114.296 431.052C115.955 429.012 117.615 426.956 119.274 424.916C119.311 424.878 119.346 424.838 119.378 424.795C120.22 423.751 121.07 422.715 121.911 421.671L121.912 421.67C121.957 418.469 121.59 415.276 120.821 412.169L120.82 412.168Z" fill="#F0F2F5"/>
<path d="M587.954 412.168C588.531 412.195 589.102 412.043 589.59 411.734C590.078 411.424 590.459 410.972 590.682 410.438C590.905 409.904 590.959 409.315 590.836 408.749C590.713 408.184 590.42 407.67 589.996 407.277L589.803 406.508C589.828 406.447 589.854 406.385 589.879 406.324C590.46 404.948 591.434 403.776 592.678 402.953C593.923 402.13 595.382 401.694 596.872 401.7C598.363 401.705 599.819 402.152 601.057 402.984C602.295 403.816 603.26 404.996 603.831 406.376C606.113 411.882 609.018 417.399 609.734 423.221C610.049 425.795 609.916 428.404 609.341 430.932C614.7 419.218 617.483 406.485 617.501 393.599C617.503 390.365 617.323 387.134 616.964 383.92C616.668 381.285 616.256 378.669 615.73 376.072C612.857 361.981 606.69 348.773 597.733 337.534C593.399 335.164 589.893 331.52 587.689 327.092C586.891 325.501 586.326 323.802 586.014 322.048C586.503 322.113 587.857 314.651 587.489 314.193C588.17 313.157 589.39 312.642 590.134 311.631C593.835 306.602 598.935 307.48 601.597 314.313C607.284 317.189 607.339 321.959 603.85 326.546C601.63 329.465 601.325 333.414 599.377 336.538C599.577 336.795 599.786 337.044 599.986 337.301C603.649 342.021 606.842 347.09 609.519 352.434C608.868 346.447 609.645 340.391 611.786 334.763C613.956 329.519 618.022 325.102 621.604 320.568C625.905 315.122 634.726 317.498 635.484 324.402C635.492 324.469 635.499 324.536 635.506 324.602C634.974 324.903 634.453 325.222 633.944 325.56C633.304 325.988 632.808 326.601 632.521 327.316C632.234 328.032 632.169 328.818 632.336 329.571C632.502 330.324 632.892 331.009 633.454 331.536C634.016 332.064 634.723 332.409 635.484 332.526L635.562 332.538C635.372 334.459 635.037 336.363 634.56 338.233C639.154 356.036 629.235 362.52 615.072 362.811C614.76 362.972 614.455 363.133 614.142 363.285C616.832 370.922 618.519 378.876 619.161 386.948C619.524 391.71 619.503 396.494 619.096 401.253L619.121 401.085C620.147 395.793 622.964 391.018 627.097 387.566C633.235 382.514 641.907 380.654 648.529 376.593C649.232 376.14 650.051 375.898 650.887 375.896C651.723 375.894 652.543 376.132 653.249 376.581C653.955 377.03 654.518 377.673 654.871 378.432C655.225 379.191 655.355 380.036 655.245 380.867C655.236 380.926 655.227 380.985 655.218 381.044C654.23 381.447 653.269 381.911 652.34 382.434C651.808 382.735 651.287 383.054 650.778 383.391C650.138 383.82 649.642 384.432 649.355 385.148C649.068 385.863 649.004 386.649 649.17 387.402C649.337 388.155 649.726 388.84 650.288 389.368C650.85 389.895 651.557 390.24 652.318 390.358L652.396 390.37C652.452 390.378 652.5 390.386 652.556 390.394C650.87 394.429 648.502 398.143 645.558 401.374C642.685 416.915 630.347 418.389 617.149 413.864H617.141C615.692 420.169 613.594 426.306 610.88 432.177H588.515C588.434 431.928 588.362 431.671 588.29 431.422C590.36 431.552 592.439 431.428 594.479 431.052C592.819 429.012 591.16 426.956 589.501 424.916C589.464 424.878 589.429 424.838 589.397 424.795C588.555 423.751 587.705 422.715 586.863 421.671L586.863 421.67C586.818 418.469 587.185 415.276 587.954 412.169L587.954 412.168Z" fill="#F0F2F5"/>
<path d="M146.545 431.675H182.635C188.808 410.85 182.668 361.634 190.804 341.518C206.413 302.949 226.355 262.252 263.574 243.42C279.466 235.378 296.793 232.237 314.488 232.408C338.933 232.641 364.065 239.216 387.074 247.929C396.486 251.486 405.812 255.396 415.102 259.393C450.1 274.461 484.718 290.874 522.354 295.31C569.98 300.92 625.975 279.57 638.982 233.582C648.91 198.373 631.031 161.819 612.28 130.374C593.529 98.9296 572.569 65.2848 575.993 28.8782C576.005 28.756 576.018 28.6215 576.042 28.4994C577.331 15.4228 585.123 6.02499 596.008 0H548.615C547.99 33.9624 567.599 63.9406 585.246 93.54C603.996 124.973 621.876 161.538 611.948 196.747C598.941 242.723 491.23 188.83 443.605 183.208C430.155 181.632 451.52 187.241 438.696 183.208C418.583 176.89 416.354 234.84 396.781 226.335C384.595 221.031 372.397 215.763 360.04 211.083C354.923 209.139 349.695 207.319 344.406 205.632C344.394 205.632 344.394 205.632 344.382 205.62C308.868 194.352 270.029 189.965 237.215 206.255C236.994 206.365 236.761 206.475 236.54 206.585C199.321 225.406 179.38 266.102 163.77 304.672C150.873 336.557 152.901 398.042 146.545 431.675Z" fill="#F0F2F5"/>
<path d="M347.336 430.609C438.882 430.609 513.095 356.248 513.095 264.519C513.095 172.791 438.882 98.4303 347.336 98.4303C255.789 98.4303 181.576 172.791 181.576 264.519C181.576 356.248 255.789 430.609 347.336 430.609Z" fill="white"/>
<path d="M346.862 431.675C182.86 435.45 179.264 357.379 179.264 264.519C179.264 171.661 254.661 96.1138 347.336 96.1138C440.011 96.1138 515.408 171.661 515.408 264.519C515.408 357.379 439.537 431.675 346.862 431.675ZM347.336 100.748C257.21 100.748 185.406 174.228 183.888 264.519C182.477 348.501 271.516 453.298 347.336 428.292C387.995 383.423 502.952 335.097 510.783 264.519C520.742 174.768 437.461 100.748 347.336 100.748V100.748Z" fill="#292D33"/>
<path d="M324.724 350.961C321.862 350.961 319.038 350.293 316.478 349.01C313.918 347.727 311.692 345.865 309.975 343.57L264.753 283.153C263.299 281.212 262.241 279.003 261.639 276.653C261.037 274.302 260.903 271.855 261.245 269.453C261.587 267.05 262.398 264.739 263.632 262.65C264.866 260.562 266.499 258.738 268.436 257.282C270.374 255.826 272.579 254.766 274.925 254.164C277.272 253.562 279.713 253.43 282.111 253.773C284.509 254.117 286.815 254.931 288.899 256.168C290.982 257.406 292.802 259.042 294.254 260.984L323.84 300.507L399.827 186.302C402.541 182.228 406.758 179.4 411.552 178.441C416.346 177.481 421.324 178.469 425.392 181.186C429.459 183.903 432.284 188.127 433.244 192.93C434.204 197.733 433.221 202.722 430.511 206.799L340.068 342.734C338.431 345.192 336.231 347.222 333.651 348.652C331.07 350.083 328.185 350.872 325.237 350.955C325.066 350.958 324.895 350.961 324.724 350.961Z" fill="#F0F2F5"/>
<path d="M5.28436e-06 431.804C-0.000462305 431.961 0.0301057 432.117 0.0899417 432.262C0.149778 432.408 0.237707 432.54 0.348668 432.651C0.459629 432.762 0.591424 432.85 0.736489 432.91C0.881554 432.97 1.03703 433.001 1.19395 433H718.806C719.123 433 719.426 432.874 719.65 432.65C719.874 432.425 720 432.121 720 431.804C720 431.487 719.874 431.182 719.65 430.958C719.426 430.734 719.123 430.608 718.806 430.608H1.19395C1.03703 430.607 0.881567 430.638 0.736504 430.698C0.591441 430.758 0.459643 430.846 0.348683 430.957C0.237723 431.068 0.149795 431.2 0.089957 431.345C0.0301191 431.491 -0.000456978 431.647 5.28436e-06 431.804Z" fill="#F0F2F5"/>
<path d="M453.186 420.077H443.48L438.863 382.564L453.189 382.565L453.186 420.077Z" fill="#FFB6B6"/>
<path d="M453.529 430.223L423.682 430.222V429.843C423.682 426.756 424.906 423.796 427.085 421.613C429.263 419.43 432.218 418.203 435.299 418.203H435.3L440.752 414.059L450.924 418.204L453.529 418.204L453.529 430.223Z" fill="#323A46"/>
<path d="M410.99 373.587L402.025 377.312L383.418 344.434L396.651 338.936L410.99 373.587Z" fill="#FFB6B6"/>
<path d="M415.185 382.827L387.614 394.282L387.47 393.933C386.29 391.081 386.289 387.877 387.466 385.024C388.644 382.171 390.905 379.904 393.751 378.722L393.751 378.721L397.203 372.8L408.184 372.725L410.591 371.725L415.185 382.827Z" fill="#323A46"/>
<path d="M464.285 206.687L395.404 213.898L386.19 244.993L354.281 296.374C354.281 296.374 376.547 333.924 374.456 333.515C372.366 333.106 376.544 343.341 379.471 342.747C382.398 342.153 385.442 348.827 383.418 350.013C381.395 351.2 389.513 361.233 389.513 361.233L401.921 350.075C404.56 330.128 401.371 312.376 390.011 297.7L425.559 259.247L432.3 256.444L437.65 399.135L457.441 399.46C462.902 371.313 465.645 345.979 461.377 327.906C461.377 327.906 461.99 273.615 464.331 274.208C466.671 274.802 464.687 267.729 464.687 267.729C464.687 267.729 462.637 261.705 465.156 259.206C467.674 256.708 466.102 242.01 466.102 242.01C470.263 228.101 469.01 216.616 464.285 206.687Z" fill="#323A46"/>
<path d="M411.322 91.9376L430.364 86.9934L439.253 74.7093L460.363 77.3095L464.856 94.0651L479.884 102.806C479.884 102.806 471.578 190.836 473.554 195.67C475.53 200.504 482.614 200.105 476.564 206.336C470.513 212.566 469.712 210.057 471.116 216.84C472.52 223.624 482.754 230.803 471.116 230.732C459.478 230.661 389.251 229.656 391.257 221.614C393.263 213.572 393.232 215.614 396.257 210.572C399.283 205.53 401.319 208.347 400.301 200.907C399.283 193.467 400.286 188.441 400.286 184.42C400.286 180.399 403.648 143.86 403.648 143.86L411.322 91.9376Z" fill="#F0F2F5"/>
<path d="M449.755 72.4387C462.109 72.4387 472.125 62.4035 472.125 50.0243C472.125 37.6452 462.109 27.6099 449.755 27.6099C437.4 27.6099 427.385 37.6452 427.385 50.0243C427.385 62.4035 437.4 72.4387 449.755 72.4387Z" fill="#FFB6B6"/>
<path d="M426.316 36.4591C428.28 38.0496 427.831 45.7845 430.02 44.5237C432.208 43.263 432.664 41.0053 435.184 40.9816C437.239 41.0953 439.177 41.9741 440.618 43.4456C440.887 43.6886 441.142 43.9432 441.389 44.195C441.616 44.1154 441.84 44.0432 442.076 43.9841C443.843 43.5516 445.709 43.8149 447.289 44.7196C445.83 44.824 444.441 45.3851 443.318 46.3238C443.799 46.864 444.287 47.4072 444.8 47.9093C449.085 52.1161 457.869 47.6361 463.776 46.6252C458.856 52.0073 459.826 55.0118 461.05 62.2055L461.055 62.5985C461.306 60.9395 466.609 61.0222 465.735 63.2235C464.637 65.3981 463.263 67.4215 461.648 69.2435C468.873 64.2281 474.706 57.3149 475.995 48.9639C476.259 47.2081 476.776 45.4166 476.276 43.7046C476.064 42.839 475.572 42.0682 474.877 41.5126C474.181 40.957 473.321 40.6479 472.432 40.6336C473.237 38.0719 473.334 35.3396 472.713 32.7271C472.092 30.1145 470.776 27.7195 468.905 25.7966C467.033 23.8736 464.677 22.4947 462.087 21.8063C459.496 21.118 456.767 21.1459 454.191 21.8872C451.841 22.7241 449.549 23.7154 447.33 24.8547C445.089 25.9984 442.554 26.4287 440.062 26.088C438.51 25.7668 436.939 24.9616 435.417 25.4175C433.655 25.9472 432.897 27.8125 432.19 29.6131C433.517 30.0984 434.668 30.9688 435.498 32.1132C434.127 31.6063 432.632 31.5454 431.224 31.9392C431.198 31.9438 431.173 31.9507 431.148 31.9599C429.552 34.8254 429.46 35.5281 426.316 36.4591Z" fill="#323A46"/>
<path d="M433.693 80.9891C422.235 80.0648 411.773 88.8448 407.003 99.3242C402.233 109.803 401.921 121.691 401.689 133.207L400.97 169.002C400.863 174.299 400.757 179.597 400.493 184.888C400.358 190.037 399.711 195.159 398.564 200.18C396.228 209.393 391.089 217.603 386.025 225.641C398.99 229.567 412.174 232.723 425.51 235.09C432.17 213.506 438.906 191.301 437.269 168.769C436.402 156.846 433.202 145.205 431.985 133.312C430.262 116.469 432.546 99.502 434.825 82.7254" fill="#292D33"/>
<path d="M461.505 83.0023C472.854 84.8308 480.936 95.849 483.086 107.164C485.236 118.478 482.722 130.1 480.218 141.341C477.623 152.989 475.028 164.636 472.433 176.284C471.281 181.455 470.129 186.626 469.131 191.829C468.161 196.883 472.223 203.365 472.269 208.512C472.355 218.017 470.513 225.845 473.527 234.858C460.003 235.588 446.448 235.516 432.932 234.642C431.578 212.091 430.297 188.919 437.228 167.421C440.895 156.045 446.763 145.498 450.763 134.235C456.429 118.284 458.232 101.259 459.994 84.4195" fill="#292D33"/>
<path d="M469.069 245.501C468.227 244.029 467.99 242.286 468.41 240.642C468.831 238.998 469.875 237.584 471.32 236.699C471.616 236.524 471.927 236.374 472.248 236.25L470.801 186.877L486.478 182.879L480.5 240.401C480.909 241.776 480.853 243.247 480.339 244.587C479.826 245.926 478.884 247.057 477.661 247.804C476.962 248.222 476.186 248.498 475.38 248.616C474.574 248.734 473.753 248.692 472.963 248.492C472.173 248.291 471.43 247.937 470.777 247.45C470.123 246.962 469.572 246.35 469.155 245.649C469.126 245.6 469.097 245.551 469.069 245.501Z" fill="#FFB6B6"/>
<path d="M467.926 102.727C467.926 102.727 478.869 93.4545 488.077 111.995C497.285 130.535 492.14 172.89 490.843 175.15C489.547 177.411 488.756 174.262 489.466 180.287C490.044 185.188 486.611 184.575 487.842 185.621C491.089 188.378 481.997 188.692 486.666 191.122C491.336 193.552 470.436 194.007 470.436 194.007C470.436 194.007 467.908 192.198 469.663 185.376C470.65 181.545 473.118 180.143 470.485 178.37C467.852 176.597 473.205 171.116 473.209 169.913C473.213 168.711 464.861 142.407 464.861 142.407L467.926 102.727Z" fill="#292D33"/>
<path d="M377.373 331.125C374.51 331.125 371.687 330.458 369.127 329.175C366.567 327.892 364.34 326.029 362.623 323.734L317.401 263.317C315.947 261.377 314.889 259.168 314.287 256.817C313.685 254.466 313.552 252.02 313.894 249.617C314.236 247.215 315.047 244.903 316.281 242.815C317.515 240.726 319.147 238.902 321.085 237.446C323.022 235.99 325.227 234.931 327.574 234.329C329.92 233.727 332.362 233.594 334.759 233.938C337.157 234.282 339.464 235.095 341.547 236.333C343.631 237.57 345.451 239.206 346.903 241.149L376.489 280.672L452.476 166.466C453.819 164.447 455.546 162.714 457.557 161.363C459.569 160.013 461.827 159.074 464.201 158.598C466.576 158.122 469.02 158.119 471.396 158.59C473.771 159.061 476.031 159.996 478.046 161.342C480.06 162.688 481.791 164.418 483.138 166.434C484.486 168.45 485.423 170.712 485.898 173.091C486.373 175.47 486.376 177.92 485.906 180.3C485.436 182.68 484.503 184.944 483.16 186.963L392.716 322.898C391.08 325.356 388.879 327.386 386.299 328.816C383.719 330.247 380.834 331.037 377.886 331.119C377.715 331.122 377.544 331.125 377.373 331.125Z" fill="#5C8EE6"/>
<path d="M411.844 236.925C412.767 235.502 413.099 233.774 412.77 232.11C412.441 230.445 411.477 228.975 410.083 228.012C409.796 227.821 409.494 227.654 409.18 227.512L413.349 178.295L397.916 173.434L400.712 231.199C400.228 232.549 400.203 234.022 400.642 235.388C401.081 236.753 401.959 237.935 403.138 238.748C403.814 239.204 404.573 239.523 405.371 239.685C406.17 239.848 406.992 239.851 407.792 239.695C408.592 239.539 409.353 239.227 410.032 238.776C410.712 238.325 411.296 237.744 411.751 237.068C411.783 237.02 411.814 236.973 411.844 236.925Z" fill="#FFB6B6"/>
<path d="M420.877 94.5337C420.877 94.5337 410.462 84.6694 400.246 102.671C390.029 120.673 392.831 163.248 394 165.577C395.17 167.906 396.133 164.806 395.092 170.783C394.245 175.644 397.707 175.222 396.42 176.198C393.025 178.771 402.087 179.588 397.29 181.756C392.493 183.923 413.337 185.535 413.337 185.535C413.337 185.535 415.961 183.869 414.584 176.96C413.811 173.08 411.423 171.544 414.15 169.919C416.877 168.295 411.834 162.526 411.897 161.325C411.959 160.124 421.749 134.322 421.749 134.322L420.877 94.5337Z" fill="#292D33"/>
</g>
<defs>
<clipPath id="clip0_1483_5401">
<rect width="720" height="433" fill="white"/>
</clipPath>
</defs>
</svg>
