<svg width="360" height="310" viewBox="0 0 360 310" fill="none" xmlns="http://www.w3.org/2000/svg">
<g clip-path="url(#clip0_198_2148)">
<path d="M231.446 302.615C232.254 303.047 233.175 303.22 234.084 303.111C234.994 303.002 235.848 302.615 236.53 302.004C237.213 301.393 237.691 300.586 237.901 299.694C238.11 298.801 238.04 297.866 237.701 297.014C237.791 296.561 237.857 296.236 237.948 295.783C239.696 294.15 241.891 293.077 244.252 292.701C246.613 292.325 249.033 292.664 251.201 293.673C253.369 294.682 255.186 296.316 256.42 298.365C257.654 300.415 258.248 302.786 258.126 305.176C257.573 318.652 258.238 333.194 249.287 344.058C290.138 310.652 308.765 253.743 296.289 202.558C290.168 194.022 287.312 182.682 290.058 172.406C293.502 175.759 300.218 174.858 299.191 169.054C298.641 166.76 298.071 164.473 297.521 162.179C321.049 152.991 327.192 188.002 299.322 202.256C301.583 211.987 302.821 221.928 303.016 231.917C306.162 222.91 311.401 214.78 318.299 208.194C324.979 202.176 333.811 198.637 342.028 194.599C352.026 189.672 363.123 199.439 359.186 209.865C352.53 209.013 347.821 216.974 353.861 221.253C343.252 239.082 322.911 250.414 302.245 250.594C300.155 270.938 293.756 290.603 283.474 308.277C296.677 288.187 322.226 293.971 342.418 293.115C343.758 292.946 345.118 293.171 346.332 293.762C347.546 294.354 348.562 295.286 349.256 296.445C349.95 297.604 350.292 298.94 350.24 300.291C350.188 301.641 349.744 302.947 348.963 304.049C346.307 303.893 343.642 304.002 341.007 304.373C339.768 304.557 338.615 305.119 337.708 305.984C336.801 306.849 336.184 307.973 335.94 309.203C335.697 310.433 335.839 311.708 336.348 312.854C336.857 313.999 337.708 314.959 338.783 315.602C321.071 331.852 293.624 335.345 272.083 324.976C265.715 333.004 258.529 340.348 250.643 346.89L218.618 331.613C218.673 331.202 218.745 330.785 218.811 330.38C221.687 331.98 224.747 333.222 227.924 334.079C224.508 321.045 220.701 313.411 231.444 302.615H231.446Z" fill="#F2F2F2"/>
<path d="M174.857 271.783C174.271 272.488 173.483 272.996 172.6 273.238C171.716 273.481 170.78 273.445 169.917 273.136C169.054 272.828 168.307 272.262 167.777 271.514C167.247 270.766 166.959 269.874 166.953 268.957C166.698 268.572 166.515 268.295 166.259 267.91C164.025 267.058 161.588 266.893 159.259 267.436C156.931 267.979 154.818 269.206 153.19 270.958C151.563 272.711 150.496 274.911 150.125 277.275C149.755 279.638 150.099 282.059 151.112 284.226C156.704 296.498 161.569 310.217 173.954 316.9C123.529 301.382 84.828 255.707 77.089 203.595C79.5407 193.378 77.911 181.798 71.4954 173.317C69.5688 177.723 63.0101 179.424 61.7727 173.661C61.418 171.328 61.0836 168.995 60.7287 166.663C35.4749 167.035 42.9821 201.779 74.167 204.46C75.741 214.325 78.3412 224 81.9253 233.324C75.6165 226.17 67.7006 220.618 58.829 217.123C50.3744 214.07 40.8607 214.127 31.729 213.489C20.6123 212.7 14.0168 225.934 21.5926 234.104C27.4354 230.803 34.798 236.398 30.8169 242.64C47.3618 255.148 70.4715 257.965 89.6794 250.33C99.2832 268.383 112.622 284.179 128.805 296.667C109.006 283.044 87.5236 298.046 68.5009 304.875C67.1964 305.224 66.0217 305.946 65.1201 306.952C64.2184 307.958 63.6288 309.205 63.423 310.54C63.2173 311.876 63.4044 313.242 63.9615 314.473C64.5187 315.704 65.4217 316.746 66.5605 317.472C68.9617 316.325 71.4709 315.419 74.0511 314.768C75.2681 314.471 76.5473 314.557 77.7133 315.016C78.8794 315.474 79.8752 316.282 80.5643 317.329C81.2534 318.376 81.602 319.611 81.5623 320.864C81.5227 322.117 81.0967 323.328 80.3429 324.329C102.872 332.692 129.608 325.567 145.649 307.832C154.573 312.863 163.996 316.953 173.765 320.034L197.666 293.797C197.461 293.437 197.237 293.078 197.023 292.727C194.963 295.295 192.597 297.601 189.977 299.593C188.229 286.233 188.877 277.725 174.858 271.783L174.857 271.783Z" fill="#F2F2F2"/>
<path d="M181.008 160.916C181.919 160.823 182.78 160.453 183.474 159.855C184.168 159.257 184.662 158.459 184.888 157.571C185.114 156.682 185.062 155.746 184.738 154.888C184.415 154.031 183.836 153.293 183.08 152.776C182.903 152.349 182.776 152.043 182.599 151.616C183.14 149.285 184.365 147.169 186.115 145.54C187.866 143.91 190.063 142.841 192.425 142.469C194.787 142.097 197.206 142.44 199.372 143.453C201.538 144.466 203.352 146.103 204.583 148.154C211.632 159.65 220.286 171.351 218.908 185.364C234.208 134.839 217.965 77.2032 179.091 41.6733C169.254 38.0026 160.565 30.1822 157.119 20.1198C161.847 20.9811 166.92 16.4865 162.834 12.2407C161.099 10.6436 159.352 9.06299 157.617 7.4658C172.03 -13.2897 196.635 12.3466 181.44 39.7309C188.739 46.5476 195.305 54.1092 201.033 62.2923C198.627 53.0598 198.445 43.3875 200.503 34.071C202.695 25.348 208.055 17.4821 212.626 9.54545C218.182 -0.122895 232.835 1.79332 235.376 12.6452C229.376 15.6514 229.902 24.8883 237.299 25.0698C238.426 45.7897 227.854 66.5466 210.798 78.2273C220.397 96.2819 226.041 116.177 227.353 136.586C227.12 112.541 251.553 103.087 267.838 91.1106C268.856 90.2228 270.11 89.6507 271.447 89.464C272.785 89.2773 274.147 89.4841 275.369 90.0592C276.591 90.6344 277.619 91.5529 278.329 92.7029C279.038 93.8528 279.397 95.1845 279.363 96.5353C277.071 97.8879 274.919 99.465 272.938 101.243C272.012 102.087 271.369 103.198 271.098 104.422C270.827 105.646 270.94 106.924 271.423 108.08C271.906 109.237 272.735 110.216 273.796 110.883C274.857 111.55 276.098 111.872 277.349 111.806C271.698 135.179 250.86 153.392 227.201 156.804C226.387 167.022 224.513 177.128 221.612 186.958L186.515 192.145C186.331 191.773 186.159 191.387 185.988 191.014C189.266 190.738 192.499 190.061 195.614 188.999C185.516 180.086 178.102 175.873 181.007 160.916L181.008 160.916Z" fill="#F2F2F2"/>
<path d="M216.307 149.654C200.328 149.654 191.662 147.7 188.635 143.529C185.964 139.849 187.755 134.993 189.828 129.371C191.318 125.33 193.007 120.749 193.007 116.216C193.007 94.1683 204.178 82.9888 226.21 82.9888C237.171 82.9888 248.941 88.8161 257.694 98.5772C265.651 107.451 269.615 118.072 268.57 127.715C267.712 135.624 264.034 140.825 256.993 144.084L256.581 144.275L256.464 143.836C255.856 141.566 254.827 139.431 253.431 137.542C253.295 140.507 252.548 143.413 251.236 146.076L251.161 146.228L250.999 146.275C243.03 148.546 233.573 149.162 226.224 149.444C222.647 149.583 219.342 149.653 216.307 149.654Z" fill="#2F2E41"/>
<path d="M220.662 180.374C220.049 178.572 219.016 176.943 217.649 175.621C216.281 174.299 214.618 173.322 212.798 172.772C210.977 172.222 209.052 172.114 207.182 172.458C205.312 172.801 203.55 173.586 202.044 174.748L149.487 206.193L133.04 166.035C134.43 163.996 135.138 161.568 135.063 159.101C134.989 156.634 134.135 154.253 132.625 152.301C131.115 150.349 129.027 148.926 126.658 148.236C124.29 147.545 121.764 147.623 119.443 148.458C117.122 149.293 115.125 150.843 113.738 152.884C112.351 154.925 111.645 157.353 111.723 159.821C111.8 162.288 112.656 164.667 114.168 166.617C115.68 168.568 117.771 169.988 120.14 170.676C121.153 182.256 126.787 234.016 146.384 232.134C162.857 230.553 203.765 203.289 216.471 193.835C218.503 192.325 220.004 190.207 220.758 187.788C221.511 185.369 221.477 182.773 220.662 180.374Z" fill="#FFB6B6"/>
<path d="M260.268 408.772H214.525L206.854 370.816L204.365 408.772H161.873C161.889 378.964 163.441 349.178 166.521 319.531L167.048 317.736L167.88 314.864L168.407 313.061L177.2 282.843L177.894 280.444H230.844C233.891 283.309 236.701 286.415 239.247 289.733C240.11 290.833 241.011 292.024 241.934 293.308C242.575 294.217 243.239 295.171 243.904 296.172C249.803 304.962 254.213 314.666 256.956 324.893V324.9C257.421 326.65 257.834 328.44 258.192 330.27V330.278C258.513 331.905 258.795 333.555 259.017 335.243C259.185 336.473 259.33 337.718 259.436 338.978C260.073 345.961 259.85 352.995 258.772 359.923L260.268 408.772Z" fill="#2F2E41"/>
<path d="M17.7349 61.7088C20.7056 60.558 22.4653 57.9485 21.6654 55.8804C20.8654 53.8123 17.8086 53.0687 14.8379 54.2195C11.8672 55.3703 10.1075 57.9798 10.9075 60.0479C11.7074 62.116 14.7642 62.8596 17.7349 61.7088Z" fill="#E6E6E6"/>
<path d="M55.1372 56.907C58.1079 55.7562 59.8677 53.1468 59.0677 51.0787C58.2677 49.0105 55.211 48.2669 52.2403 49.4177C49.2696 50.5686 47.5098 53.178 48.3098 55.2461C49.1098 57.3142 52.1665 58.0578 55.1372 56.907Z" fill="#3F3D56"/>
<path d="M14.4898 93.6439C17.4605 92.493 19.2202 89.8836 18.4203 87.8155C17.6203 85.7473 14.5635 85.0037 11.5928 86.1545C8.62212 87.3054 6.86237 89.9148 7.66235 91.9829C8.46232 94.0511 11.5191 94.7947 14.4898 93.6439Z" fill="#FF6584"/>
<path d="M3.67036 107.731C5.03322 107.408 5.76215 105.557 5.29845 103.596C4.83474 101.636 3.35399 100.308 1.99112 100.631C0.628256 100.954 -0.100652 102.805 0.363055 104.765C0.826763 106.726 2.30749 108.054 3.67036 107.731Z" fill="#E6E6E6"/>
<path d="M3.44673 131.58C4.80959 131.257 5.5385 129.406 5.07479 127.446C4.61108 125.485 3.13036 124.158 1.76749 124.48C0.404623 124.803 -0.324285 126.654 0.139423 128.615C0.60313 130.575 2.08386 131.903 3.44673 131.58Z" fill="#3F3D56"/>
<path d="M36.2758 82.1823C37.6387 81.8595 38.3676 80.0085 37.9039 78.0479C37.4402 76.0873 35.9595 74.7597 34.5966 75.0825C33.2337 75.4053 32.5048 77.2563 32.9685 79.2169C33.4322 81.1775 34.913 82.5052 36.2758 82.1823Z" fill="#E6E6E6"/>
<path d="M16.5756 77.3952C17.9385 77.0724 18.6674 75.2214 18.2037 73.2608C17.74 71.3002 16.2593 69.9726 14.8964 70.2954C13.5335 70.6182 12.8046 72.4692 13.2683 74.4298C13.732 76.3904 15.2128 77.7181 16.5756 77.3952Z" fill="#FF6584"/>
<path d="M37.4555 55.4338C38.8184 55.111 39.5473 53.2599 39.0836 51.2994C38.6199 49.3388 37.1391 48.0111 35.7763 48.3339C34.4134 48.6568 33.6845 50.5078 34.1482 52.4684C34.6119 54.429 36.0926 55.7566 37.4555 55.4338Z" fill="#3F3D56"/>
<path d="M47.1664 220.5C48.6028 218.812 47.8008 215.768 45.375 213.701C42.9493 211.635 39.8184 211.329 38.382 213.018C36.9457 214.706 37.7477 217.75 40.1734 219.817C42.5992 221.883 45.73 222.189 47.1664 220.5Z" fill="#E6E6E6"/>
<path d="M25.1371 189.87C26.5735 188.182 25.7715 185.138 23.3457 183.071C20.92 181.005 17.7891 180.699 16.3527 182.388C14.9164 184.076 15.7184 187.12 18.1441 189.187C20.5699 191.253 23.7007 191.559 25.1371 189.87Z" fill="#3F3D56"/>
<path d="M76.7738 208.149C78.2102 206.461 77.4082 203.416 74.9825 201.35C72.5567 199.284 69.4259 198.978 67.9895 200.666C66.5531 202.355 67.3551 205.399 69.7809 207.466C72.2066 209.532 75.3375 209.838 76.7738 208.149Z" fill="#FF6584"/>
<path d="M91.4816 208.487C92.9836 207.146 93.4451 205.21 92.5126 204.165C91.58 203.119 89.6064 203.359 88.1044 204.701C86.6024 206.042 86.1408 207.978 87.0734 209.023C88.006 210.069 89.9796 209.829 91.4816 208.487Z" fill="#E6E6E6"/>
<path d="M112.544 197.327C114.046 195.986 114.508 194.05 113.575 193.005C112.642 191.959 110.669 192.199 109.167 193.541C107.665 194.882 107.203 196.817 108.136 197.863C109.068 198.909 111.042 198.669 112.544 197.327Z" fill="#3F3D56"/>
<path d="M53.507 191.958C55.009 190.617 55.4706 188.682 54.538 187.636C53.6054 186.59 51.6318 186.83 50.1298 188.172C48.6278 189.513 48.1662 191.449 49.0988 192.494C50.0313 193.54 52.005 193.3 53.507 191.958Z" fill="#E6E6E6"/>
<path d="M58.6798 211.574C60.1818 210.233 60.6434 208.297 59.7108 207.252C58.7782 206.206 56.8046 206.446 55.3026 207.788C53.8006 209.129 53.339 211.064 54.2716 212.11C55.2042 213.156 57.1778 212.916 58.6798 211.574Z" fill="#FF6584"/>
<path d="M29.4406 203.656C30.9425 202.315 31.4041 200.379 30.4715 199.334C29.5389 198.288 27.5653 198.528 26.0634 199.87C24.5614 201.211 24.0998 203.146 25.0323 204.192C25.9649 205.238 27.9386 204.998 29.4406 203.656Z" fill="#3F3D56"/>
<path d="M195.158 24.0526C197.147 23.0739 197.619 19.9615 196.213 17.1008C194.808 14.2402 192.056 12.7146 190.067 13.6933C188.079 14.672 187.606 17.7843 189.012 20.645C190.418 23.5056 193.17 25.0313 195.158 24.0526Z" fill="#E6E6E6"/>
<path d="M203.215 60.9193C205.203 59.9406 205.676 56.8282 204.27 53.9675C202.864 51.1069 200.113 49.5813 198.124 50.56C196.135 51.5387 195.663 54.651 197.069 57.5117C198.475 60.3723 201.226 61.898 203.215 60.9193Z" fill="#3F3D56"/>
<path d="M163.084 23.617C165.073 22.6383 165.545 19.5259 164.139 16.6653C162.733 13.8047 159.982 12.279 157.993 13.2577C156.005 14.2364 155.532 17.3488 156.938 20.2095C158.344 23.0701 161.096 24.5957 163.084 23.617Z" fill="#FF6584"/>
<path d="M146.226 11.9176C148.137 11.2836 149.329 9.69112 148.888 8.36078C148.447 7.03043 146.541 6.46595 144.63 7.1C142.719 7.73405 141.527 9.32651 141.968 10.6569C142.409 11.9872 144.315 12.5517 146.226 11.9176Z" fill="#E6E6E6"/>
<path d="M122.466 13.7853C124.377 13.1512 125.569 11.5588 125.128 10.2284C124.688 8.8981 122.781 8.33364 120.87 8.96769C118.959 9.60174 117.767 11.1942 118.208 12.5245C118.649 13.8549 120.555 14.4193 122.466 13.7853Z" fill="#3F3D56"/>
<path d="M174.515 42.1832C176.426 41.5492 177.618 39.9567 177.177 38.6264C176.736 37.296 174.83 36.7316 172.919 37.3656C171.008 37.9997 169.816 39.5921 170.257 40.9225C170.698 42.2528 172.604 42.8173 174.515 42.1832Z" fill="#E6E6E6"/>
<path d="M177.553 22.1256C179.464 21.4916 180.656 19.8991 180.215 18.5688C179.775 17.2384 177.868 16.674 175.957 17.308C174.046 17.9421 172.854 19.5345 173.295 20.8649C173.736 22.1952 175.642 22.7597 177.553 22.1256Z" fill="#FF6584"/>
<path d="M201.244 41.0162C203.155 40.3822 204.346 38.7897 203.906 37.4594C203.465 36.129 201.559 35.5646 199.648 36.1986C197.737 36.8327 196.545 38.4251 196.986 39.7555C197.426 41.0858 199.333 41.6503 201.244 41.0162Z" fill="#3F3D56"/>
<path d="M208.579 155.792L233.779 154.493L245.485 173.002C245.485 173.002 267.508 176.686 265.981 202.657C264.455 228.628 239.185 251.418 239.185 251.418L240.266 264.943L238.39 270.307L238.63 273.319L241.189 276.509L241.453 279.808L239.185 285.028L242.269 290.025L177.44 283.74L175.069 275.097L178.528 270.457L176.596 264.404L179.5 258.581L181.014 240.088C181.014 240.088 164.448 215.181 183.465 196.421L191.098 183.435L199.639 173.008L208.579 155.792Z" fill="#5C8EE5"/>
<path d="M221.107 150.565C235.855 150.565 247.81 138.601 247.81 123.842C247.81 109.084 235.855 97.1196 221.107 97.1196C206.36 97.1196 194.404 109.084 194.404 123.842C194.404 138.601 206.36 150.565 221.107 150.565Z" fill="#FFB6B6"/>
<path d="M217.532 122.223C215.231 122.223 212.931 122.158 210.633 122.028L210.222 122.005L210.276 121.597C210.615 119.046 210.424 116.453 209.716 113.98C208.514 116.796 206.726 119.324 204.47 121.394L204.343 121.511L204.171 121.492C197.929 120.809 191.743 119.68 185.661 118.114L185.428 118.054L185.382 117.819C184.928 115.586 184.692 113.315 184.68 111.037C184.68 103.921 187.258 97.9319 191.939 94.1727C197.034 90.0808 204.338 88.8224 212.513 90.6272H238.652C241.525 90.6305 244.28 91.7743 246.312 93.8078C248.344 95.8413 249.487 98.5983 249.491 101.474V118.039L249.205 118.114C238.867 120.833 228.222 122.214 217.532 122.223Z" fill="#2F2E41"/>
<path d="M35.325 92.4983C34.1549 92.9265 33.2023 93.8018 32.6763 94.9321C32.1502 96.0623 32.0936 97.3553 32.519 98.5272L60.7173 175.958C61.1452 177.129 62.0198 178.082 63.1492 178.609C64.2786 179.135 65.5706 179.192 66.7417 178.766L176.184 138.851C177.354 138.423 178.307 137.548 178.833 136.417C179.359 135.287 179.416 133.994 178.99 132.822L150.792 55.3914C150.364 54.2204 149.489 53.2671 148.36 52.7406C147.231 52.2141 145.939 52.1575 144.767 52.5831L35.325 92.4983Z" fill="#CCCCCC"/>
<path d="M135.452 149.438L68.4615 173.871C67.201 174.329 65.8105 174.268 64.5949 173.701C63.3794 173.134 62.4381 172.108 61.9775 170.848L36.4019 100.619C35.9441 99.3576 36.0049 97.966 36.5711 96.7495C37.1373 95.533 38.1626 94.591 39.422 94.13L142.68 56.4704C143.941 56.0123 145.331 56.0733 146.547 56.6399C147.762 57.2065 148.704 58.2326 149.164 59.493L161.522 93.4269C165.473 104.315 164.948 116.327 160.06 126.827C155.173 137.328 146.323 145.46 135.452 149.438V149.438Z" fill="white"/>
<path d="M87.2494 98.7036L71.3302 104.509C71.1306 104.582 70.9186 104.615 70.7063 104.606C70.494 104.597 70.2856 104.546 70.093 104.456C69.9004 104.366 69.7274 104.239 69.5838 104.083C69.4401 103.926 69.3288 103.742 69.256 103.543C69.1833 103.343 69.1505 103.131 69.1597 102.918C69.1689 102.706 69.2198 102.497 69.3095 102.304C69.3992 102.112 69.526 101.939 69.6826 101.795C69.8392 101.651 70.0225 101.54 70.2222 101.467L86.1413 95.6609C86.5445 95.5138 86.9895 95.5331 87.3785 95.7144C87.7675 95.8957 88.0686 96.2243 88.2155 96.6278C88.3625 97.0312 88.3432 97.4766 88.162 97.8659C87.9809 98.2552 87.6526 98.5565 87.2494 98.7036H87.2494Z" fill="#5C8EE5"/>
<path d="M125.2 91.9111L73.5958 110.732C73.3961 110.805 73.1839 110.838 72.9715 110.829C72.759 110.82 72.5504 110.769 72.3576 110.68C72.1648 110.59 71.9915 110.463 71.8477 110.306C71.704 110.149 71.5925 109.966 71.5197 109.766C71.4469 109.566 71.4142 109.353 71.4234 109.141C71.4327 108.928 71.4837 108.72 71.5736 108.527C71.6635 108.334 71.7905 108.161 71.9474 108.017C72.1042 107.873 72.2878 107.762 72.4877 107.689L124.092 88.8684C124.292 88.7956 124.504 88.7628 124.716 88.772C124.928 88.7812 125.137 88.8321 125.329 88.9219C125.522 89.0117 125.695 89.1386 125.839 89.2953C125.982 89.452 126.094 89.6355 126.167 89.8353C126.239 90.0351 126.272 90.2472 126.263 90.4597C126.254 90.6721 126.203 90.8807 126.113 91.0734C126.023 91.2662 125.896 91.4394 125.74 91.5831C125.583 91.7268 125.4 91.8383 125.2 91.9111V91.9111Z" fill="#5C8EE5"/>
<path d="M127.802 99.0529L76.1975 117.874C75.9978 117.947 75.7858 117.979 75.5735 117.97C75.3612 117.961 75.1528 117.91 74.9602 117.82C74.7676 117.731 74.5946 117.604 74.4509 117.447C74.3073 117.29 74.196 117.107 74.1232 116.907C74.0504 116.707 74.0177 116.495 74.0269 116.283C74.0361 116.07 74.087 115.862 74.1767 115.669C74.2664 115.476 74.3932 115.303 74.5498 115.159C74.7064 115.015 74.8897 114.904 75.0894 114.831L126.694 96.0103C127.097 95.8639 127.542 95.8835 127.93 96.0649C128.319 96.2464 128.619 96.5747 128.766 96.9779C128.913 97.381 128.894 97.826 128.713 98.2151C128.532 98.6042 128.205 98.9055 127.802 99.0529V99.0529Z" fill="#5C8EE5"/>
<path d="M130.403 106.196L78.7989 125.017C78.5992 125.09 78.3871 125.123 78.1746 125.114C77.9621 125.105 77.7535 125.054 77.5607 124.964C77.3679 124.874 77.1947 124.748 77.0509 124.591C76.9071 124.434 76.7956 124.25 76.7228 124.05C76.65 123.85 76.6173 123.638 76.6265 123.426C76.6358 123.213 76.6868 123.004 76.7767 122.811C76.8666 122.619 76.9936 122.445 77.1505 122.302C77.3074 122.158 77.491 122.047 77.6908 121.974L129.295 103.153C129.495 103.08 129.707 103.048 129.919 103.057C130.132 103.066 130.34 103.117 130.533 103.207C130.725 103.296 130.898 103.423 131.042 103.58C131.186 103.737 131.297 103.92 131.37 104.12C131.442 104.32 131.475 104.532 131.466 104.744C131.457 104.957 131.406 105.165 131.316 105.358C131.226 105.551 131.1 105.724 130.943 105.868C130.786 106.011 130.603 106.123 130.403 106.196V106.196Z" fill="#5C8EE5"/>
<path d="M133.003 113.338L81.3986 132.159C80.9954 132.306 80.5504 132.287 80.1614 132.105C79.7724 131.924 79.4713 131.595 79.3244 131.192C79.1774 130.788 79.1967 130.343 79.3779 129.954C79.5591 129.564 79.8874 129.263 80.2905 129.116L131.895 110.295C132.095 110.222 132.307 110.19 132.519 110.199C132.731 110.208 132.94 110.259 133.132 110.349C133.325 110.438 133.498 110.565 133.642 110.722C133.785 110.879 133.897 111.062 133.969 111.262C134.042 111.462 134.075 111.674 134.066 111.886C134.056 112.099 134.006 112.307 133.916 112.5C133.826 112.693 133.699 112.866 133.543 113.01C133.386 113.154 133.203 113.265 133.003 113.338H133.003Z" fill="#5C8EE5"/>
<path d="M296.745 133.174L268.491 200.836C267.286 203.699 265.004 205.973 262.138 207.167C259.271 208.361 256.051 208.38 253.171 207.219C251.682 206.618 250.33 205.72 249.198 204.58C248.067 203.439 247.179 202.08 246.589 200.585C246 199.09 245.721 197.49 245.769 195.884C245.817 194.277 246.192 192.697 246.87 191.241L278.372 121.857L295.738 78.8891C294.238 77.3913 293.234 75.4675 292.864 73.3791C292.494 71.2907 292.775 69.139 293.67 67.2162C294.565 65.2934 296.029 63.6927 297.864 62.6318C299.699 61.5708 301.816 61.1009 303.928 61.286C306.039 61.471 308.042 62.302 309.665 63.6661C311.288 65.0302 312.452 66.8611 312.999 68.9103C313.546 70.9594 313.449 73.1274 312.722 75.1196C311.995 77.1118 310.672 78.8317 308.934 80.0456L296.745 133.174Z" fill="#FFB6B6"/>
</g>
<defs>
<clipPath id="clip0_198_2148">
<rect width="360" height="310" fill="white"/>
</clipPath>
</defs>
</svg>
